<svg width="569" height="618" viewBox="0 0 569 618" fill="none" xmlns="http://www.w3.org/2000/svg">
<g opacity="0.9">
<g filter="url(#filter0_d_101_73)">
<path d="M170.26 459.468C186.14 458.383 198.134 444.629 197.049 428.749C195.963 412.869 182.21 400.875 166.33 401.961C150.449 403.046 138.456 416.799 139.541 432.68C140.627 448.56 154.38 460.553 170.26 459.468Z" fill="#FFF5F0" fill-opacity="0.5" shape-rendering="crispEdges"/>
<path d="M166.261 400.963C182.692 399.84 196.923 412.249 198.046 428.68C199.169 445.112 186.759 459.343 170.328 460.466C153.897 461.589 139.667 449.178 138.543 432.747C137.421 416.316 149.83 402.086 166.261 400.963Z" stroke="#262626" stroke-width="2" shape-rendering="crispEdges"/>
</g>
<g filter="url(#filter1_d_101_73)">
<path d="M252.863 510.449C268.201 510.449 280.635 498.015 280.635 482.677C280.635 467.339 268.201 454.905 252.863 454.905C237.524 454.905 225.091 467.339 225.091 482.677C225.091 498.015 237.524 510.449 252.863 510.449Z" fill="#FFF5F0" fill-opacity="0.5" shape-rendering="crispEdges"/>
<path d="M252.862 453.905C268.752 453.905 281.635 466.787 281.635 482.677C281.634 498.567 268.752 511.449 252.862 511.449C236.972 511.449 224.091 498.567 224.091 482.677C224.091 466.787 236.972 453.905 252.862 453.905Z" stroke="#262626" stroke-width="2" shape-rendering="crispEdges"/>
</g>
<g filter="url(#filter2_d_101_73)">
<path d="M321.706 490.773C321.706 476.006 333.662 464.05 348.429 464.05C363.196 464.05 375.153 476.006 375.153 490.773C375.153 505.54 363.196 517.496 348.429 517.496C333.662 517.496 321.706 505.54 321.706 490.773Z" fill="#FFF5F0" fill-opacity="0.5" shape-rendering="crispEdges"/>
<path d="M348.43 463.05C363.749 463.05 376.153 475.455 376.153 490.774C376.152 506.093 363.749 518.496 348.43 518.496C333.111 518.496 320.707 506.093 320.706 490.774C320.706 475.454 333.111 463.05 348.43 463.05Z" stroke="#262626" stroke-width="2" shape-rendering="crispEdges"/>
</g>
<g filter="url(#filter3_d_101_73)">
<path d="M413.286 455.156C413.286 440.977 424.781 429.44 439.002 429.44C453.224 429.44 464.719 440.935 464.719 455.156C464.719 469.378 453.224 480.873 439.002 480.873C424.781 480.873 413.286 469.378 413.286 455.156Z" fill="#FFF5F0" fill-opacity="0.5" shape-rendering="crispEdges"/>
<path d="M439.002 428.44C453.776 428.44 465.719 440.383 465.719 455.157C465.719 469.93 453.776 481.873 439.002 481.873C424.228 481.872 412.286 469.93 412.286 455.157C412.286 440.426 424.227 428.44 439.002 428.44Z" stroke="#262626" stroke-width="2" shape-rendering="crispEdges"/>
</g>
<g filter="url(#filter4_d_101_73)">
<path d="M481.877 380.189C481.877 366.555 492.911 355.521 506.545 355.521C520.179 355.521 531.213 366.555 531.213 380.189C531.213 393.823 520.179 404.856 506.545 404.856C492.911 404.856 481.877 393.823 481.877 380.189Z" fill="#FFF5F0" fill-opacity="0.5" shape-rendering="crispEdges"/>
<path d="M506.545 354.521C520.732 354.521 532.212 366.003 532.212 380.189C532.212 394.375 520.732 405.856 506.545 405.856C492.359 405.856 480.878 394.376 480.877 380.189C480.877 366.003 492.359 354.521 506.545 354.521Z" stroke="#262626" stroke-width="2" shape-rendering="crispEdges"/>
</g>
<g filter="url(#filter5_d_101_73)">
<path d="M512.125 287.77C512.125 274.723 522.696 264.151 535.743 264.151C548.79 264.151 559.362 274.723 559.362 287.77C559.362 300.817 548.79 311.388 535.743 311.388C522.696 311.388 512.125 300.817 512.125 287.77Z" fill="#FFF5F0" fill-opacity="0.5" shape-rendering="crispEdges"/>
<path d="M535.744 263.151C549.343 263.151 560.362 274.171 560.362 287.77C560.362 301.369 549.343 312.388 535.744 312.388C522.145 312.388 511.125 301.369 511.125 287.77C511.125 274.171 522.144 263.151 535.744 263.151Z" stroke="#262626" stroke-width="2" shape-rendering="crispEdges"/>
</g>
<g filter="url(#filter6_d_101_73)">
<path d="M502.979 192.204C502.979 179.702 513.09 169.592 525.591 169.592C538.093 169.592 548.203 179.702 548.203 192.204C548.203 204.705 538.093 214.816 525.591 214.816C513.09 214.816 502.979 204.705 502.979 192.204Z" fill="#FFF5F0" fill-opacity="0.5" shape-rendering="crispEdges"/>
<path d="M525.592 168.592C538.645 168.592 549.203 179.15 549.203 192.204C549.203 205.258 538.645 215.815 525.592 215.815C512.538 215.815 501.979 205.258 501.979 192.204C501.979 179.15 512.538 168.592 525.592 168.592Z" stroke="#262626" stroke-width="2" shape-rendering="crispEdges"/>
</g>
<g filter="url(#filter7_d_101_73)">
<path d="M454.441 106.538C454.441 94.624 464.09 84.9751 476.004 84.9751C487.918 84.9751 497.567 94.624 497.567 106.538C497.567 118.453 487.918 128.101 476.004 128.101C464.09 128.101 454.441 118.453 454.441 106.538Z" fill="#FFF5F0" fill-opacity="0.5" shape-rendering="crispEdges"/>
<path d="M476.003 83.9751C488.47 83.9751 498.567 94.072 498.567 106.539C498.567 119.005 488.47 129.101 476.003 129.101C463.537 129.101 453.441 119.005 453.441 106.539C453.441 94.0722 463.537 83.9753 476.003 83.9751Z" stroke="#262626" stroke-width="2" shape-rendering="crispEdges"/>
</g>
<g filter="url(#filter8_d_101_73)">
<path d="M374.607 46.7153C374.607 35.3883 383.794 26.2009 395.121 26.2009C406.448 26.2009 415.636 35.3883 415.636 46.7153C415.636 58.0422 406.448 67.2296 395.121 67.2296C383.794 67.2296 374.607 58.0422 374.607 46.7153Z" fill="#FFF5F0" fill-opacity="0.5" shape-rendering="crispEdges"/>
<path d="M395.122 25.2009C407.001 25.2011 416.636 34.8364 416.636 46.7156C416.636 58.5946 407.001 68.2291 395.122 68.2292C383.242 68.2292 373.607 58.5947 373.607 46.7156C373.607 34.8363 383.242 25.2009 395.122 25.2009Z" stroke="#262626" stroke-width="2" shape-rendering="crispEdges"/>
</g>
<g filter="url(#filter9_d_101_73)">
<path d="M282.061 22.2575C282.061 11.4759 290.787 2.75 301.569 2.75C312.35 2.75 321.076 11.4759 321.076 22.2575C321.076 33.0391 312.35 41.765 301.569 41.765C290.787 41.765 282.061 33.0391 282.061 22.2575Z" fill="#FFF5F0" fill-opacity="0.5" shape-rendering="crispEdges"/>
<path d="M301.569 1.75C312.903 1.75011 322.076 10.924 322.076 22.2578C322.076 33.5915 312.903 42.7645 301.569 42.7646C290.235 42.7646 281.061 33.5915 281.061 22.2578C281.061 10.924 290.235 1.75 301.569 1.75Z" stroke="#262626" stroke-width="2" shape-rendering="crispEdges"/>
</g>
<g filter="url(#filter10_d_101_73)">
<path d="M187.502 33.2488C187.502 23.0545 195.767 14.79 205.961 14.79C216.155 14.79 224.42 23.0545 224.42 33.2488C224.42 43.443 216.155 51.7075 205.961 51.7075C195.767 51.7075 187.502 43.443 187.502 33.2488Z" fill="#FFF5F0" fill-opacity="0.5" shape-rendering="crispEdges"/>
<path d="M205.961 13.79C216.708 13.7903 225.419 22.5026 225.419 33.249C225.419 43.9953 216.707 52.7068 205.961 52.707C195.215 52.707 186.502 43.9954 186.502 33.249C186.502 22.5025 195.215 13.79 205.961 13.79Z" stroke="#262626" stroke-width="2" shape-rendering="crispEdges"/>
</g>
<g filter="url(#filter11_d_101_73)">
<path d="M101.544 79.7309C101.544 70.0821 109.347 62.2791 118.996 62.2791C128.645 62.2791 136.448 70.0821 136.448 79.7309C136.448 89.3798 128.645 97.1828 118.996 97.1828C109.347 97.1828 101.544 89.3798 101.544 79.7309Z" fill="#FFF5F0" fill-opacity="0.5" shape-rendering="crispEdges"/>
<path d="M118.996 61.2791C129.197 61.2793 137.448 69.5302 137.448 79.7312C137.447 89.9321 129.197 98.1822 118.996 98.1824C108.795 98.1824 100.544 89.9322 100.544 79.7312C100.544 69.53 108.795 61.2791 118.996 61.2791Z" stroke="#262626" stroke-width="2" shape-rendering="crispEdges"/>
</g>
<g filter="url(#filter12_d_101_73)">
<path d="M36.7281 156.922C36.7281 147.861 44.0696 140.519 53.1311 140.519C62.1927 140.519 69.5344 147.861 69.5344 156.922C69.5344 165.984 62.1927 173.325 53.1311 173.325C44.0696 173.325 36.7281 165.984 36.7281 156.922Z" fill="#FFF5F0" fill-opacity="0.5" shape-rendering="crispEdges"/>
<path d="M53.1315 139.519C62.7451 139.519 70.5348 147.309 70.5348 156.922C70.5347 166.536 62.7451 174.325 53.1315 174.326C43.5177 174.326 35.7283 166.536 35.7281 156.922C35.7281 147.309 43.5176 139.519 53.1315 139.519Z" stroke="#262626" stroke-width="2" shape-rendering="crispEdges"/>
</g>
<g filter="url(#filter13_d_101_73)">
<path d="M3.50281 248.167C3.50281 239.693 10.383 232.813 18.8573 232.813C27.3315 232.813 34.2114 239.693 34.2114 248.167C34.2114 256.641 27.3315 263.521 18.8573 263.521C10.383 263.521 3.50281 256.641 3.50281 248.167Z" fill="#FFF5F0" fill-opacity="0.5" shape-rendering="crispEdges"/>
<path d="M18.8573 231.813C27.8838 231.813 35.2118 239.141 35.2118 248.167C35.2117 257.194 27.8837 264.522 18.8573 264.522C9.83086 264.522 2.50291 257.194 2.50281 248.167C2.50281 239.141 9.8308 231.813 18.8573 231.813Z" stroke="#262626" stroke-width="2" shape-rendering="crispEdges"/>
</g>
<g filter="url(#filter14_d_101_73)">
<path d="M2.20203 344.32C2.20203 336.391 8.62081 329.973 16.5497 329.973C24.4785 329.973 30.8971 336.391 30.8971 344.32C30.8971 352.249 24.4785 358.668 16.5497 358.668C8.62081 358.668 2.20203 352.249 2.20203 344.32Z" fill="#FFF5F0" fill-opacity="0.5" shape-rendering="crispEdges"/>
<path d="M16.5497 328.973C25.0308 328.973 31.8973 335.839 31.8973 344.32C31.8972 352.801 25.0308 359.668 16.5497 359.668C8.06862 359.668 1.20214 352.802 1.20203 344.32C1.20203 335.839 8.06856 328.973 16.5497 328.973Z" stroke="#262626" stroke-width="2" shape-rendering="crispEdges"/>
</g>
<g filter="url(#filter15_d_101_73)">
<path d="M32.8689 436.824C32.8689 429.482 38.8262 423.525 46.1677 423.525C53.5093 423.525 59.4663 429.482 59.4663 436.824C59.4663 444.165 53.5093 450.122 46.1677 450.122C38.8262 450.122 32.8689 444.165 32.8689 436.824Z" fill="#FFF5F0" fill-opacity="0.5" shape-rendering="crispEdges"/>
<path d="M46.1677 422.525C54.0616 422.525 60.4666 428.93 60.4666 436.824C60.4665 444.718 54.0615 451.123 46.1677 451.123C38.274 451.123 31.869 444.718 31.8689 436.824C31.8689 428.93 38.2739 422.525 46.1677 422.525Z" stroke="#262626" stroke-width="2" shape-rendering="crispEdges"/>
</g>
<g filter="url(#filter16_d_101_73)">
<path d="M95.3345 516.951C95.3345 510.197 100.83 504.701 107.584 504.701C114.338 504.701 119.834 510.197 119.834 516.951C119.834 523.706 114.338 529.201 107.584 529.201C100.83 529.201 95.3345 523.706 95.3345 516.951Z" fill="#FFF5F0" fill-opacity="0.5" shape-rendering="crispEdges"/>
<path d="M107.584 503.701C114.891 503.702 120.834 509.645 120.834 516.951C120.834 524.258 114.891 530.201 107.584 530.201C100.278 530.201 94.3345 524.258 94.3345 516.951C94.3345 509.645 100.278 503.701 107.584 503.701Z" stroke="#262626" stroke-width="2" shape-rendering="crispEdges"/>
</g>
<g filter="url(#filter17_d_101_73)">
<path d="M179.49 572.789C179.49 566.58 184.524 561.546 190.733 561.546C196.942 561.546 201.976 566.58 201.976 572.789C201.976 578.998 196.942 584.032 190.733 584.032C184.524 584.032 179.49 578.998 179.49 572.789Z" fill="#FFF5F0" fill-opacity="0.5" shape-rendering="crispEdges"/>
<path d="M190.733 560.546C197.494 560.546 202.976 566.028 202.976 572.789C202.976 579.55 197.494 585.032 190.733 585.032C183.972 585.032 178.49 579.55 178.49 572.789C178.49 566.028 183.972 560.546 190.733 560.546Z" stroke="#262626" stroke-width="2" shape-rendering="crispEdges"/>
</g>
<g filter="url(#filter18_d_101_73)">
<path d="M273.713 599.806C273.713 594.184 278.286 589.612 283.907 589.612C289.529 589.612 294.101 594.184 294.101 599.806C294.101 605.427 289.529 610 283.907 610C278.286 610 273.713 605.427 273.713 599.806Z" fill="#FFF5F0" fill-opacity="0.5" shape-rendering="crispEdges"/>
<path d="M283.907 588.612C290.081 588.612 295.102 593.632 295.102 599.806C295.102 605.98 290.081 611 283.907 611C277.733 611 272.713 605.98 272.713 599.806C272.713 593.632 277.733 588.612 283.907 588.612Z" stroke="#262626" stroke-width="2" shape-rendering="crispEdges"/>
</g>
<g filter="url(#filter19_d_101_73)">
<path d="M380.145 607.231C385.196 607.231 389.29 603.137 389.29 598.086C389.29 593.035 385.196 588.94 380.145 588.94C375.094 588.94 371 593.035 371 598.086C371 603.137 375.094 607.231 380.145 607.231Z" fill="#FFF5F0" fill-opacity="0.5" shape-rendering="crispEdges"/>
<path d="M380.145 587.94C385.748 587.94 390.291 592.483 390.291 598.086C390.291 603.689 385.748 608.231 380.145 608.231C374.542 608.231 370 603.689 370 598.086C370 592.483 374.542 587.94 380.145 587.94Z" stroke="#262626" stroke-width="2" shape-rendering="crispEdges"/>
</g>
<g filter="url(#filter20_d_101_73)">
<path d="M464.342 567.545C464.342 563.056 467.992 559.406 472.481 559.406C476.969 559.406 480.619 563.056 480.619 567.545C480.619 572.033 476.969 575.683 472.481 575.683C467.992 575.683 464.342 572.033 464.342 567.545Z" fill="#FFF5F0" fill-opacity="0.5" shape-rendering="crispEdges"/>
<path d="M472.481 558.406C477.522 558.406 481.619 562.504 481.619 567.545C481.619 572.586 477.522 576.683 472.481 576.683C467.44 576.683 463.342 572.586 463.342 567.545C463.342 562.504 467.44 558.406 472.481 558.406Z" stroke="#262626" stroke-width="2" shape-rendering="crispEdges"/>
</g>
<g filter="url(#filter21_d_101_73)">
<path d="M546.819 508.268C546.819 504.366 550.007 501.178 553.908 501.178C557.81 501.178 560.998 504.366 560.998 508.268C560.998 512.169 557.81 515.357 553.908 515.357C550.007 515.357 546.819 512.169 546.819 508.268Z" fill="#FFF5F0" fill-opacity="0.5" shape-rendering="crispEdges"/>
<path d="M553.908 500.178C558.362 500.178 561.998 503.814 561.998 508.268C561.998 512.721 558.362 516.357 553.908 516.357C549.455 516.357 545.819 512.721 545.819 508.268C545.819 503.814 549.455 500.178 553.908 500.178Z" stroke="#262626" stroke-width="2" shape-rendering="crispEdges"/>
</g>
</g>
<defs>
<filter id="filter0_d_101_73" x="137.473" y="399.892" width="67.644" height="67.644" filterUnits="userSpaceOnUse" color-interpolation-filters="sRGB">
<feFlood flood-opacity="0" result="BackgroundImageFix"/>
<feColorMatrix in="SourceAlpha" type="matrix" values="0 0 0 0 0 0 0 0 0 0 0 0 0 0 0 0 0 0 127 0" result="hardAlpha"/>
<feOffset dx="6" dy="6"/>
<feComposite in2="hardAlpha" operator="out"/>
<feColorMatrix type="matrix" values="0 0 0 0 0.0980392 0 0 0 0 0.0980392 0 0 0 0 0.0980392 0 0 0 1 0"/>
<feBlend mode="normal" in2="BackgroundImageFix" result="effect1_dropShadow_101_73"/>
<feBlend mode="normal" in="SourceGraphic" in2="effect1_dropShadow_101_73" result="shape"/>
</filter>
<filter id="filter1_d_101_73" x="223.091" y="452.905" width="65.5439" height="65.5439" filterUnits="userSpaceOnUse" color-interpolation-filters="sRGB">
<feFlood flood-opacity="0" result="BackgroundImageFix"/>
<feColorMatrix in="SourceAlpha" type="matrix" values="0 0 0 0 0 0 0 0 0 0 0 0 0 0 0 0 0 0 127 0" result="hardAlpha"/>
<feOffset dx="6" dy="6"/>
<feComposite in2="hardAlpha" operator="out"/>
<feColorMatrix type="matrix" values="0 0 0 0 0.0980392 0 0 0 0 0.0980392 0 0 0 0 0.0980392 0 0 0 1 0"/>
<feBlend mode="normal" in2="BackgroundImageFix" result="effect1_dropShadow_101_73"/>
<feBlend mode="normal" in="SourceGraphic" in2="effect1_dropShadow_101_73" result="shape"/>
</filter>
<filter id="filter2_d_101_73" x="319.706" y="462.05" width="63.4463" height="63.4464" filterUnits="userSpaceOnUse" color-interpolation-filters="sRGB">
<feFlood flood-opacity="0" result="BackgroundImageFix"/>
<feColorMatrix in="SourceAlpha" type="matrix" values="0 0 0 0 0 0 0 0 0 0 0 0 0 0 0 0 0 0 127 0" result="hardAlpha"/>
<feOffset dx="6" dy="6"/>
<feComposite in2="hardAlpha" operator="out"/>
<feColorMatrix type="matrix" values="0 0 0 0 0.0980392 0 0 0 0 0.0980392 0 0 0 0 0.0980392 0 0 0 1 0"/>
<feBlend mode="normal" in2="BackgroundImageFix" result="effect1_dropShadow_101_73"/>
<feBlend mode="normal" in="SourceGraphic" in2="effect1_dropShadow_101_73" result="shape"/>
</filter>
<filter id="filter3_d_101_73" x="411.286" y="427.44" width="61.4324" height="61.4327" filterUnits="userSpaceOnUse" color-interpolation-filters="sRGB">
<feFlood flood-opacity="0" result="BackgroundImageFix"/>
<feColorMatrix in="SourceAlpha" type="matrix" values="0 0 0 0 0 0 0 0 0 0 0 0 0 0 0 0 0 0 127 0" result="hardAlpha"/>
<feOffset dx="6" dy="6"/>
<feComposite in2="hardAlpha" operator="out"/>
<feColorMatrix type="matrix" values="0 0 0 0 0.0980392 0 0 0 0 0.0980392 0 0 0 0 0.0980392 0 0 0 1 0"/>
<feBlend mode="normal" in2="BackgroundImageFix" result="effect1_dropShadow_101_73"/>
<feBlend mode="normal" in="SourceGraphic" in2="effect1_dropShadow_101_73" result="shape"/>
</filter>
<filter id="filter4_d_101_73" x="479.877" y="353.521" width="59.3352" height="59.3351" filterUnits="userSpaceOnUse" color-interpolation-filters="sRGB">
<feFlood flood-opacity="0" result="BackgroundImageFix"/>
<feColorMatrix in="SourceAlpha" type="matrix" values="0 0 0 0 0 0 0 0 0 0 0 0 0 0 0 0 0 0 127 0" result="hardAlpha"/>
<feOffset dx="6" dy="6"/>
<feComposite in2="hardAlpha" operator="out"/>
<feColorMatrix type="matrix" values="0 0 0 0 0.0980392 0 0 0 0 0.0980392 0 0 0 0 0.0980392 0 0 0 1 0"/>
<feBlend mode="normal" in2="BackgroundImageFix" result="effect1_dropShadow_101_73"/>
<feBlend mode="normal" in="SourceGraphic" in2="effect1_dropShadow_101_73" result="shape"/>
</filter>
<filter id="filter5_d_101_73" x="510.125" y="262.151" width="57.2373" height="57.2375" filterUnits="userSpaceOnUse" color-interpolation-filters="sRGB">
<feFlood flood-opacity="0" result="BackgroundImageFix"/>
<feColorMatrix in="SourceAlpha" type="matrix" values="0 0 0 0 0 0 0 0 0 0 0 0 0 0 0 0 0 0 127 0" result="hardAlpha"/>
<feOffset dx="6" dy="6"/>
<feComposite in2="hardAlpha" operator="out"/>
<feColorMatrix type="matrix" values="0 0 0 0 0.0980392 0 0 0 0 0.0980392 0 0 0 0 0.0980392 0 0 0 1 0"/>
<feBlend mode="normal" in2="BackgroundImageFix" result="effect1_dropShadow_101_73"/>
<feBlend mode="normal" in="SourceGraphic" in2="effect1_dropShadow_101_73" result="shape"/>
</filter>
<filter id="filter6_d_101_73" x="500.979" y="167.592" width="55.2239" height="55.2239" filterUnits="userSpaceOnUse" color-interpolation-filters="sRGB">
<feFlood flood-opacity="0" result="BackgroundImageFix"/>
<feColorMatrix in="SourceAlpha" type="matrix" values="0 0 0 0 0 0 0 0 0 0 0 0 0 0 0 0 0 0 127 0" result="hardAlpha"/>
<feOffset dx="6" dy="6"/>
<feComposite in2="hardAlpha" operator="out"/>
<feColorMatrix type="matrix" values="0 0 0 0 0.0980392 0 0 0 0 0.0980392 0 0 0 0 0.0980392 0 0 0 1 0"/>
<feBlend mode="normal" in2="BackgroundImageFix" result="effect1_dropShadow_101_73"/>
<feBlend mode="normal" in="SourceGraphic" in2="effect1_dropShadow_101_73" result="shape"/>
</filter>
<filter id="filter7_d_101_73" x="452.441" y="82.9751" width="53.1262" height="53.1262" filterUnits="userSpaceOnUse" color-interpolation-filters="sRGB">
<feFlood flood-opacity="0" result="BackgroundImageFix"/>
<feColorMatrix in="SourceAlpha" type="matrix" values="0 0 0 0 0 0 0 0 0 0 0 0 0 0 0 0 0 0 127 0" result="hardAlpha"/>
<feOffset dx="6" dy="6"/>
<feComposite in2="hardAlpha" operator="out"/>
<feColorMatrix type="matrix" values="0 0 0 0 0.0980392 0 0 0 0 0.0980392 0 0 0 0 0.0980392 0 0 0 1 0"/>
<feBlend mode="normal" in2="BackgroundImageFix" result="effect1_dropShadow_101_73"/>
<feBlend mode="normal" in="SourceGraphic" in2="effect1_dropShadow_101_73" result="shape"/>
</filter>
<filter id="filter8_d_101_73" x="372.607" y="24.2009" width="51.0288" height="51.0288" filterUnits="userSpaceOnUse" color-interpolation-filters="sRGB">
<feFlood flood-opacity="0" result="BackgroundImageFix"/>
<feColorMatrix in="SourceAlpha" type="matrix" values="0 0 0 0 0 0 0 0 0 0 0 0 0 0 0 0 0 0 127 0" result="hardAlpha"/>
<feOffset dx="6" dy="6"/>
<feComposite in2="hardAlpha" operator="out"/>
<feColorMatrix type="matrix" values="0 0 0 0 0.0980392 0 0 0 0 0.0980392 0 0 0 0 0.0980392 0 0 0 1 0"/>
<feBlend mode="normal" in2="BackgroundImageFix" result="effect1_dropShadow_101_73"/>
<feBlend mode="normal" in="SourceGraphic" in2="effect1_dropShadow_101_73" result="shape"/>
</filter>
<filter id="filter9_d_101_73" x="280.061" y="0.75" width="49.0149" height="49.0151" filterUnits="userSpaceOnUse" color-interpolation-filters="sRGB">
<feFlood flood-opacity="0" result="BackgroundImageFix"/>
<feColorMatrix in="SourceAlpha" type="matrix" values="0 0 0 0 0 0 0 0 0 0 0 0 0 0 0 0 0 0 127 0" result="hardAlpha"/>
<feOffset dx="6" dy="6"/>
<feComposite in2="hardAlpha" operator="out"/>
<feColorMatrix type="matrix" values="0 0 0 0 0.0980392 0 0 0 0 0.0980392 0 0 0 0 0.0980392 0 0 0 1 0"/>
<feBlend mode="normal" in2="BackgroundImageFix" result="effect1_dropShadow_101_73"/>
<feBlend mode="normal" in="SourceGraphic" in2="effect1_dropShadow_101_73" result="shape"/>
</filter>
<filter id="filter10_d_101_73" x="185.502" y="12.79" width="46.9175" height="46.9175" filterUnits="userSpaceOnUse" color-interpolation-filters="sRGB">
<feFlood flood-opacity="0" result="BackgroundImageFix"/>
<feColorMatrix in="SourceAlpha" type="matrix" values="0 0 0 0 0 0 0 0 0 0 0 0 0 0 0 0 0 0 127 0" result="hardAlpha"/>
<feOffset dx="6" dy="6"/>
<feComposite in2="hardAlpha" operator="out"/>
<feColorMatrix type="matrix" values="0 0 0 0 0.0980392 0 0 0 0 0.0980392 0 0 0 0 0.0980392 0 0 0 1 0"/>
<feBlend mode="normal" in2="BackgroundImageFix" result="effect1_dropShadow_101_73"/>
<feBlend mode="normal" in="SourceGraphic" in2="effect1_dropShadow_101_73" result="shape"/>
</filter>
<filter id="filter11_d_101_73" x="99.5442" y="60.2791" width="44.9036" height="44.9038" filterUnits="userSpaceOnUse" color-interpolation-filters="sRGB">
<feFlood flood-opacity="0" result="BackgroundImageFix"/>
<feColorMatrix in="SourceAlpha" type="matrix" values="0 0 0 0 0 0 0 0 0 0 0 0 0 0 0 0 0 0 127 0" result="hardAlpha"/>
<feOffset dx="6" dy="6"/>
<feComposite in2="hardAlpha" operator="out"/>
<feColorMatrix type="matrix" values="0 0 0 0 0.0980392 0 0 0 0 0.0980392 0 0 0 0 0.0980392 0 0 0 1 0"/>
<feBlend mode="normal" in2="BackgroundImageFix" result="effect1_dropShadow_101_73"/>
<feBlend mode="normal" in="SourceGraphic" in2="effect1_dropShadow_101_73" result="shape"/>
</filter>
<filter id="filter12_d_101_73" x="34.7281" y="138.519" width="42.8063" height="42.8062" filterUnits="userSpaceOnUse" color-interpolation-filters="sRGB">
<feFlood flood-opacity="0" result="BackgroundImageFix"/>
<feColorMatrix in="SourceAlpha" type="matrix" values="0 0 0 0 0 0 0 0 0 0 0 0 0 0 0 0 0 0 127 0" result="hardAlpha"/>
<feOffset dx="6" dy="6"/>
<feComposite in2="hardAlpha" operator="out"/>
<feColorMatrix type="matrix" values="0 0 0 0 0.0980392 0 0 0 0 0.0980392 0 0 0 0 0.0980392 0 0 0 1 0"/>
<feBlend mode="normal" in2="BackgroundImageFix" result="effect1_dropShadow_101_73"/>
<feBlend mode="normal" in="SourceGraphic" in2="effect1_dropShadow_101_73" result="shape"/>
</filter>
<filter id="filter13_d_101_73" x="1.50281" y="230.813" width="40.7086" height="40.7086" filterUnits="userSpaceOnUse" color-interpolation-filters="sRGB">
<feFlood flood-opacity="0" result="BackgroundImageFix"/>
<feColorMatrix in="SourceAlpha" type="matrix" values="0 0 0 0 0 0 0 0 0 0 0 0 0 0 0 0 0 0 127 0" result="hardAlpha"/>
<feOffset dx="6" dy="6"/>
<feComposite in2="hardAlpha" operator="out"/>
<feColorMatrix type="matrix" values="0 0 0 0 0.0980392 0 0 0 0 0.0980392 0 0 0 0 0.0980392 0 0 0 1 0"/>
<feBlend mode="normal" in2="BackgroundImageFix" result="effect1_dropShadow_101_73"/>
<feBlend mode="normal" in="SourceGraphic" in2="effect1_dropShadow_101_73" result="shape"/>
</filter>
<filter id="filter14_d_101_73" x="0.202026" y="327.973" width="38.6951" height="38.6949" filterUnits="userSpaceOnUse" color-interpolation-filters="sRGB">
<feFlood flood-opacity="0" result="BackgroundImageFix"/>
<feColorMatrix in="SourceAlpha" type="matrix" values="0 0 0 0 0 0 0 0 0 0 0 0 0 0 0 0 0 0 127 0" result="hardAlpha"/>
<feOffset dx="6" dy="6"/>
<feComposite in2="hardAlpha" operator="out"/>
<feColorMatrix type="matrix" values="0 0 0 0 0.0980392 0 0 0 0 0.0980392 0 0 0 0 0.0980392 0 0 0 1 0"/>
<feBlend mode="normal" in2="BackgroundImageFix" result="effect1_dropShadow_101_73"/>
<feBlend mode="normal" in="SourceGraphic" in2="effect1_dropShadow_101_73" result="shape"/>
</filter>
<filter id="filter15_d_101_73" x="30.8689" y="421.525" width="36.5974" height="36.5973" filterUnits="userSpaceOnUse" color-interpolation-filters="sRGB">
<feFlood flood-opacity="0" result="BackgroundImageFix"/>
<feColorMatrix in="SourceAlpha" type="matrix" values="0 0 0 0 0 0 0 0 0 0 0 0 0 0 0 0 0 0 127 0" result="hardAlpha"/>
<feOffset dx="6" dy="6"/>
<feComposite in2="hardAlpha" operator="out"/>
<feColorMatrix type="matrix" values="0 0 0 0 0.0980392 0 0 0 0 0.0980392 0 0 0 0 0.0980392 0 0 0 1 0"/>
<feBlend mode="normal" in2="BackgroundImageFix" result="effect1_dropShadow_101_73"/>
<feBlend mode="normal" in="SourceGraphic" in2="effect1_dropShadow_101_73" result="shape"/>
</filter>
<filter id="filter16_d_101_73" x="93.3345" y="502.701" width="34.4999" height="34.4998" filterUnits="userSpaceOnUse" color-interpolation-filters="sRGB">
<feFlood flood-opacity="0" result="BackgroundImageFix"/>
<feColorMatrix in="SourceAlpha" type="matrix" values="0 0 0 0 0 0 0 0 0 0 0 0 0 0 0 0 0 0 127 0" result="hardAlpha"/>
<feOffset dx="6" dy="6"/>
<feComposite in2="hardAlpha" operator="out"/>
<feColorMatrix type="matrix" values="0 0 0 0 0.0980392 0 0 0 0 0.0980392 0 0 0 0 0.0980392 0 0 0 1 0"/>
<feBlend mode="normal" in2="BackgroundImageFix" result="effect1_dropShadow_101_73"/>
<feBlend mode="normal" in="SourceGraphic" in2="effect1_dropShadow_101_73" result="shape"/>
</filter>
<filter id="filter17_d_101_73" x="177.49" y="559.546" width="32.4861" height="32.4861" filterUnits="userSpaceOnUse" color-interpolation-filters="sRGB">
<feFlood flood-opacity="0" result="BackgroundImageFix"/>
<feColorMatrix in="SourceAlpha" type="matrix" values="0 0 0 0 0 0 0 0 0 0 0 0 0 0 0 0 0 0 127 0" result="hardAlpha"/>
<feOffset dx="6" dy="6"/>
<feComposite in2="hardAlpha" operator="out"/>
<feColorMatrix type="matrix" values="0 0 0 0 0.0980392 0 0 0 0 0.0980392 0 0 0 0 0.0980392 0 0 0 1 0"/>
<feBlend mode="normal" in2="BackgroundImageFix" result="effect1_dropShadow_101_73"/>
<feBlend mode="normal" in="SourceGraphic" in2="effect1_dropShadow_101_73" result="shape"/>
</filter>
<filter id="filter18_d_101_73" x="271.713" y="587.612" width="30.3884" height="30.3885" filterUnits="userSpaceOnUse" color-interpolation-filters="sRGB">
<feFlood flood-opacity="0" result="BackgroundImageFix"/>
<feColorMatrix in="SourceAlpha" type="matrix" values="0 0 0 0 0 0 0 0 0 0 0 0 0 0 0 0 0 0 127 0" result="hardAlpha"/>
<feOffset dx="6" dy="6"/>
<feComposite in2="hardAlpha" operator="out"/>
<feColorMatrix type="matrix" values="0 0 0 0 0.0980392 0 0 0 0 0.0980392 0 0 0 0 0.0980392 0 0 0 1 0"/>
<feBlend mode="normal" in2="BackgroundImageFix" result="effect1_dropShadow_101_73"/>
<feBlend mode="normal" in="SourceGraphic" in2="effect1_dropShadow_101_73" result="shape"/>
</filter>
<filter id="filter19_d_101_73" x="369" y="586.94" width="28.2908" height="28.2909" filterUnits="userSpaceOnUse" color-interpolation-filters="sRGB">
<feFlood flood-opacity="0" result="BackgroundImageFix"/>
<feColorMatrix in="SourceAlpha" type="matrix" values="0 0 0 0 0 0 0 0 0 0 0 0 0 0 0 0 0 0 127 0" result="hardAlpha"/>
<feOffset dx="6" dy="6"/>
<feComposite in2="hardAlpha" operator="out"/>
<feColorMatrix type="matrix" values="0 0 0 0 0.0980392 0 0 0 0 0.0980392 0 0 0 0 0.0980392 0 0 0 1 0"/>
<feBlend mode="normal" in2="BackgroundImageFix" result="effect1_dropShadow_101_73"/>
<feBlend mode="normal" in="SourceGraphic" in2="effect1_dropShadow_101_73" result="shape"/>
</filter>
<filter id="filter20_d_101_73" x="462.342" y="557.406" width="26.2773" height="26.2772" filterUnits="userSpaceOnUse" color-interpolation-filters="sRGB">
<feFlood flood-opacity="0" result="BackgroundImageFix"/>
<feColorMatrix in="SourceAlpha" type="matrix" values="0 0 0 0 0 0 0 0 0 0 0 0 0 0 0 0 0 0 127 0" result="hardAlpha"/>
<feOffset dx="6" dy="6"/>
<feComposite in2="hardAlpha" operator="out"/>
<feColorMatrix type="matrix" values="0 0 0 0 0.0980392 0 0 0 0 0.0980392 0 0 0 0 0.0980392 0 0 0 1 0"/>
<feBlend mode="normal" in2="BackgroundImageFix" result="effect1_dropShadow_101_73"/>
<feBlend mode="normal" in="SourceGraphic" in2="effect1_dropShadow_101_73" result="shape"/>
</filter>
<filter id="filter21_d_101_73" x="544.819" y="499.178" width="24.1797" height="24.1797" filterUnits="userSpaceOnUse" color-interpolation-filters="sRGB">
<feFlood flood-opacity="0" result="BackgroundImageFix"/>
<feColorMatrix in="SourceAlpha" type="matrix" values="0 0 0 0 0 0 0 0 0 0 0 0 0 0 0 0 0 0 127 0" result="hardAlpha"/>
<feOffset dx="6" dy="6"/>
<feComposite in2="hardAlpha" operator="out"/>
<feColorMatrix type="matrix" values="0 0 0 0 0.0980392 0 0 0 0 0.0980392 0 0 0 0 0.0980392 0 0 0 1 0"/>
<feBlend mode="normal" in2="BackgroundImageFix" result="effect1_dropShadow_101_73"/>
<feBlend mode="normal" in="SourceGraphic" in2="effect1_dropShadow_101_73" result="shape"/>
</filter>
</defs>
</svg>
