<svg width="50" height="50" viewBox="0 0 50 50" fill="none" xmlns="http://www.w3.org/2000/svg">
<mask id="mask0_157_30136" style="mask-type:luminance" maskUnits="userSpaceOnUse" x="1" y="1" width="48" height="48">
<path d="M48.5316 1.5625H1.55908V48.535H48.5316V1.5625Z" fill="white"/>
</mask>
<g mask="url(#mask0_157_30136)">
<path d="M27.3154 8.67048C29.2806 8.95807 31.1499 9.72497 32.7316 10.9232C34.0737 11.9298 35.1281 13.2719 35.8471 14.8057C36.4702 16.1477 36.8057 17.6815 36.7578 19.1674C36.7099 19.8864 36.614 20.6053 36.3744 21.2764H36.2785L36.3264 20.2698C36.3744 18.8319 36.2306 17.4419 35.7033 16.0998C35.224 14.6619 34.3613 13.3677 33.3068 12.3132C31.2937 10.396 28.6095 9.34152 25.8295 9.29359C24.0213 9.2637 22.231 9.65528 20.6004 10.4373C18.9698 11.2193 17.5437 12.3703 16.435 13.7991C15.0156 15.7171 14.3349 18.0824 14.5178 20.4615L14.6136 21.6598C14.9971 21.6598 15.5243 21.6598 15.8119 21.9953L15.6681 22.1391L14.8533 22.1871C14.2781 22.235 13.7029 22.4267 13.2716 22.8102C12.7947 23.3221 12.5072 23.9817 12.4567 24.6795C12.2171 26.2133 13.0319 27.795 14.3261 28.6577C15.093 29.1371 16.0516 29.3767 16.9623 29.0891C17.154 28.9933 17.3936 28.8495 17.6333 28.9453C17.7771 28.9933 17.825 29.1371 17.873 29.2809C18.8479 31.2413 20.3394 32.8986 22.1868 34.074C22.5702 34.4095 23.0495 34.6971 23.5288 34.9367C24.3916 35.3202 25.3502 35.6078 26.2609 35.8474L27.7947 36.2309C28.0343 36.2788 28.2261 36.2788 28.4178 36.3747L28.2261 36.4226C27.0278 36.5184 25.9254 36.2788 24.775 35.9433C24.1999 35.7995 23.6726 35.6078 23.1454 35.3681C21.6393 34.601 20.2772 33.5795 19.1192 32.3484L19.215 33.6905C19.263 34.5053 19.215 35.3681 18.9274 36.1829C18.7357 36.7581 18.4002 37.3333 18.0167 37.8126C17.5374 38.2919 16.9623 38.7233 16.3871 39.0588C15.9078 39.3943 15.3805 39.7298 14.8533 39.9216L14.0864 40.1612L14.5178 39.7298L16.0036 38.7712L17.0581 37.9564C17.8668 37.2679 18.4093 36.3184 18.5919 35.2722C18.6878 34.6012 18.6878 33.9302 18.6878 33.2112V31.9171C18.2085 31.246 17.6333 30.5271 17.3936 29.7122C16.5788 30.0957 15.5723 30.0478 14.7574 29.6643C13.9426 29.3288 13.2236 28.7536 12.6964 28.0826C12.1212 27.2677 11.7857 26.3571 11.6898 25.3984C11.594 24.4398 11.7857 23.4812 12.4088 22.7143C12.8402 22.235 13.4633 21.8515 14.0864 21.7077C13.8947 21.0367 13.7988 20.3177 13.7988 19.5988C13.8382 18.014 14.2132 16.4555 14.8989 15.0262C15.5847 13.5969 16.5656 12.3292 17.7771 11.3067C19.0859 10.2107 20.6147 9.40819 22.2601 8.95342C23.9056 8.49864 25.6295 8.40216 27.3154 8.67048Z" fill="#262626"/>
<path d="M33.3066 12.3181C34.3611 13.3726 35.2239 14.6667 35.7032 16.1047C36.2304 17.4468 36.3742 18.8368 36.3263 20.2747L36.2784 21.2812L36.0387 22.0002L35.9428 22.6233L36.0387 25.3075C36.0387 26.314 36.0866 27.3206 35.9908 28.3271L35.847 30.5799C35.7511 31.3468 35.5115 32.0657 35.1759 32.7368C34.6487 33.5995 33.9297 34.3185 33.067 34.8457C32.4439 35.2292 31.7728 35.4209 31.1018 35.6126L29.2804 36.1399L28.4656 36.2837C28.4656 36.3316 28.5135 36.3795 28.6094 36.3795C28.9928 36.6192 29.4242 36.6192 29.8556 36.5713C29.7118 36.9068 29.6639 37.2423 29.7597 37.6257C29.9035 37.9613 30.287 38.153 30.5746 38.2968C31.1497 38.5844 31.7249 38.6323 32.3001 38.7282C32.6356 39.0157 32.9711 39.3992 33.067 39.8785C33.1628 40.262 33.1628 40.6454 32.9711 40.9809C32.7314 41.4602 32.3001 41.8437 31.8208 42.0833C31.1977 42.4668 30.5266 42.7544 29.8077 42.9461C26.3082 43.7838 22.6587 43.7674 19.1669 42.8982C18.3521 42.7064 17.5852 42.4668 16.8663 42.0833C16.2911 41.7958 15.7638 41.4602 15.3325 41.0289C15.0928 40.6933 14.9011 40.3578 14.8532 39.9264C15.3804 39.7347 15.9076 39.3992 16.3869 39.0637C16.9621 38.7282 17.5373 38.2968 18.0166 37.8175C18.4001 37.3382 18.7356 36.763 18.9273 36.1878C19.2149 35.373 19.2628 34.5102 19.2149 33.6954L19.119 32.3533L20.1735 33.4557C21.0842 34.1747 22.0907 34.8937 23.1452 35.373C23.6725 35.6126 24.1997 35.8044 24.7749 35.9482C25.9252 36.2837 27.0276 36.5233 28.2259 36.4275L28.4177 36.3795C28.2259 36.2837 28.0342 36.2837 27.7945 36.2357L26.2608 35.8523C25.3501 35.6126 24.3914 35.3251 23.5287 34.9416L22.1387 34.1268C21.6114 33.6954 21.0363 33.3119 20.557 32.8326C19.4496 31.8274 18.5393 30.6246 17.8728 29.2857C17.8249 29.1419 17.7769 28.9981 17.6332 28.9502C17.3935 28.8544 17.1538 28.9981 16.9621 29.094C16.0514 29.3816 15.0928 29.1419 14.3259 28.6626C13.6787 28.2354 13.1619 27.6381 12.8321 26.9362C12.5023 26.2344 12.3724 25.4552 12.4566 24.6844C12.5045 24.0133 12.7921 23.3423 13.2714 22.815C13.7028 22.4316 14.278 22.2399 14.8532 22.1919L15.668 22.144L15.8118 22.0002C15.5242 21.6647 14.9969 21.6647 14.6135 21.6647L14.5176 20.4664C14.3348 18.0873 15.0155 15.722 16.4349 13.804C17.5435 12.3752 18.9696 11.2242 20.6002 10.4422C22.2309 9.66016 24.0212 9.26858 25.8294 9.29847C28.6094 9.3464 31.2935 10.4009 33.3066 12.3181Z" fill="#FFDECC"/>
<path d="M36.0391 21.9987C36.1829 21.9987 36.1829 22.1904 36.2308 22.2863C36.3746 22.8135 36.4225 23.3887 36.4705 23.9159L36.5663 24.9225C36.6143 25.977 36.6622 26.9835 36.6143 28.038C36.5663 29.0446 36.5663 30.147 36.3746 31.1535C36.171 32.1973 35.7151 33.1753 35.0468 34.0024C34.3784 34.8295 33.5178 35.4805 32.5401 35.8987C31.8212 36.2342 31.0543 36.426 30.2394 36.5218V37.2408C30.2874 37.3846 30.3832 37.4325 30.4791 37.5284C31.0543 37.816 31.5815 37.9118 32.2046 38.0556C32.7798 38.1994 33.355 38.2953 33.9301 38.5829C33.7863 38.7267 33.5946 38.7746 33.4029 38.7746C33.0674 38.8225 32.6839 38.7267 32.3005 38.7267C31.7253 38.6308 31.1501 38.5829 30.5749 38.2953C30.2874 38.1515 29.9039 37.9598 29.7601 37.6242C29.6643 37.2408 29.7122 36.9053 29.856 36.5698C29.4246 36.6177 28.9932 36.6177 28.6098 36.378C28.5139 36.378 28.466 36.3301 28.466 36.2822L29.2808 36.1384L31.1022 35.6111C31.7732 35.4194 32.4443 35.2277 33.0674 34.8442C33.9301 34.317 34.6491 33.598 35.1763 32.7353C35.5119 32.0642 35.7515 31.3453 35.8474 30.5784L35.9912 28.3256C36.087 27.3191 36.0391 26.3125 36.0391 25.3059L35.9432 22.6218L36.0391 21.9987ZM14.0867 23.2928C14.4701 23.2928 14.9015 23.3408 15.1891 23.6284C15.4287 23.8201 15.6684 24.0597 15.7642 24.3473C15.8122 24.4911 15.7642 24.6349 15.6684 24.7308L15.0453 25.1142C14.7098 25.4018 14.7098 26.0249 15.0453 26.3125C15.3329 26.5522 15.7163 26.6959 16.0518 26.8397C16.1477 26.8397 16.2915 26.8877 16.3394 26.9835C16.2915 27.0794 16.1956 27.1273 16.0998 27.1273C15.6204 27.1273 15.1411 26.9835 14.7577 26.6959C14.518 26.5522 14.3742 26.3125 14.3263 26.0728C14.2304 25.6894 14.2304 25.258 14.518 24.9225C14.7098 24.6349 15.0453 24.4911 15.3808 24.3473C15.1891 24.1077 15.0453 23.8201 14.7098 23.7242C14.3742 23.5804 13.9908 23.5804 13.6553 23.4846L14.0867 23.2928Z" fill="#262626"/>
<path d="M34.7441 20.2279C34.9358 20.2279 35.1276 20.2279 35.2234 20.3717C35.4151 20.5154 35.4151 20.851 35.1755 20.9948C35.0317 21.0906 34.8879 21.0906 34.6962 21.0906L33.8334 21.2823C33.8334 21.6179 33.7855 22.0013 33.6417 22.3368C33.5458 22.5765 33.3541 22.7682 33.1624 22.912C32.8748 23.0558 32.5393 22.9599 32.3476 22.7203L32.2038 22.3368C32.06 22.4806 31.9641 22.6244 31.7724 22.7203C31.6286 22.7682 31.5807 22.7203 31.5807 22.5765C31.6286 22.2889 31.7724 22.0492 31.9641 21.8575C32.4688 21.1585 33.1693 20.6248 33.9772 20.3237L34.7441 20.2279ZM23.1448 20.8989C23.672 20.8989 24.1513 20.9948 24.6307 21.0906C25.3017 21.2823 25.9727 21.4741 26.5479 21.9534C26.6917 22.0972 26.9313 22.241 26.9793 22.4327C26.9793 22.5286 26.9793 22.5765 26.8834 22.5765L26.3562 22.3368C25.8769 22.0972 25.3017 21.9534 24.7265 21.8575C24.6307 22.2889 24.5348 22.7203 24.2472 23.1037C24.0555 23.2954 23.8158 23.3913 23.5282 23.3913C23.1448 23.3434 22.7613 23.1517 22.5217 22.8641C22.282 22.5286 22.2341 22.193 22.1862 21.7617L21.5151 21.9534C21.3713 22.0013 21.2275 22.0492 21.0837 22.0013C20.8441 21.9534 20.7482 21.7137 20.7962 21.4741C20.8441 21.2823 21.0358 21.1865 21.2275 21.1386C21.8027 20.8989 22.5217 20.851 23.1448 20.8989Z" fill="#262626"/>
<path d="M24.967 15.4826C25.7339 15.5305 26.5487 15.8181 27.1718 16.2974C27.3156 16.4412 27.5073 16.537 27.5552 16.7288C27.6032 16.8246 27.5073 16.9684 27.4115 16.9205C27.028 16.8726 26.6925 16.6808 26.309 16.585C25.9735 16.4412 25.5901 16.3453 25.2066 16.3453C24.8711 16.2974 24.4877 16.3453 24.1521 16.3932C23.4332 16.4891 22.7142 16.8246 22.0911 17.1601L21.0846 17.5915L21.0366 17.5436C21.0846 17.3519 21.1804 17.1122 21.3242 16.9684C21.6118 16.4891 22.139 16.2015 22.6183 15.9619C23.3373 15.6263 24.1521 15.4346 24.967 15.4826ZM34.2656 15.6743C34.5053 15.7701 34.7928 15.9139 34.9846 16.1536C35.1763 16.3453 35.2242 16.585 35.1763 16.8726L34.0739 16.537C33.7384 16.4412 33.4508 16.4891 33.1153 16.4412C32.7797 16.4412 32.3963 16.4891 32.1087 16.6808L31.4856 17.0643H31.3418C31.2939 16.9205 31.3418 16.7767 31.4377 16.6808C31.6773 16.2495 32.0608 15.9619 32.4922 15.8181C33.0673 15.6263 33.6425 15.5305 34.2656 15.6743Z" fill="#262626"/>
<path d="M30.9095 26.3607V26.4086C30.7178 26.7921 30.3823 27.1276 29.9509 27.2714C29.8071 27.3193 29.6154 27.3193 29.5195 27.2234V27.0317C29.855 26.7921 30.2864 26.6003 30.6699 26.4565L30.9095 26.3607Z" fill="#262626"/>
<path fill-rule="evenodd" clip-rule="evenodd" d="M24.2002 28.0357L23.5292 27.844H23.4813C23.3854 27.7961 23.2416 27.7961 23.1937 27.8919C23.1458 27.9398 23.1937 28.0357 23.2416 28.0357L23.5292 28.1795L23.6251 28.2274C24.7271 28.7841 25.9066 29.1718 27.124 29.3778C27.124 29.7133 27.2199 30.0488 27.4595 30.3364C27.6992 30.6719 28.0347 30.9595 28.4661 31.1033C28.9454 31.295 29.4727 31.2471 29.952 31.0554C30.4313 30.8636 30.8147 30.4802 31.0065 30.0009C31.1023 29.8092 31.1023 29.5695 31.1023 29.3778L31.9651 29.0902V29.0423L32.0609 28.9464C31.5976 28.9419 31.1343 28.9419 30.6709 28.9464C29.2945 29.0661 27.9082 29.0017 26.5489 28.7547L24.6795 28.2274L24.5837 28.1795L24.2002 28.0357ZM27.5075 29.4257C27.5554 29.905 27.9389 30.2885 28.3702 30.5281C28.9454 30.9595 29.904 30.7678 30.2875 30.1447C30.4313 29.953 30.4792 29.7133 30.5271 29.4736V29.4257L29.2809 29.5216L29.3289 29.5695C29.3289 29.7133 29.3768 29.8092 29.2809 29.953C29.1851 30.0967 28.9933 30.0967 28.9454 29.953C28.8496 29.8092 28.8496 29.6654 28.8975 29.5216C28.4985 29.4848 28.099 29.4528 27.6992 29.4257H27.5075Z" fill="#262626"/>
<path d="M22.7624 6.66016H24.6797C27.0283 6.75602 29.329 7.1874 31.5817 7.71464C32.9238 8.05016 34.17 8.48154 35.3683 9.15257C35.9914 9.53602 36.6624 10.0153 37.1417 10.5905C37.7169 11.2136 38.1004 11.9805 38.2442 12.7953C38.4359 13.8019 38.4359 14.8564 38.1004 15.8629C37.8607 16.5819 37.4293 17.3009 36.8062 17.7802C35.9435 18.4991 34.841 18.9784 33.7386 19.0264C33.6428 19.0743 33.5469 19.0264 33.5469 18.8826L33.9304 18.1157C33.4167 18.6191 32.7932 18.9965 32.109 19.2181C31.9173 19.266 31.6297 19.314 31.4379 19.2181V18.9784C31.4379 18.2595 31.39 17.5884 31.1983 16.9174C31.0545 16.1505 30.671 15.5274 30.3355 14.8564C30.4314 15.5753 30.3835 16.3422 30.2397 17.0612C30.0959 17.7322 29.8083 18.3074 29.329 18.7867C29.2331 18.9784 28.9935 19.0264 28.8017 18.9305L28.7059 18.595C28.61 18.0678 28.3703 17.5884 28.1307 17.1091C27.6993 16.1505 27.0762 15.3357 26.3572 14.5688C25.3078 13.5196 24.0726 12.6744 22.7145 12.0764C22.785 13.7521 22.6237 15.4296 22.2352 17.0612C22.0434 17.7322 21.7559 18.4033 21.3245 18.9784C21.1807 19.1702 20.989 19.4578 20.7493 19.5536H20.4138C20.4617 18.9784 20.4617 18.4033 20.3659 17.8281C20.27 17.3009 20.1262 16.7257 19.8865 16.2464C19.7428 17.1091 19.2634 17.8281 18.6883 18.4991C18.2569 18.8826 17.8255 19.266 17.2983 19.5536V22.8129L17.3462 24.2509C17.3462 24.3947 17.2024 24.6343 17.0586 24.6822C16.819 24.6343 16.6272 24.5385 16.4355 24.3947C15.8603 24.0112 15.3331 23.5798 14.8538 23.0526C14.0672 22.1796 13.4662 21.1559 13.0872 20.0436C12.7082 18.9313 12.5591 17.7536 12.6489 16.5819C12.809 14.5188 13.5645 12.5464 14.8237 10.9043C16.0829 9.26223 17.7918 8.02096 19.7428 7.33119C20.7014 6.94774 21.7079 6.70809 22.7624 6.66016Z" fill="#262626"/>
</g>
</svg>
