<svg width="50" height="50" viewBox="0 0 50 50" fill="none" xmlns="http://www.w3.org/2000/svg">
<mask id="mask0_157_30108" style="mask-type:luminance" maskUnits="userSpaceOnUse" x="1" y="1" width="48" height="48">
<path d="M48.5316 1.5625H1.55908V48.535H48.5316V1.5625Z" fill="white"/>
</mask>
<g mask="url(#mask0_157_30108)">
<path d="M26.0074 7.29422C27.3495 7.34215 28.6915 7.5818 30.0336 8.01318C31.9097 8.54283 33.581 9.62918 34.8267 11.1287C35.7374 12.327 36.3126 13.7649 36.5043 15.2508C36.763 16.852 36.7953 18.4816 36.6002 20.0918L36.3605 21.7215L36.1688 22.6801C36.1209 22.776 36.1209 22.776 36.025 22.776C35.9291 22.5842 35.9291 22.3925 35.9291 22.2008C35.8812 21.4818 35.9771 20.8108 36.025 20.0918C36.0729 18.9415 36.1688 17.7911 36.0729 16.6408L35.7854 14.4839C35.4498 13.1418 34.8267 11.8956 33.8681 10.889C33.0053 10.0263 31.9509 9.30732 30.8484 8.82801C29.794 8.39663 28.7395 8.10904 27.6371 7.91732C26.7743 7.77353 25.9115 7.7256 25.0488 7.7256C22.9219 7.69076 20.8178 8.16748 18.9136 9.1156C18.2905 9.54698 17.7153 10.0742 17.236 10.6494C15.7611 12.5854 14.849 14.8908 14.5998 17.3118C14.5519 18.4622 14.5998 19.5646 14.9833 20.667L15.3188 21.386L15.8939 21.4339L15.9419 21.5777C15.7981 21.6735 15.6064 21.6735 15.4146 21.7215C14.9353 21.8173 14.456 22.0091 14.0246 22.2966C13.6891 22.5363 13.3536 22.8239 13.1619 23.2073C12.9222 23.6867 13.0181 24.2618 13.1139 24.7891C13.3536 25.6998 13.9288 26.5625 14.6957 27.1377C15.2229 27.5691 15.8939 27.8087 16.565 27.9046C17.0443 28.0005 17.5236 27.9046 18.0029 27.8567C18.2426 28.0484 18.3864 28.4318 18.5302 28.6715L19.3929 29.9656C20.1727 31.0739 21.2784 31.9115 22.5564 32.3622C23.6109 32.7936 24.7133 33.0332 25.8157 33.2729L27.7809 33.6563L28.5957 33.896V34.0877H28.0205C26.9431 34.0276 25.8705 33.8995 24.8091 33.7042C23.3837 33.4206 22.0203 32.885 20.7829 32.1225C20.2557 31.787 19.7764 31.3556 19.3929 30.8284C19.7249 32.8262 19.4581 34.8775 18.626 36.7239C17.9071 38.018 16.7088 39.0246 15.2708 39.456C15.127 39.5039 14.9353 39.5518 14.7915 39.5039C14.6957 39.5039 14.6957 39.456 14.6957 39.3601C14.7436 39.2163 14.8874 39.1205 14.9833 39.0725C15.5584 38.6891 16.2295 38.4015 16.8046 37.9701C17.4277 37.4429 17.955 36.8677 18.2905 36.1487C18.5781 35.4298 18.7698 34.6149 18.8657 33.8001C18.9615 33.177 19.0095 32.5539 18.9615 31.8829L18.7698 30.0615L17.9071 28.336L16.9964 28.5277C16.2928 28.5482 15.5952 28.3922 14.9674 28.0741C14.3395 27.756 13.8012 27.2857 13.4015 26.7063C12.7767 25.9148 12.4388 24.9347 12.4429 23.9263C12.4429 23.4949 12.5867 23.0635 12.8264 22.728C13.066 22.3925 13.4015 22.1049 13.737 21.9132C13.9767 21.7215 14.3122 21.6256 14.5998 21.5298L14.1684 20.3794C13.9288 19.3249 13.9288 18.2225 14.0726 17.168C14.3864 14.5506 15.4332 12.075 17.0922 10.0263C17.5236 9.54698 17.955 9.1156 18.4822 8.78008C18.8177 8.58836 19.1533 8.54042 19.4408 8.3487C21.5019 7.43801 23.7546 7.15042 26.0074 7.29422Z" fill="#262626"/>
<path d="M25.0481 7.7243C27.0396 7.65021 29.0222 8.02707 30.8477 8.82671C31.9501 9.30602 33.0046 10.025 33.8674 10.8877C34.826 11.8943 35.4491 13.1405 35.7846 14.4826L36.0722 16.6395C36.1681 17.7898 36.0722 18.9402 36.0243 20.0905C35.9764 20.8095 35.8805 21.4805 35.9284 22.1995C35.9284 22.3912 35.9284 22.5829 36.0243 22.7747L35.9764 23.7333C35.8805 23.9729 35.8805 24.2126 35.8805 24.5002C35.7846 25.6505 35.7846 26.8488 35.5929 28.0471C35.545 28.6223 35.4491 29.2454 35.2095 29.7726C35.0657 30.204 34.826 30.5874 34.4905 30.9229C33.9153 31.546 33.1964 32.0733 32.4295 32.5047C31.5188 33.0319 30.5601 33.2716 29.6494 33.655C29.4098 33.7509 29.1701 33.8467 29.0263 34.0385C29.4098 34.0864 29.7453 34.0385 30.1288 33.9426C29.8891 34.5178 29.8412 35.0929 29.8412 35.6681C29.8412 35.9078 29.7932 36.1954 29.8891 36.435C30.0329 36.6747 30.2726 36.8664 30.5122 37.0102L32.1898 37.6333C33.2443 38.0167 34.2508 38.4961 35.3053 38.9274C35.4012 39.1192 35.545 39.263 35.5929 39.5026C35.8805 40.0299 35.9284 40.605 35.7367 41.1802C35.497 41.8033 35.0177 42.3305 34.4426 42.6661C33.6757 43.1933 32.717 43.5768 31.8063 43.8164C28.0795 44.6127 24.2154 44.4976 20.5425 43.4809C19.5839 43.1454 18.6253 42.8099 17.7625 42.3305C17.0915 41.9471 16.3725 41.4678 15.8453 40.8447C15.5577 40.4612 15.3181 39.934 15.2701 39.4547C16.3925 39.1121 17.3858 38.4398 18.1209 37.5251C18.8561 36.6105 19.299 35.4958 19.3922 34.326C19.5839 33.1757 19.5839 31.9774 19.3922 30.8271C19.7756 31.3543 20.255 31.7857 20.7822 32.1212L22.0763 32.7923C23.9555 33.6029 25.9737 34.0424 28.0198 34.0864H28.595V33.8947L27.7801 33.655L25.815 33.2716C24.7125 33.0319 23.6101 32.7923 22.5556 32.3609C21.9325 32.0733 21.2615 31.7378 20.6863 31.3543C20.207 30.9229 19.7756 30.4916 19.3922 29.9643L18.5294 28.6702C18.3856 28.4305 18.2418 28.0471 18.0022 27.8554C17.5229 27.9033 17.0436 27.9991 16.5643 27.9033C15.8932 27.8074 15.2222 27.5678 14.6949 27.1364C13.929 26.5438 13.3744 25.7203 13.1132 24.7878C13.0174 24.2605 12.9215 23.6853 13.1612 23.206C13.3529 22.8226 13.6884 22.535 14.0239 22.2953C14.4553 22.0078 14.9346 21.816 15.4139 21.7202C15.6056 21.6722 15.7974 21.6722 15.9412 21.5764L15.8932 21.4326L15.3181 21.3847L14.9825 20.6657C14.5991 19.5633 14.5512 18.4609 14.647 17.3105C14.8821 14.8943 15.7776 12.5893 17.2353 10.6481C17.7146 10.0729 18.2898 9.54568 18.9129 9.1143C20.8129 8.14959 22.9172 7.65639 25.0481 7.67636V7.7243Z" fill="#FFDECC"/>
<path d="M14.7441 23.4505C14.9359 23.4505 15.0797 23.4505 15.2714 23.5464C15.511 23.5943 15.7986 23.7381 15.9424 23.9298C16.0383 24.0736 16.0383 24.2653 15.9424 24.4091C15.7028 24.6967 15.3672 24.8884 15.1755 25.176C15.4631 25.3678 15.8466 25.4636 16.1821 25.6074C16.3738 25.6553 16.5655 25.7512 16.7093 25.895L16.7572 26.0388L16.3738 25.9429L15.2235 25.6074C15.0317 25.5595 14.84 25.4636 14.7921 25.2719C14.7441 25.1281 14.84 24.9364 14.9359 24.7926L15.6548 24.1695C15.4631 23.834 14.9359 23.786 14.7441 23.4505ZM35.9776 23.7381L36.0735 23.8819L36.1693 24.6488C36.2688 26.0707 36.2367 27.4987 36.0735 28.9147C35.9776 29.4419 35.8338 30.0171 35.5942 30.4964C34.3225 32.1603 32.5361 33.3568 30.5135 33.8995C30.4655 34.5705 30.3697 35.3854 30.4176 36.1523L30.6573 36.3919C31.0407 36.6795 31.52 36.8233 31.9514 36.9671C33.0726 37.325 34.1626 37.7738 35.2107 38.3092C35.5462 38.5009 35.8338 38.7405 36.0735 39.0281C35.8338 39.0761 35.5942 38.9802 35.3066 38.9323C34.2521 38.5009 33.2455 38.0216 32.1911 37.6381L30.5135 37.015C30.2738 36.8712 30.0342 36.6795 29.8904 36.4398C29.7945 36.2002 29.8424 35.9126 29.8424 35.6729C29.8424 35.0978 29.8904 34.5226 30.13 33.9474C29.7466 34.0433 29.4111 34.0912 29.0276 34.0433C29.1714 33.8516 29.4111 33.7557 29.6507 33.6598C30.5614 33.2764 31.52 33.0367 32.4307 32.5095C33.1976 32.0781 33.9166 31.5509 34.4918 30.9278C34.8273 30.5922 35.0669 30.2088 35.2107 29.7774C35.4504 29.2502 35.5462 28.6271 35.5942 28.0519C35.7859 26.8536 35.7859 25.6553 35.8818 24.505C35.8818 24.2174 35.8818 23.9778 35.9776 23.7381Z" fill="#262626"/>
<path d="M35.4979 20.5208L35.402 20.8563C35.2582 21.096 35.1144 21.2877 34.8748 21.4315C34.6351 21.5753 34.3475 21.6232 34.06 21.6712L33.1972 21.767C32.9575 21.767 32.8137 21.9108 32.7179 22.0546L32.3824 22.3901C32.2865 22.4381 32.1427 22.3422 32.1906 22.2463C32.2386 21.8629 32.5262 21.5753 32.7179 21.2877C32.8617 21.1439 33.0534 20.9522 33.2931 20.9522L34.731 20.7126C34.9706 20.6646 35.2103 20.5208 35.4979 20.5208ZM20.8789 20.7126C21.4541 20.6646 21.8855 20.8563 22.4127 20.9043C23.1317 21.0001 23.8506 21.096 24.5696 21.096L25.7199 21.1919C26.1034 21.2398 26.5348 21.1919 26.8703 21.3836C27.2058 21.5753 27.4455 21.8629 27.6372 22.1505C27.6851 22.2463 27.7331 22.3422 27.6372 22.486C27.5893 22.5339 27.4934 22.486 27.4455 22.4381C27.2537 22.3422 27.1099 22.1505 26.9182 22.1026L26.3431 22.0546L25.001 22.0067L23.9465 21.9588C23.4672 21.9108 22.9879 21.9108 22.5086 21.7191C22.173 21.6232 21.9334 21.4315 21.5979 21.2877L21.0227 20.8563C20.9268 20.8084 20.8789 20.8084 20.8789 20.7126Z" fill="#262626"/>
<path d="M26.3902 14.9624C26.7257 14.9624 27.0612 15.0583 27.3009 15.25C27.4926 15.3458 27.6364 15.4417 27.6843 15.6334C27.7323 15.7293 27.6843 15.8731 27.5885 15.921C27.3488 15.9689 27.1092 15.8251 26.9174 15.7772L26.4861 15.7293C25.863 15.6814 25.2398 15.7772 24.6167 15.921C23.5679 16.2178 22.5898 16.7231 21.7409 17.4069C21.5492 17.5027 21.3095 17.6465 21.0698 17.5986C20.926 17.5986 20.926 17.4069 20.974 17.2631C21.0219 16.9755 21.3095 16.7358 21.5492 16.4962C22.0285 16.0648 22.6516 15.7772 23.2267 15.5376C24.1854 15.1062 25.3357 14.8665 26.3902 14.9624ZM33.8674 15.0583C34.203 14.9624 34.5385 15.0103 34.8261 15.202C35.0178 15.3458 35.2095 15.4896 35.2574 15.7293C35.3054 15.8731 35.3054 16.0169 35.1616 16.0648C35.0178 16.1127 34.8261 16.1127 34.6823 16.0169C34.4426 15.8731 34.2509 15.7293 33.9633 15.7293C33.7237 15.7293 33.484 15.7772 33.2923 15.8731C32.9088 16.0648 32.5254 16.4003 32.3336 16.7838L32.0461 17.2151H31.9023V16.9276C31.9981 16.5441 32.2378 16.1607 32.5254 15.8731C32.8609 15.4896 33.3402 15.1541 33.8674 15.0583Z" fill="#262626"/>
<path d="M12.6345 23.354C12.8742 23.354 13.1138 23.3061 13.3056 23.4499C13.4494 23.5458 13.5452 23.6895 13.4973 23.8813C13.4014 24.073 13.2097 24.2168 12.97 24.2168H12.2031C11.9635 24.1689 11.7718 24.073 11.6759 23.8813C11.628 23.6895 11.7718 23.5458 11.9156 23.4499C12.1552 23.354 12.3949 23.402 12.6345 23.354ZM13.2576 24.4564C13.4014 24.5044 13.5931 24.6002 13.5931 24.792C13.5931 24.9358 13.5452 25.0795 13.4014 25.1275C13.1618 25.3192 12.8742 25.3192 12.5866 25.4151C12.3469 25.463 12.1073 25.5109 11.9156 25.3671C11.7238 25.2233 11.7718 24.9358 11.9156 24.792C12.1073 24.6002 12.299 24.6002 12.5387 24.5523C12.7783 24.5044 13.018 24.4085 13.2576 24.4564ZM16.7087 26.9489H17.0921C17.2359 26.9968 17.3797 27.1406 17.3797 27.3323C17.3797 27.572 17.188 27.7637 16.9483 27.8116C16.7087 27.9075 16.5169 27.7158 16.4211 27.524C16.3732 27.2844 16.469 26.9968 16.7087 26.9489Z" fill="#262626"/>
<path d="M31.3754 25.1237C31.3754 25.2675 31.2796 25.4113 31.1837 25.5551C30.992 25.8427 30.6565 26.0344 30.321 26.1303C30.0813 26.1782 29.8896 26.0344 29.6979 26.1303C29.5061 26.1303 29.3144 26.1782 29.1227 26.0823C29.0268 26.0344 29.0268 25.8906 29.1227 25.7947C29.2665 25.603 29.5061 25.4592 29.6979 25.4592C29.8896 25.4113 30.0334 25.4113 30.1772 25.5551L30.2251 25.8906C30.4647 25.7947 30.5606 25.6509 30.7523 25.5072L31.3754 25.1237Z" fill="#262626"/>
<path d="M36.7431 24.1218C37.1745 24.1218 37.558 24.3135 37.7976 24.649C37.9096 24.7962 37.9911 24.9643 38.0374 25.1434C38.0836 25.3225 38.0936 25.509 38.0668 25.6921C38.04 25.8751 37.977 26.0509 37.8814 26.2093C37.7858 26.3676 37.6595 26.5053 37.51 26.6142C37.8935 26.7101 38.2769 26.9497 38.5645 27.2373C38.9959 27.7645 39.3314 28.4835 39.2835 29.2025C39.2355 29.5859 39.0917 29.9214 38.9 30.209C38.5166 30.8321 37.8935 31.2635 37.2224 31.5511L37.6059 31.9825C37.7497 32.318 37.7976 32.6535 37.7976 33.037C37.7497 33.6121 37.51 34.1873 37.0786 34.6187C36.5836 35.0921 35.9402 35.3799 35.2573 35.4335C34.778 35.4815 34.2507 35.4815 33.7714 35.3377C33.7235 35.6732 33.6276 36.0566 33.4838 36.3921C33.1609 36.9617 32.6472 37.399 32.0334 37.627C31.4197 37.855 30.7451 37.859 30.1286 37.6384C29.5535 37.3987 29.0742 36.9673 28.7866 36.488C28.0676 36.9194 27.3007 37.0632 26.4859 37.0632C25.8148 37.1111 25 37.0632 24.4248 36.7277C24.0414 36.5839 23.8017 36.2963 23.5621 36.0087C23.4183 35.8649 23.3224 35.7211 23.2745 35.4815C22.7472 35.9128 22.0283 36.0087 21.4052 35.9128C20.9259 35.769 20.4945 35.5294 20.2548 35.098C20.0152 34.8104 19.9672 34.379 19.9672 33.9956H19.2962C18.9128 33.9477 18.5293 33.7559 18.1938 33.5163C17.6666 33.037 17.2352 32.4139 16.9476 31.7428C16.8517 31.4552 16.7559 31.1677 16.7559 30.8321C16.7559 30.3049 16.9476 29.7777 17.2831 29.3463C17.1393 29.0108 17.0914 28.6752 17.1872 28.3397C17.331 27.7645 17.7624 27.2852 18.2417 26.9977C18.6731 26.7101 19.2003 26.6142 19.7276 26.6621C19.8234 26.3745 19.9672 26.1828 20.2069 25.9911C20.7341 25.5118 21.4052 25.2242 22.1241 25.2242C22.6035 25.2242 23.0348 25.2721 23.4183 25.4639C23.61 25.1763 23.8497 25.0325 24.1372 24.9366C24.6645 24.697 25.2397 24.7449 25.7669 24.9845C26.6776 25.3201 27.3966 25.8473 28.2593 26.1828C28.499 26.3745 28.8345 26.3266 29.17 26.3745C29.5055 26.4225 29.841 26.3745 30.1766 26.3266C30.3204 26.2787 30.5121 26.2787 30.6079 26.1828L31.5186 25.7035L32.4773 24.9845C32.8607 24.7449 33.34 24.5052 33.8193 24.5532C34.0111 24.6011 34.1548 24.697 34.2507 24.8408C34.9906 24.3566 35.859 24.1061 36.7431 24.1218Z" fill="#262626"/>
<path d="M25.1933 28.5735C25.3371 28.5256 25.433 28.5735 25.433 28.6694C25.433 28.8131 25.2892 28.9569 25.1454 29.0049C25.0016 28.8611 25.0496 28.6694 25.1933 28.5735ZM26.3916 29.1487L28.1171 29.4842L29.5551 29.58C29.8906 29.628 30.1782 29.58 30.4658 29.6759C30.4178 29.7718 30.322 29.8197 30.1782 29.8676C28.9898 30.0548 27.774 29.9563 26.6313 29.58C26.4875 29.5321 26.2958 29.4363 26.2478 29.2925C26.1999 29.1966 26.2958 29.1007 26.3916 29.1487Z" fill="#FFDECC"/>
<path d="M24.9533 6.67193C26.3067 6.67462 27.6562 6.8192 28.9795 7.10331C29.5067 7.2471 29.986 7.34296 30.4653 7.53469L32.1429 8.15779C32.6222 8.30158 33.0536 8.58917 33.5329 8.7809L34.2998 9.06848L35.6898 9.35607C35.9295 9.45193 36.1212 9.59572 36.2171 9.83538C36.3609 10.123 36.3129 10.4106 36.2171 10.6981L36.6964 10.9378C36.936 11.1775 37.0319 11.513 36.936 11.8485C36.8402 12.0402 36.6484 12.184 36.4567 12.2799C35.4368 12.8029 34.262 12.9391 33.1495 12.6633L31.0405 12.184L28.0688 11.3692C25.5282 10.5 22.7629 10.5509 20.256 11.513L20.0643 12.184C19.8726 12.9509 19.7288 13.7178 19.6808 14.4847V15.2995L19.6329 15.683C19.4891 16.0185 19.2015 16.354 19.0098 16.6895C18.4346 17.5523 17.9074 18.463 17.476 19.3737L17.3801 20.0447V21.914C17.3801 22.1537 17.476 22.3454 17.3322 22.5371C16.6133 22.4413 15.8943 22.2495 15.1274 22.0578C15.0315 22.0578 14.8877 22.0578 14.7919 21.9619L14.4564 21.5306C14.2646 21.3868 14.2167 21.0992 14.1208 20.8595C13.7853 19.853 13.6895 18.7026 13.6895 17.6002C13.6895 16.2581 13.9291 14.964 14.1688 13.6699C14.3605 12.9509 14.6481 12.2799 14.9836 11.6568C15.4629 10.6981 16.1339 9.88331 16.9008 9.16434C17.6677 8.39745 18.5784 7.8702 19.585 7.48676C21.3058 6.8744 23.1282 6.59779 24.9533 6.67193ZM16.086 22.5371C16.5653 22.5371 17.0446 22.6809 17.476 22.7768C17.6677 22.8247 17.9074 22.9206 18.0512 23.0644C18.195 23.1602 18.147 23.3519 18.0033 23.3999C17.5719 23.5437 17.2364 23.3999 16.8529 23.304C16.5653 23.2082 16.1819 23.1123 15.8943 22.9206C15.7984 22.8726 15.6546 22.7288 15.7505 22.633C15.8464 22.5371 15.9901 22.5371 16.086 22.5371ZM37.0319 28.1451C37.0798 28.2409 37.0798 28.2889 36.984 28.3847L37.0319 28.1451Z" fill="#262626"/>
</g>
</svg>
