<svg width="1819" height="58" viewBox="0 0 1819 58" fill="none" xmlns="http://www.w3.org/2000/svg">
<g clip-path="url(#clip0_73_9263)">
<rect width="1819" height="58" rx="8" fill="#FFDECC"/>
<path d="M714.98 36L720.74 22H722.34L728.06 36H725.58L721.1 24.66H721.94L717.42 36H714.98ZM717.82 33.3V31.3H725.24V33.3H717.82ZM733.217 36.2C732.35 36.2 731.563 35.98 730.857 35.54C730.163 35.1 729.61 34.5067 729.197 33.76C728.797 33 728.597 32.1533 728.597 31.22C728.597 30.2733 728.797 29.4267 729.197 28.68C729.61 27.92 730.163 27.32 730.857 26.88C731.563 26.4267 732.35 26.2 733.217 26.2C733.95 26.2 734.597 26.36 735.157 26.68C735.73 26.9867 736.183 27.4133 736.517 27.96C736.85 28.5067 737.017 29.1267 737.017 29.82V32.58C737.017 33.2733 736.85 33.8933 736.517 34.44C736.197 34.9867 735.75 35.42 735.177 35.74C734.603 36.0467 733.95 36.2 733.217 36.2ZM733.577 34.12C734.123 34.12 734.597 34 734.997 33.76C735.41 33.5067 735.73 33.16 735.957 32.72C736.183 32.28 736.297 31.7733 736.297 31.2C736.297 30.6267 736.183 30.12 735.957 29.68C735.73 29.24 735.41 28.9 734.997 28.66C734.597 28.4067 734.123 28.28 733.577 28.28C733.043 28.28 732.57 28.4067 732.157 28.66C731.757 28.9 731.437 29.24 731.197 29.68C730.97 30.12 730.857 30.6267 730.857 31.2C730.857 31.7733 730.97 32.28 731.197 32.72C731.437 33.16 731.757 33.5067 732.157 33.76C732.57 34 733.043 34.12 733.577 34.12ZM738.357 36H736.157V33.42L736.537 31.08L736.157 28.76V21.6H738.357V36ZM740.798 36V26.4H742.998V36H740.798ZM747.178 36V30.28C747.178 29.64 746.978 29.1467 746.578 28.8C746.178 28.44 745.685 28.26 745.098 28.26C744.698 28.26 744.338 28.34 744.018 28.5C743.711 28.66 743.465 28.8933 743.278 29.2C743.091 29.4933 742.998 29.8533 742.998 30.28L742.138 29.8C742.138 29.0667 742.298 28.4333 742.618 27.9C742.938 27.3667 743.371 26.9533 743.918 26.66C744.465 26.3533 745.078 26.2 745.758 26.2C746.438 26.2 747.051 26.3467 747.598 26.64C748.145 26.9333 748.578 27.3467 748.898 27.88C749.218 28.4133 749.378 29.0533 749.378 29.8V36H747.178ZM753.558 36V30.28C753.558 29.64 753.358 29.1467 752.958 28.8C752.558 28.44 752.065 28.26 751.478 28.26C751.091 28.26 750.738 28.34 750.418 28.5C750.098 28.66 749.845 28.8933 749.658 29.2C749.471 29.4933 749.378 29.8533 749.378 30.28L748.138 29.8C748.205 29.0667 748.418 28.4333 748.778 27.9C749.138 27.3667 749.598 26.9533 750.158 26.66C750.731 26.3533 751.358 26.2 752.038 26.2C752.731 26.2 753.358 26.3467 753.918 26.64C754.478 26.9333 754.925 27.3467 755.258 27.88C755.591 28.4133 755.758 29.0533 755.758 29.8V36H753.558ZM758.045 36V26.4H760.245V36H758.045ZM759.145 24.64C758.771 24.64 758.458 24.5133 758.205 24.26C757.965 24.0067 757.845 23.6933 757.845 23.32C757.845 22.9467 757.965 22.6333 758.205 22.38C758.458 22.1267 758.771 22 759.145 22C759.531 22 759.845 22.1267 760.085 22.38C760.325 22.6333 760.445 22.9467 760.445 23.32C760.445 23.6933 760.325 24.0067 760.085 24.26C759.845 24.5133 759.531 24.64 759.145 24.64ZM765.852 36.2C765.319 36.2 764.806 36.1333 764.312 36C763.819 35.8533 763.366 35.6533 762.952 35.4C762.539 35.1333 762.179 34.8133 761.872 34.44L763.272 33.04C763.606 33.4267 763.986 33.72 764.412 33.92C764.852 34.1067 765.346 34.2 765.892 34.2C766.386 34.2 766.759 34.1267 767.012 33.98C767.266 33.8333 767.392 33.62 767.392 33.34C767.392 33.0467 767.272 32.82 767.032 32.66C766.792 32.5 766.479 32.3667 766.092 32.26C765.719 32.14 765.319 32.02 764.892 31.9C764.479 31.78 764.079 31.62 763.692 31.42C763.319 31.2067 763.012 30.92 762.772 30.56C762.532 30.2 762.412 29.7333 762.412 29.16C762.412 28.5467 762.552 28.02 762.832 27.58C763.126 27.14 763.532 26.8 764.052 26.56C764.586 26.32 765.219 26.2 765.952 26.2C766.726 26.2 767.406 26.34 767.992 26.62C768.592 26.8867 769.092 27.2933 769.492 27.84L768.092 29.24C767.812 28.8933 767.492 28.6333 767.132 28.46C766.772 28.2867 766.359 28.2 765.892 28.2C765.452 28.2 765.112 28.2667 764.872 28.4C764.632 28.5333 764.512 28.7267 764.512 28.98C764.512 29.2467 764.632 29.4533 764.872 29.6C765.112 29.7467 765.419 29.8733 765.792 29.98C766.179 30.0867 766.579 30.2067 766.992 30.34C767.419 30.46 767.819 30.6333 768.192 30.86C768.579 31.0733 768.892 31.3667 769.132 31.74C769.372 32.1 769.492 32.5733 769.492 33.16C769.492 34.0933 769.166 34.8333 768.512 35.38C767.859 35.9267 766.972 36.2 765.852 36.2ZM774.446 36.2C773.913 36.2 773.399 36.1333 772.906 36C772.413 35.8533 771.959 35.6533 771.546 35.4C771.133 35.1333 770.773 34.8133 770.466 34.44L771.866 33.04C772.199 33.4267 772.579 33.72 773.006 33.92C773.446 34.1067 773.939 34.2 774.486 34.2C774.979 34.2 775.353 34.1267 775.606 33.98C775.859 33.8333 775.986 33.62 775.986 33.34C775.986 33.0467 775.866 32.82 775.626 32.66C775.386 32.5 775.073 32.3667 774.686 32.26C774.313 32.14 773.913 32.02 773.486 31.9C773.073 31.78 772.673 31.62 772.286 31.42C771.913 31.2067 771.606 30.92 771.366 30.56C771.126 30.2 771.006 29.7333 771.006 29.16C771.006 28.5467 771.146 28.02 771.426 27.58C771.719 27.14 772.126 26.8 772.646 26.56C773.179 26.32 773.813 26.2 774.546 26.2C775.319 26.2 775.999 26.34 776.586 26.62C777.186 26.8867 777.686 27.2933 778.086 27.84L776.686 29.24C776.406 28.8933 776.086 28.6333 775.726 28.46C775.366 28.2867 774.953 28.2 774.486 28.2C774.046 28.2 773.706 28.2667 773.466 28.4C773.226 28.5333 773.106 28.7267 773.106 28.98C773.106 29.2467 773.226 29.4533 773.466 29.6C773.706 29.7467 774.013 29.8733 774.386 29.98C774.773 30.0867 775.173 30.2067 775.586 30.34C776.013 30.46 776.413 30.6333 776.786 30.86C777.173 31.0733 777.486 31.3667 777.726 31.74C777.966 32.1 778.086 32.5733 778.086 33.16C778.086 34.0933 777.759 34.8333 777.106 35.38C776.453 35.9267 775.566 36.2 774.446 36.2ZM779.92 36V26.4H782.12V36H779.92ZM781.02 24.64C780.646 24.64 780.333 24.5133 780.08 24.26C779.84 24.0067 779.72 23.6933 779.72 23.32C779.72 22.9467 779.84 22.6333 780.08 22.38C780.333 22.1267 780.646 22 781.02 22C781.406 22 781.72 22.1267 781.96 22.38C782.2 22.6333 782.32 22.9467 782.32 23.32C782.32 23.6933 782.2 24.0067 781.96 24.26C781.72 24.5133 781.406 24.64 781.02 24.64ZM788.987 36.2C788.054 36.2 787.207 35.98 786.447 35.54C785.687 35.0867 785.081 34.48 784.627 33.72C784.187 32.96 783.967 32.1133 783.967 31.18C783.967 30.2467 784.187 29.4067 784.627 28.66C785.081 27.9133 785.687 27.32 786.447 26.88C787.207 26.4267 788.054 26.2 788.987 26.2C789.934 26.2 790.787 26.42 791.547 26.86C792.307 27.3 792.907 27.9 793.347 28.66C793.801 29.4067 794.027 30.2467 794.027 31.18C794.027 32.1133 793.801 32.96 793.347 33.72C792.907 34.48 792.307 35.0867 791.547 35.54C790.787 35.98 789.934 36.2 788.987 36.2ZM788.987 34.08C789.534 34.08 790.014 33.96 790.427 33.72C790.854 33.4667 791.181 33.12 791.407 32.68C791.647 32.24 791.767 31.74 791.767 31.18C791.767 30.62 791.647 30.1267 791.407 29.7C791.167 29.2733 790.841 28.94 790.427 28.7C790.014 28.4467 789.534 28.32 788.987 28.32C788.454 28.32 787.974 28.4467 787.547 28.7C787.134 28.94 786.807 29.2733 786.567 29.7C786.341 30.1267 786.227 30.62 786.227 31.18C786.227 31.74 786.341 32.24 786.567 32.68C786.807 33.12 787.134 33.4667 787.547 33.72C787.974 33.96 788.454 34.08 788.987 34.08ZM802.437 36V30.46C802.437 29.82 802.23 29.2933 801.817 28.88C801.417 28.4667 800.897 28.26 800.257 28.26C799.83 28.26 799.45 28.3533 799.117 28.54C798.783 28.7267 798.523 28.9867 798.337 29.32C798.15 29.6533 798.057 30.0333 798.057 30.46L797.197 29.98C797.197 29.2467 797.357 28.6 797.677 28.04C797.997 27.4667 798.437 27.02 798.997 26.7C799.57 26.3667 800.21 26.2 800.917 26.2C801.637 26.2 802.277 26.3867 802.837 26.76C803.397 27.12 803.837 27.5933 804.157 28.18C804.477 28.7533 804.637 29.3533 804.637 29.98V36H802.437ZM795.857 36V26.4H798.057V36H795.857ZM810.896 36V26.4H813.096V36H810.896ZM811.996 24.64C811.623 24.64 811.31 24.5133 811.056 24.26C810.816 24.0067 810.696 23.6933 810.696 23.32C810.696 22.9467 810.816 22.6333 811.056 22.38C811.31 22.1267 811.623 22 811.996 22C812.383 22 812.696 22.1267 812.936 22.38C813.176 22.6333 813.296 22.9467 813.296 23.32C813.296 23.6933 813.176 24.0067 812.936 24.26C812.696 24.5133 812.383 24.64 811.996 24.64ZM818.704 36.2C818.17 36.2 817.657 36.1333 817.164 36C816.67 35.8533 816.217 35.6533 815.804 35.4C815.39 35.1333 815.03 34.8133 814.724 34.44L816.124 33.04C816.457 33.4267 816.837 33.72 817.264 33.92C817.704 34.1067 818.197 34.2 818.744 34.2C819.237 34.2 819.61 34.1267 819.864 33.98C820.117 33.8333 820.244 33.62 820.244 33.34C820.244 33.0467 820.124 32.82 819.884 32.66C819.644 32.5 819.33 32.3667 818.944 32.26C818.57 32.14 818.17 32.02 817.744 31.9C817.33 31.78 816.93 31.62 816.544 31.42C816.17 31.2067 815.864 30.92 815.624 30.56C815.384 30.2 815.264 29.7333 815.264 29.16C815.264 28.5467 815.404 28.02 815.684 27.58C815.977 27.14 816.384 26.8 816.904 26.56C817.437 26.32 818.07 26.2 818.804 26.2C819.577 26.2 820.257 26.34 820.844 26.62C821.444 26.8867 821.944 27.2933 822.344 27.84L820.944 29.24C820.664 28.8933 820.344 28.6333 819.984 28.46C819.624 28.2867 819.21 28.2 818.744 28.2C818.304 28.2 817.964 28.2667 817.724 28.4C817.484 28.5333 817.364 28.7267 817.364 28.98C817.364 29.2467 817.484 29.4533 817.724 29.6C817.964 29.7467 818.27 29.8733 818.644 29.98C819.03 30.0867 819.43 30.2067 819.844 30.34C820.27 30.46 820.67 30.6333 821.044 30.86C821.43 31.0733 821.744 31.3667 821.984 31.74C822.224 32.1 822.344 32.5733 822.344 33.16C822.344 34.0933 822.017 34.8333 821.364 35.38C820.71 35.9267 819.824 36.2 818.704 36.2ZM834.901 36.2C833.901 36.2 832.968 36.0133 832.101 35.64C831.235 35.2667 830.475 34.7533 829.821 34.1C829.168 33.4333 828.655 32.6667 828.281 31.8C827.921 30.92 827.741 29.98 827.741 28.98C827.741 27.98 827.921 27.0467 828.281 26.18C828.655 25.3133 829.161 24.5533 829.801 23.9C830.455 23.2333 831.208 22.72 832.061 22.36C832.928 21.9867 833.861 21.8 834.861 21.8C835.861 21.8 836.788 21.9867 837.641 22.36C838.508 22.72 839.268 23.2333 839.921 23.9C840.575 24.5533 841.081 25.32 841.441 26.2C841.815 27.0667 842.001 28 842.001 29C842.001 30 841.815 30.94 841.441 31.82C841.081 32.6867 840.575 33.4467 839.921 34.1C839.281 34.7533 838.528 35.2667 837.661 35.64C836.808 36.0133 835.888 36.2 834.901 36.2ZM834.861 34C835.808 34 836.635 33.7867 837.341 33.36C838.061 32.9333 838.621 32.3467 839.021 31.6C839.435 30.84 839.641 29.9667 839.641 28.98C839.641 28.2467 839.521 27.58 839.281 26.98C839.055 26.3667 838.728 25.84 838.301 25.4C837.875 24.9467 837.368 24.6 836.781 24.36C836.208 24.12 835.568 24 834.861 24C833.928 24 833.101 24.2133 832.381 24.64C831.675 25.0533 831.115 25.6333 830.701 26.38C830.301 27.1267 830.101 27.9933 830.101 28.98C830.101 29.7133 830.215 30.3933 830.441 31.02C830.681 31.6333 831.008 32.16 831.421 32.6C831.848 33.04 832.355 33.3867 832.941 33.64C833.528 33.88 834.168 34 834.861 34ZM849.18 36.2C848.447 36.2 847.794 36.0467 847.22 35.74C846.647 35.42 846.194 34.9867 845.86 34.44C845.54 33.8933 845.38 33.2733 845.38 32.58V29.82C845.38 29.1267 845.547 28.5067 845.88 27.96C846.214 27.4133 846.667 26.9867 847.24 26.68C847.814 26.36 848.46 26.2 849.18 26.2C850.047 26.2 850.827 26.4267 851.52 26.88C852.227 27.32 852.78 27.92 853.18 28.68C853.594 29.4267 853.8 30.2733 853.8 31.22C853.8 32.1533 853.594 33 853.18 33.76C852.78 34.5067 852.227 35.1 851.52 35.54C850.827 35.98 850.047 36.2 849.18 36.2ZM848.82 34.12C849.354 34.12 849.82 34 850.22 33.76C850.634 33.5067 850.954 33.16 851.18 32.72C851.42 32.28 851.54 31.7733 851.54 31.2C851.54 30.6267 851.42 30.12 851.18 29.68C850.954 29.24 850.634 28.9 850.22 28.66C849.82 28.4067 849.354 28.28 848.82 28.28C848.287 28.28 847.814 28.4067 847.4 28.66C846.987 28.9 846.667 29.24 846.44 29.68C846.214 30.12 846.1 30.6267 846.1 31.2C846.1 31.7733 846.214 32.28 846.44 32.72C846.667 33.16 846.987 33.5067 847.4 33.76C847.814 34 848.287 34.12 848.82 34.12ZM844.04 40V26.4H846.24V28.98L845.86 31.32L846.24 33.64V40H844.04ZM860.102 36.2C859.142 36.2 858.275 35.9867 857.502 35.56C856.742 35.12 856.135 34.52 855.682 33.76C855.242 33 855.022 32.1467 855.022 31.2C855.022 30.2533 855.242 29.4067 855.682 28.66C856.122 27.9 856.715 27.3 857.462 26.86C858.222 26.42 859.062 26.2 859.982 26.2C860.875 26.2 861.662 26.4067 862.342 26.82C863.035 27.2333 863.575 27.8 863.962 28.52C864.362 29.24 864.562 30.06 864.562 30.98C864.562 31.14 864.549 31.3067 864.522 31.48C864.509 31.64 864.482 31.82 864.442 32.02H856.562V30.22H863.302L862.482 30.94C862.455 30.3533 862.342 29.86 862.142 29.46C861.942 29.06 861.655 28.7533 861.282 28.54C860.922 28.3267 860.475 28.22 859.942 28.22C859.382 28.22 858.895 28.34 858.482 28.58C858.069 28.82 857.749 29.16 857.522 29.6C857.295 30.0267 857.182 30.54 857.182 31.14C857.182 31.74 857.302 32.2667 857.542 32.72C857.782 33.1733 858.122 33.5267 858.562 33.78C859.002 34.02 859.509 34.14 860.082 34.14C860.575 34.14 861.029 34.0533 861.442 33.88C861.869 33.7067 862.229 33.4533 862.522 33.12L863.922 34.54C863.455 35.0867 862.889 35.5 862.222 35.78C861.555 36.06 860.849 36.2 860.102 36.2ZM872.905 36V30.46C872.905 29.82 872.699 29.2933 872.285 28.88C871.885 28.4667 871.365 28.26 870.725 28.26C870.299 28.26 869.919 28.3533 869.585 28.54C869.252 28.7267 868.992 28.9867 868.805 29.32C868.619 29.6533 868.525 30.0333 868.525 30.46L867.665 29.98C867.665 29.2467 867.825 28.6 868.145 28.04C868.465 27.4667 868.905 27.02 869.465 26.7C870.039 26.3667 870.679 26.2 871.385 26.2C872.105 26.2 872.745 26.3867 873.305 26.76C873.865 27.12 874.305 27.5933 874.625 28.18C874.945 28.7533 875.105 29.3533 875.105 29.98V36H872.905ZM866.325 36V26.4H868.525V36H866.325ZM877.341 38.34L878.701 35.8L879.441 35.6C879.361 35.76 879.268 35.8933 879.161 36C879.054 36.1067 878.928 36.16 878.781 36.16C878.474 36.16 878.188 36.0333 877.921 35.78C877.668 35.5133 877.541 35.18 877.541 34.78C877.541 34.3533 877.681 33.9933 877.961 33.7C878.254 33.3933 878.614 33.24 879.041 33.24C879.441 33.24 879.788 33.3933 880.081 33.7C880.388 33.9933 880.541 34.3533 880.541 34.78C880.541 34.9533 880.501 35.16 880.421 35.4C880.354 35.6267 880.228 35.92 880.041 36.28L878.561 39L877.341 38.34ZM893.492 36.2C892.532 36.2 891.626 36.0133 890.772 35.64C889.919 35.2667 889.172 34.7533 888.532 34.1C887.892 33.4333 887.386 32.6667 887.012 31.8C886.652 30.92 886.472 29.98 886.472 28.98C886.472 27.98 886.652 27.0467 887.012 26.18C887.386 25.3133 887.892 24.5533 888.532 23.9C889.186 23.2333 889.946 22.72 890.812 22.36C891.692 21.9867 892.639 21.8 893.652 21.8C894.759 21.8 895.786 22.0133 896.732 22.44C897.679 22.8667 898.472 23.4733 899.112 24.26L897.552 25.82C897.139 25.2333 896.586 24.7867 895.892 24.48C895.199 24.16 894.452 24 893.652 24C892.692 24 891.846 24.2133 891.112 24.64C890.392 25.0533 889.832 25.6333 889.432 26.38C889.032 27.1267 888.832 27.9933 888.832 28.98C888.832 29.9667 889.032 30.84 889.432 31.6C889.846 32.3467 890.399 32.9333 891.092 33.36C891.786 33.7867 892.572 34 893.452 34C894.386 34 895.186 33.8333 895.852 33.5C896.532 33.1533 897.052 32.6467 897.412 31.98C897.772 31.3 897.952 30.4667 897.952 29.48L899.392 30.52H893.412V28.42H900.332V28.74C900.332 30.4067 900.032 31.7933 899.432 32.9C898.846 34.0067 898.039 34.8333 897.012 35.38C895.986 35.9267 894.812 36.2 893.492 36.2ZM902.322 36V26.4H904.522V36H902.322ZM904.522 30.66L903.762 30.28C903.762 29.0667 904.028 28.0867 904.562 27.34C905.108 26.58 905.928 26.2 907.022 26.2C907.502 26.2 907.935 26.2867 908.322 26.46C908.708 26.6333 909.068 26.9133 909.402 27.3L907.962 28.78C907.788 28.5933 907.595 28.46 907.382 28.38C907.168 28.3 906.922 28.26 906.642 28.26C906.028 28.26 905.522 28.4533 905.122 28.84C904.722 29.2267 904.522 29.8333 904.522 30.66ZM914.193 36.2C913.326 36.2 912.54 35.98 911.833 35.54C911.14 35.1 910.586 34.5067 910.173 33.76C909.773 33 909.573 32.1533 909.573 31.22C909.573 30.2733 909.773 29.4267 910.173 28.68C910.586 27.92 911.14 27.32 911.833 26.88C912.54 26.4267 913.326 26.2 914.193 26.2C914.926 26.2 915.573 26.36 916.133 26.68C916.706 26.9867 917.16 27.4133 917.493 27.96C917.826 28.5067 917.993 29.1267 917.993 29.82V32.58C917.993 33.2733 917.826 33.8933 917.493 34.44C917.173 34.9867 916.726 35.42 916.153 35.74C915.58 36.0467 914.926 36.2 914.193 36.2ZM914.553 34.12C915.366 34.12 916.02 33.8467 916.513 33.3C917.02 32.7533 917.273 32.0533 917.273 31.2C917.273 30.6267 917.16 30.12 916.933 29.68C916.706 29.24 916.386 28.9 915.973 28.66C915.573 28.4067 915.1 28.28 914.553 28.28C914.02 28.28 913.546 28.4067 913.133 28.66C912.733 28.9 912.413 29.24 912.173 29.68C911.946 30.12 911.833 30.6267 911.833 31.2C911.833 31.7733 911.946 32.28 912.173 32.72C912.413 33.16 912.733 33.5067 913.133 33.76C913.546 34 914.02 34.12 914.553 34.12ZM917.133 36V33.42L917.513 31.08L917.133 28.76V26.4H919.333V36H917.133ZM926.915 36.2C926.181 36.2 925.528 36.0467 924.955 35.74C924.381 35.42 923.928 34.9867 923.595 34.44C923.275 33.8933 923.115 33.2733 923.115 32.58V29.82C923.115 29.1267 923.281 28.5067 923.615 27.96C923.948 27.4133 924.401 26.9867 924.975 26.68C925.548 26.36 926.195 26.2 926.915 26.2C927.781 26.2 928.561 26.4267 929.255 26.88C929.961 27.32 930.515 27.92 930.915 28.68C931.328 29.4267 931.535 30.2733 931.535 31.22C931.535 32.1533 931.328 33 930.915 33.76C930.515 34.5067 929.961 35.1 929.255 35.54C928.561 35.98 927.781 36.2 926.915 36.2ZM926.555 34.12C927.088 34.12 927.555 34 927.955 33.76C928.368 33.5067 928.688 33.16 928.915 32.72C929.155 32.28 929.275 31.7733 929.275 31.2C929.275 30.6267 929.155 30.12 928.915 29.68C928.688 29.24 928.368 28.9 927.955 28.66C927.555 28.4067 927.088 28.28 926.555 28.28C926.021 28.28 925.548 28.4067 925.135 28.66C924.721 28.9 924.401 29.24 924.175 29.68C923.948 30.12 923.835 30.6267 923.835 31.2C923.835 31.7733 923.948 32.28 924.175 32.72C924.401 33.16 924.721 33.5067 925.135 33.76C925.548 34 926.021 34.12 926.555 34.12ZM921.775 36V21.6H923.975V28.76L923.595 31.08L923.975 33.42V36H921.775ZM940.48 36.1L936.38 26.4H938.8L941.6 33.52H940.9L943.86 26.4H946.3L941.84 36.1H940.48ZM937.62 40L940.6 33.86L941.84 36.1L940.06 40H937.62ZM951.643 36.2C950.71 36.2 949.863 35.98 949.103 35.54C948.343 35.0867 947.737 34.48 947.283 33.72C946.843 32.96 946.623 32.1133 946.623 31.18C946.623 30.2467 946.843 29.4067 947.283 28.66C947.737 27.9133 948.343 27.32 949.103 26.88C949.863 26.4267 950.71 26.2 951.643 26.2C952.59 26.2 953.443 26.42 954.203 26.86C954.963 27.3 955.563 27.9 956.003 28.66C956.457 29.4067 956.683 30.2467 956.683 31.18C956.683 32.1133 956.457 32.96 956.003 33.72C955.563 34.48 954.963 35.0867 954.203 35.54C953.443 35.98 952.59 36.2 951.643 36.2ZM951.643 34.08C952.19 34.08 952.67 33.96 953.083 33.72C953.51 33.4667 953.837 33.12 954.063 32.68C954.303 32.24 954.423 31.74 954.423 31.18C954.423 30.62 954.303 30.1267 954.063 29.7C953.823 29.2733 953.497 28.94 953.083 28.7C952.67 28.4467 952.19 28.32 951.643 28.32C951.11 28.32 950.63 28.4467 950.203 28.7C949.79 28.94 949.463 29.2733 949.223 29.7C948.997 30.1267 948.883 30.62 948.883 31.18C948.883 31.74 948.997 32.24 949.223 32.68C949.463 33.12 949.79 33.4667 950.203 33.72C950.63 33.96 951.11 34.08 951.643 34.08ZM962.453 36.2C961.64 36.2 960.913 36.02 960.273 35.66C959.646 35.3 959.153 34.8067 958.793 34.18C958.446 33.54 958.273 32.8067 958.273 31.98V26.4H960.473V31.88C960.473 32.3467 960.546 32.7467 960.693 33.08C960.853 33.4 961.08 33.6467 961.373 33.82C961.68 33.9933 962.04 34.08 962.453 34.08C963.093 34.08 963.58 33.8933 963.913 33.52C964.26 33.1333 964.433 32.5867 964.433 31.88V26.4H966.633V31.98C966.633 32.82 966.453 33.56 966.093 34.2C965.746 34.8267 965.26 35.32 964.633 35.68C964.006 36.0267 963.28 36.2 962.453 36.2ZM968.845 36V26.4H971.045V36H968.845ZM971.045 30.66L970.285 30.28C970.285 29.0667 970.552 28.0867 971.085 27.34C971.632 26.58 972.452 26.2 973.545 26.2C974.025 26.2 974.458 26.2867 974.845 26.46C975.232 26.6333 975.592 26.9133 975.925 27.3L974.485 28.78C974.312 28.5933 974.118 28.46 973.905 28.38C973.692 28.3 973.445 28.26 973.165 28.26C972.552 28.26 972.045 28.4533 971.645 28.84C971.245 29.2267 971.045 29.8333 971.045 30.66ZM984.485 36.2C983.952 36.2 983.438 36.1333 982.945 36C982.452 35.8533 981.998 35.6533 981.585 35.4C981.172 35.1333 980.812 34.8133 980.505 34.44L981.905 33.04C982.238 33.4267 982.618 33.72 983.045 33.92C983.485 34.1067 983.978 34.2 984.525 34.2C985.018 34.2 985.392 34.1267 985.645 33.98C985.898 33.8333 986.025 33.62 986.025 33.34C986.025 33.0467 985.905 32.82 985.665 32.66C985.425 32.5 985.112 32.3667 984.725 32.26C984.352 32.14 983.952 32.02 983.525 31.9C983.112 31.78 982.712 31.62 982.325 31.42C981.952 31.2067 981.645 30.92 981.405 30.56C981.165 30.2 981.045 29.7333 981.045 29.16C981.045 28.5467 981.185 28.02 981.465 27.58C981.758 27.14 982.165 26.8 982.685 26.56C983.218 26.32 983.852 26.2 984.585 26.2C985.358 26.2 986.038 26.34 986.625 26.62C987.225 26.8867 987.725 27.2933 988.125 27.84L986.725 29.24C986.445 28.8933 986.125 28.6333 985.765 28.46C985.405 28.2867 984.992 28.2 984.525 28.2C984.085 28.2 983.745 28.2667 983.505 28.4C983.265 28.5333 983.145 28.7267 983.145 28.98C983.145 29.2467 983.265 29.4533 983.505 29.6C983.745 29.7467 984.052 29.8733 984.425 29.98C984.812 30.0867 985.212 30.2067 985.625 30.34C986.052 30.46 986.452 30.6333 986.825 30.86C987.212 31.0733 987.525 31.3667 987.765 31.74C988.005 32.1 988.125 32.5733 988.125 33.16C988.125 34.0933 987.798 34.8333 987.145 35.38C986.492 35.9267 985.605 36.2 984.485 36.2ZM994.399 36.2C993.439 36.2 992.572 35.9867 991.799 35.56C991.039 35.12 990.432 34.52 989.979 33.76C989.539 33 989.319 32.1467 989.319 31.2C989.319 30.2533 989.539 29.4067 989.979 28.66C990.419 27.9 991.012 27.3 991.759 26.86C992.519 26.42 993.359 26.2 994.279 26.2C995.172 26.2 995.959 26.4067 996.639 26.82C997.332 27.2333 997.872 27.8 998.259 28.52C998.659 29.24 998.859 30.06 998.859 30.98C998.859 31.14 998.845 31.3067 998.819 31.48C998.805 31.64 998.779 31.82 998.739 32.02H990.859V30.22H997.599L996.779 30.94C996.752 30.3533 996.639 29.86 996.439 29.46C996.239 29.06 995.952 28.7533 995.579 28.54C995.219 28.3267 994.772 28.22 994.239 28.22C993.679 28.22 993.192 28.34 992.779 28.58C992.365 28.82 992.045 29.16 991.819 29.6C991.592 30.0267 991.479 30.54 991.479 31.14C991.479 31.74 991.599 32.2667 991.839 32.72C992.079 33.1733 992.419 33.5267 992.859 33.78C993.299 34.02 993.805 34.14 994.379 34.14C994.872 34.14 995.325 34.0533 995.739 33.88C996.165 33.7067 996.525 33.4533 996.819 33.12L998.219 34.54C997.752 35.0867 997.185 35.5 996.519 35.78C995.852 36.06 995.145 36.2 994.399 36.2ZM1004.64 36.2C1003.78 36.2 1002.99 35.98 1002.28 35.54C1001.59 35.1 1001.04 34.5067 1000.62 33.76C1000.22 33 1000.02 32.1533 1000.02 31.22C1000.02 30.2733 1000.22 29.4267 1000.62 28.68C1001.04 27.92 1001.59 27.32 1002.28 26.88C1002.99 26.4267 1003.78 26.2 1004.64 26.2C1005.38 26.2 1006.02 26.36 1006.58 26.68C1007.16 26.9867 1007.61 27.4133 1007.94 27.96C1008.28 28.5067 1008.44 29.1267 1008.44 29.82V32.58C1008.44 33.2733 1008.28 33.8933 1007.94 34.44C1007.62 34.9867 1007.18 35.42 1006.6 35.74C1006.03 36.0467 1005.38 36.2 1004.64 36.2ZM1005 34.12C1005.82 34.12 1006.47 33.8467 1006.96 33.3C1007.47 32.7533 1007.72 32.0533 1007.72 31.2C1007.72 30.6267 1007.61 30.12 1007.38 29.68C1007.16 29.24 1006.84 28.9 1006.42 28.66C1006.02 28.4067 1005.55 28.28 1005 28.28C1004.47 28.28 1004 28.4067 1003.58 28.66C1003.18 28.9 1002.86 29.24 1002.62 29.68C1002.4 30.12 1002.28 30.6267 1002.28 31.2C1002.28 31.7733 1002.4 32.28 1002.62 32.72C1002.86 33.16 1003.18 33.5067 1003.58 33.76C1004 34 1004.47 34.12 1005 34.12ZM1007.58 36V33.42L1007.96 31.08L1007.58 28.76V26.4H1009.78V36H1007.58ZM1013.68 36V22.4H1015.88V36H1013.68ZM1011.38 28.4V26.4H1018.18V28.4H1011.38ZM1030.37 36V30.46C1030.37 29.82 1030.16 29.2933 1029.75 28.88C1029.35 28.4667 1028.83 28.26 1028.19 28.26C1027.76 28.26 1027.38 28.3533 1027.05 28.54C1026.71 28.7267 1026.45 28.9867 1026.27 29.32C1026.08 29.6533 1025.99 30.0333 1025.99 30.46L1025.13 29.98C1025.13 29.2467 1025.29 28.6 1025.61 28.04C1025.93 27.4667 1026.37 27.02 1026.93 26.7C1027.5 26.3667 1028.14 26.2 1028.85 26.2C1029.57 26.2 1030.21 26.3867 1030.77 26.76C1031.33 27.12 1031.77 27.5933 1032.09 28.18C1032.41 28.7533 1032.57 29.3533 1032.57 29.98V36H1030.37ZM1023.79 36V26.4H1025.99V36H1023.79ZM1039.2 36.2C1038.27 36.2 1037.42 35.98 1036.66 35.54C1035.9 35.0867 1035.3 34.48 1034.84 33.72C1034.4 32.96 1034.18 32.1133 1034.18 31.18C1034.18 30.2467 1034.4 29.4067 1034.84 28.66C1035.3 27.9133 1035.9 27.32 1036.66 26.88C1037.42 26.4267 1038.27 26.2 1039.2 26.2C1040.15 26.2 1041 26.42 1041.76 26.86C1042.52 27.3 1043.12 27.9 1043.56 28.66C1044.02 29.4067 1044.24 30.2467 1044.24 31.18C1044.24 32.1133 1044.02 32.96 1043.56 33.72C1043.12 34.48 1042.52 35.0867 1041.76 35.54C1041 35.98 1040.15 36.2 1039.2 36.2ZM1039.2 34.08C1039.75 34.08 1040.23 33.96 1040.64 33.72C1041.07 33.4667 1041.4 33.12 1041.62 32.68C1041.86 32.24 1041.98 31.74 1041.98 31.18C1041.98 30.62 1041.86 30.1267 1041.62 29.7C1041.38 29.2733 1041.06 28.94 1040.64 28.7C1040.23 28.4467 1039.75 28.32 1039.2 28.32C1038.67 28.32 1038.19 28.4467 1037.76 28.7C1037.35 28.94 1037.02 29.2733 1036.78 29.7C1036.56 30.1267 1036.44 30.62 1036.44 31.18C1036.44 31.74 1036.56 32.24 1036.78 32.68C1037.02 33.12 1037.35 33.4667 1037.76 33.72C1038.19 33.96 1038.67 34.08 1039.2 34.08ZM1048.64 36L1044.78 26.4H1047.06L1049.66 33.38L1048.98 33.4L1051.52 26.4H1052.8L1055.34 33.4L1054.66 33.38L1057.26 26.4H1059.54L1055.68 36H1054.4L1051.8 29.36H1052.52L1049.92 36H1048.64Z" fill="#262626"/>
<path fill-rule="evenodd" clip-rule="evenodd" d="M1079 29C1079 28.3787 1079.5 27.875 1080.12 27.875L1096.08 27.875L1089.85 21.9359C1089.4 21.5053 1089.38 20.7931 1089.81 20.3452C1090.24 19.8974 1090.96 19.8834 1091.4 20.3141L1099.65 28.1891C1099.88 28.4012 1100 28.694 1100 29C1100 29.306 1099.88 29.5988 1099.65 29.8109L1091.4 37.6859C1090.96 38.1166 1090.24 38.1026 1089.81 37.6547C1089.38 37.2069 1089.4 36.4947 1089.85 36.0641L1096.08 30.125L1080.12 30.125C1079.5 30.125 1079 29.6213 1079 29Z" fill="#262626"/>
<g opacity="0.5">
<rect x="47" y="37" width="56" height="56" transform="rotate(90 47 37)" fill="white"/>
<rect x="47" y="37" width="56" height="28" transform="rotate(90 47 37)" fill="white"/>
<path d="M-9 65C-9 80.464 3.53603 93 19 93L19 37C3.53602 37 -9 49.536 -9 65Z" fill="white"/>
<rect width="56" height="56" transform="matrix(4.37114e-08 1 1 -4.37114e-08 -9 -19)" fill="#FF9E66"/>
<rect x="103" y="37" width="56" height="56" transform="rotate(90 103 37)" fill="white"/>
<rect width="56" height="56" transform="matrix(4.37114e-08 1 1 -4.37114e-08 47 -19)" fill="white"/>
<path d="M47 37C54.354 37 61.636 35.5515 68.4303 32.7373C75.2245 29.923 81.3979 25.7981 86.598 20.598C91.7981 15.3979 95.923 9.22451 98.7373 2.43027C101.552 -4.36396 103 -11.646 103 -19L47 -19L47 37Z" fill="#FF9E66"/>
<rect x="159" y="37" width="56" height="56" transform="rotate(90 159 37)" fill="white"/>
<rect x="159" y="37" width="56" height="28" transform="rotate(90 159 37)" fill="#FFBE99"/>
<path d="M103 65C103 80.464 115.536 93 131 93L131 37C115.536 37 103 49.536 103 65Z" fill="#FFBE99"/>
<rect width="56" height="56" transform="matrix(4.37114e-08 1 1 -4.37114e-08 103 -19)" fill="white"/>
<path d="M159 37C151.646 37 144.364 35.5515 137.57 32.7373C130.775 29.923 124.602 25.7981 119.402 20.598C114.202 15.3979 110.077 9.22451 107.263 2.43027C104.448 -4.36396 103 -11.646 103 -19L159 -19L159 37Z" fill="#FF9E66"/>
<rect x="215" y="37" width="56" height="56" transform="rotate(90 215 37)" fill="url(#paint0_linear_73_9263)"/>
<rect width="56" height="56" transform="matrix(4.37114e-08 1 1 -4.37114e-08 159 -19)" fill="url(#paint1_linear_73_9263)"/>
</g>
<g opacity="0.5">
<rect width="56" height="56" transform="matrix(-4.37114e-08 1 1 4.37114e-08 1763 37)" fill="white"/>
<rect width="56" height="28" transform="matrix(-4.37114e-08 1 1 4.37114e-08 1763 37)" fill="white"/>
<path d="M1819 65C1819 80.464 1806.46 93 1791 93L1791 37C1806.46 37 1819 49.536 1819 65Z" fill="white"/>
<rect x="1819" y="-19" width="56" height="56" transform="rotate(90 1819 -19)" fill="#FF9E66"/>
<rect width="56" height="56" transform="matrix(-4.37114e-08 1 1 4.37114e-08 1707 37)" fill="white"/>
<rect x="1763" y="-19" width="56" height="56" transform="rotate(90 1763 -19)" fill="white"/>
<path d="M1763 37C1755.65 37 1748.36 35.5515 1741.57 32.7373C1734.78 29.923 1728.6 25.7981 1723.4 20.598C1718.2 15.3979 1714.08 9.22451 1711.26 2.43027C1708.45 -4.36396 1707 -11.646 1707 -19L1763 -19L1763 37Z" fill="#FF9E66"/>
<rect width="56" height="56" transform="matrix(-4.37114e-08 1 1 4.37114e-08 1651 37)" fill="white"/>
<rect width="56" height="28" transform="matrix(-4.37114e-08 1 1 4.37114e-08 1651 37)" fill="#FFBE99"/>
<path d="M1707 65C1707 80.464 1694.46 93 1679 93L1679 37C1694.46 37 1707 49.536 1707 65Z" fill="#FFBE99"/>
<rect x="1707" y="-19" width="56" height="56" transform="rotate(90 1707 -19)" fill="white"/>
<path d="M1651 37C1658.35 37 1665.64 35.5515 1672.43 32.7373C1679.22 29.923 1685.4 25.7981 1690.6 20.598C1695.8 15.3979 1699.92 9.22451 1702.74 2.43027C1705.55 -4.36396 1707 -11.646 1707 -19L1651 -19L1651 37Z" fill="#FF9E66"/>
<rect width="56" height="56" transform="matrix(-4.37114e-08 1 1 4.37114e-08 1595 37)" fill="url(#paint2_linear_73_9263)"/>
<rect x="1651" y="-19" width="56" height="56" transform="rotate(90 1651 -19)" fill="url(#paint3_linear_73_9263)"/>
</g>
<g opacity="0.9">
<path d="M1238.52 29.7283C1238.61 29.7382 1238.7 29.7481 1238.79 29.7614C1238.71 29.7481 1238.61 29.7382 1238.52 29.7283Z" fill="#262626"/>
<path d="M1244.24 31.5757L1243.74 31.3075C1243.73 31.3009 1243.71 31.291 1243.7 31.2843C1243.65 31.2579 1243.59 31.2314 1243.54 31.2049C1243.57 31.2214 1243.61 31.238 1243.65 31.2546C1243.57 31.2115 1243.49 31.1718 1243.41 31.1288L1243.06 30.9698C1243.09 30.9831 1243.12 30.9996 1243.15 31.0129C1242.72 30.8143 1242.28 30.6355 1241.83 30.4766C1239.91 30.0231 1237.93 29.8344 1234.51 29.7781C1240.84 30.0893 1243.01 30.993 1243.74 31.3042C1243.91 31.3903 1244.08 31.4797 1244.24 31.5757Z" fill="#262626"/>
<path d="M1239.21 29.5761C1238.96 29.5165 1238.71 29.4569 1238.5 29.4105L1238.37 29.384C1237.64 29.2682 1236.19 29.4966 1234.51 29.7846C1234.66 29.7647 1234.8 29.7482 1234.95 29.7316C1237.73 29.4138 1238.53 29.4668 1239.21 29.5794V29.5761Z" fill="#262626"/>
<path d="M1237.16 29.1787C1236.94 29.1489 1236.67 29.1191 1236.46 29.0959C1236.46 29.0959 1236.45 29.0959 1236.45 29.0959C1236.41 29.1059 1236.4 29.1092 1234.51 29.7812C1236.71 29.1986 1236.92 29.1953 1237.22 29.1886C1237.2 29.1886 1237.18 29.1853 1237.16 29.182V29.1787Z" fill="#262626"/>
<path d="M1235.51 29.053C1235.48 29.043 1235.44 29.0298 1235.41 29.0199C1235.41 29.0199 1235.41 29.0199 1235.4 29.0199C1235.2 29.0099 1235.07 29.0066 1235.06 29.0066C1234.94 29.0066 1234.8 29 1234.68 29C1234.91 29.0099 1234.91 29.0165 1235.02 29.1523C1234.98 29.3112 1234.81 29.5208 1234.52 29.7813C1235.45 29.2648 1235.48 29.1655 1235.51 29.053H1235.51Z" fill="#262626"/>
<path d="M1216.05 56.0433C1219.68 64.6109 1228.77 67.8915 1231.98 68.4312C1232 68.4312 1232.01 68.4345 1232.03 68.4378C1232.2 68.4576 1232.41 68.4808 1232.57 68.4974L1232.91 68.5272C1232.91 68.5272 1232.93 68.5272 1232.93 68.5272C1231.03 68.3517 1218.01 64.5082 1215.08 52.6865C1215.11 52.862 1215.14 53.0341 1215.17 53.193C1215.39 54.0173 1215.73 55.0966 1216.01 55.9176C1216.03 55.9606 1216.04 56.0003 1216.05 56.0433Z" fill="#262626"/>
<path d="M1233.96 29.1522C1234.41 29.321 1234.43 29.4203 1234.51 29.7812C1234.84 29.0429 1234.16 29.0297 1233.56 29.0198C1233.35 29.0297 1233.06 29.0496 1232.86 29.0661L1232.66 29.0827C1232.96 29.0628 1233.61 29.0198 1233.96 29.1522Z" fill="#262626"/>
<path d="M1234.07 68.5868C1234.14 68.5868 1234.22 68.5901 1234.29 68.5901H1234.33C1234.33 68.5901 1234.35 68.5901 1234.36 68.5901C1234.45 68.5901 1234.53 68.5901 1234.62 68.5901C1234.69 68.5901 1234.76 68.5901 1234.83 68.5901C1234.83 68.5901 1234.83 68.5901 1234.84 68.5901C1233.33 68.5637 1211.83 60.4133 1215.3 43.8542C1215.3 43.8542 1215.3 43.8542 1215.3 43.8576C1215.18 44.3243 1215.07 44.9533 1214.97 45.4234C1214.87 46.0259 1214.79 46.837 1214.73 47.4428C1214.37 62.2969 1232.1 68.3981 1234.07 68.5868Z" fill="#262626"/>
<path d="M1230.83 29.3443C1230.79 29.351 1230.74 29.3609 1230.7 29.3675C1233.12 28.9537 1234.13 29.5496 1234.52 29.7813C1233.83 29.0265 1232.64 29.0398 1230.83 29.3443H1230.83Z" fill="#262626"/>
<path d="M1217.24 39.0671C1208.5 55.9108 1232.97 67.8021 1235.9 68.5403C1235.92 68.5403 1235.94 68.5403 1235.96 68.537L1236.09 68.5271C1236.11 68.5271 1236.13 68.5237 1236.15 68.5204C1236.3 68.5072 1236.48 68.4873 1236.63 68.4741C1236.65 68.4741 1236.67 68.4708 1236.69 68.4675C1233.22 65.8323 1229 64.3956 1225.66 61.5618C1224.03 60.1747 1220.2 56.9271 1217.96 52.5838C1213.48 43.8938 1217.47 38.352 1219.42 35.9685C1219.35 36.048 1219.29 36.1274 1219.22 36.2035L1218.89 36.5975C1218.37 37.3092 1217.72 38.2858 1217.25 39.0373C1217.25 39.0472 1217.24 39.0572 1217.24 39.0671Z" fill="#262626"/>
<path d="M1229.93 29.5329C1229.93 29.5329 1229.96 29.5263 1229.97 29.523C1229.94 29.5296 1229.9 29.5362 1229.88 29.5428C1229.66 29.5925 1229.37 29.6686 1229.16 29.7282C1228.71 29.8507 1228.13 30.0328 1227.7 30.195C1227.43 30.2943 1227.08 30.4267 1226.82 30.536C1226.51 30.6684 1226.11 30.8604 1225.8 31.0028C1225.48 31.1484 1225.08 31.3636 1224.78 31.5391C1224.43 31.7443 1223.99 32.0125 1223.61 32.2607C1219.65 34.9819 1216.53 39.3485 1216.96 44.2711C1217.98 55.8843 1231.13 63.8493 1236.08 66.8486C1237.23 67.5416 1237.83 68.0227 1237.9 68.292C1237.9 68.292 1237.92 68.2887 1237.93 68.2854C1238.2 68.2357 1238.54 68.1629 1238.81 68.1066C1238.82 68.1066 1238.83 68.1033 1238.84 68.1C1238.94 68.0669 1239.01 67.9278 1239.08 67.8484C1238.85 67.4147 1238.41 67.1035 1236.03 65.5443C1229.91 61.532 1223.74 56.9172 1220.14 50.379C1212.02 35.6176 1227.77 27.9803 1234.52 29.7779C1233.21 29.2714 1231.62 29.2151 1229.94 29.5296L1229.93 29.5329Z" fill="#262626"/>
<path d="M1236.78 63.8957C1240.51 66.5308 1241.39 67.1565 1240.21 67.7392C1240.23 67.7359 1240.24 67.7325 1240.25 67.7292C1240.43 67.673 1240.64 67.6034 1240.84 67.5372C1240.98 67.4909 1241.12 67.4412 1241.25 67.3916C1242.92 66.6169 1241.47 65.5443 1237.99 62.9853C1234.15 60.1549 1229.36 56.6325 1225.3 51.4814C1213.32 36.2731 1226.11 28.7451 1234.51 29.7812C1224.96 27.7122 1204.42 41.0335 1236.78 63.8957H1236.78Z" fill="#262626"/>
<path d="M1238.97 60.9361C1243.32 64.2697 1244.95 65.5178 1242.79 66.7625C1242.8 66.7559 1242.82 66.746 1242.84 66.7394C1243.2 66.5672 1243.65 66.3288 1244 66.1534C1245.68 65.1702 1245.01 64.0281 1244.03 62.9422C1239.94 58.397 1234.51 55.3844 1230.32 50.9517C1216.85 36.6835 1225.89 29.5859 1234.51 29.7845C1225.72 28.9834 1210.02 38.7426 1238.97 60.9394V60.9361Z" fill="#262626"/>
<path d="M1242.33 58.1786C1246.47 61.4957 1247.95 63.2801 1245.74 65.0743C1246.11 64.8095 1246.59 64.4321 1246.97 64.1441C1247.16 63.9885 1247.36 63.8197 1247.55 63.6508C1249.27 62.0783 1248.3 61.2276 1236.74 51.0445C1219.98 36.2864 1227.54 31.0757 1233 29.9866C1228.05 30.9102 1214.23 35.6674 1242.33 58.1786Z" fill="#262626"/>
<path d="M1234.29 29.7979C1233.89 29.8343 1233.45 29.8972 1232.99 29.9866C1233.58 29.8773 1234.03 29.821 1234.29 29.7979Z" fill="#262626"/>
<path d="M1234.51 29.7812C1234.51 29.7812 1234.42 29.7879 1234.29 29.7978C1234.37 29.7912 1234.44 29.7846 1234.51 29.7812Z" fill="#262626"/>
<path d="M1241.56 51.6835C1248.43 57.212 1251.01 59.7412 1248.77 62.4889C1248.79 62.4723 1248.8 62.4591 1248.82 62.4425C1249.17 62.0651 1249.59 61.5653 1249.92 61.1845C1249.93 61.1746 1249.93 61.168 1249.94 61.1581C1251.9 58.5957 1250.03 55.8977 1241.96 49.631C1220.92 33.2838 1232.07 30.2316 1234.52 29.7847C1232.73 30.0098 1217.77 32.5423 1241.56 51.6835H1241.56Z" fill="#262626"/>
<path d="M1242.98 47.2605C1250.75 53.0671 1252.89 56.0366 1251.44 59.0061C1251.5 58.9068 1251.55 58.8108 1251.61 58.7148L1251.66 58.6221C1251.7 58.5526 1251.74 58.4897 1251.78 58.4268L1252.22 57.5727C1252.27 57.4634 1252.32 57.3542 1252.38 57.2483C1254.11 53.2691 1247.54 48.4821 1243.17 45.3074C1228.96 34.9621 1230.62 31.1584 1234.51 29.7878C1231.19 30.6552 1225.35 34.0981 1242.98 47.2672V47.2605Z" fill="#262626"/>
<path d="M1243.36 42.7517C1250.14 47.532 1254.21 50.7299 1253.36 54.7191C1253.4 54.5833 1253.45 54.4476 1253.48 54.3152C1253.62 53.8186 1253.75 53.2592 1253.86 52.8122C1254.45 48.8364 1250.34 45.804 1243.6 41.1925C1239.14 38.1435 1230.85 32.4694 1234.51 29.7812C1228.77 32.4727 1239.75 40.2093 1243.36 42.7517Z" fill="#262626"/>
<path d="M1243.86 39.2361C1251.5 44.1985 1254.1 46.4496 1254.24 49.866C1254.24 49.7998 1254.25 49.7303 1254.25 49.6641L1254.28 48.8298L1254.26 48.0221C1254.25 47.9294 1254.25 47.84 1254.24 47.7473C1253.95 44.1621 1249.17 41.2058 1243.13 37.4716C1238.88 34.8464 1234.06 31.867 1234.52 29.7847C1232.53 31.8901 1239.35 36.3129 1243.86 39.2394L1243.86 39.2361Z" fill="#262626"/>
<path d="M1243.36 36.0679C1250.4 40.067 1253.06 42.0103 1253.9 44.94C1253.79 44.4335 1253.62 43.7913 1253.48 43.2484C1253.45 43.1358 1253.41 43.0266 1253.38 42.914C1252.24 39.9346 1248.4 37.796 1241.73 34.2935C1237.02 31.814 1235.47 30.844 1234.51 29.7847C1235.06 31.3605 1238.54 33.3368 1243.36 36.0713V36.0679Z" fill="#262626"/>
<path d="M1252.37 40.3284C1252.34 40.2688 1252.32 40.2093 1252.29 40.1497L1251.89 39.3585L1251.62 38.8851C1251.57 38.799 1251.52 38.7129 1251.47 38.6268C1250.56 37.2166 1248.92 36.1672 1246.57 34.9357C1242.68 32.903 1238.52 31.5358 1234.52 29.7812C1235.77 30.5758 1238.06 31.6285 1240.96 32.9626C1248.67 36.5015 1251.04 38.031 1252.38 40.3284H1252.37Z" fill="#262626"/>
<path d="M1249.97 36.4783C1249.93 36.432 1249.9 36.3923 1249.86 36.3426C1249.84 36.3128 1249.82 36.2863 1249.79 36.2565C1249.76 36.2201 1249.73 36.1837 1249.7 36.1473C1249.41 35.8096 1249.08 35.4422 1248.82 35.1475C1247.1 33.383 1242.28 31.5788 1234.51 29.7812C1246.3 33.3135 1248.58 34.9688 1249.97 36.4783Z" fill="#262626"/>
<path d="M1246.74 33.2639C1246.45 33.0421 1246.14 32.8103 1245.87 32.6117C1245.81 32.572 1245.75 32.5356 1245.7 32.4958C1243.83 31.3173 1240.07 30.4036 1234.51 29.7812C1237.97 30.2944 1244.15 31.453 1246.98 33.4625C1246.9 33.393 1246.82 33.3268 1246.74 33.2639Z" fill="#262626"/>
<path d="M1238.9 29.778C1239.36 29.8409 1239.81 29.9236 1240.26 30.0263C1241.05 30.1587 1241.15 30.1885 1241.75 30.3838C1241.73 30.3772 1241.71 30.3673 1241.7 30.3639C1241.4 30.2448 1240.99 30.1057 1240.68 29.9965H1240.67C1239.95 29.7614 1239.1 29.7316 1238.11 29.6919C1238.16 29.6952 1238.2 29.7018 1238.25 29.7052C1237.74 29.6588 1237.23 29.6323 1236.71 29.6323C1235.91 29.672 1235.81 29.6787 1234.51 29.7846C1236.57 29.6985 1237.49 29.7151 1238.9 29.7813V29.778ZM1238.52 29.7316C1238.61 29.7416 1238.7 29.7515 1238.79 29.7648C1238.7 29.7515 1238.61 29.7416 1238.52 29.7316Z" fill="#262626"/>
</g>
<g opacity="0.9">
<path d="M545.253 42.8808C545.338 42.911 545.429 42.9413 545.519 42.9776C546.161 43.1956 546.961 43.4439 547.572 43.6316C548.208 43.8132 549.062 44.013 549.703 44.1644C541.354 42.1239 534.227 37.5525 528.53 30.5652L530.134 32.5451C530.334 32.7691 530.509 32.969 530.679 33.1506C531.272 33.7682 531.975 34.4827 532.689 35.1729C533.131 35.5786 533.682 36.063 534.445 36.7411C534.839 37.056 535.299 37.4072 535.771 37.7583C539.822 40.7434 542.589 41.8454 545.259 42.8868L545.253 42.8808Z" fill="#262626"/>
<path d="M523.764 22.0522C530.4 37.7222 547.021 43.7225 552.894 44.7095C552.924 44.7095 552.949 44.7155 552.979 44.7216C553.288 44.7579 553.675 44.8003 553.978 44.8306L554.596 44.8851C554.596 44.8851 554.62 44.8851 554.626 44.8851C551.162 44.5642 527.343 37.5345 521.978 15.9126C522.039 16.2335 522.093 16.5484 522.154 16.839C522.553 18.3466 523.165 20.3205 523.679 21.8221C523.71 21.9009 523.74 21.9735 523.764 22.0522Z" fill="#262626"/>
<path d="M556.708 44.9941C556.848 44.9941 556.981 45.0002 557.12 45.0002H557.181C557.181 45.0002 557.229 45.0002 557.247 45.0002C557.405 45.0002 557.556 45.0002 557.714 45.0002C557.847 45.0002 557.98 45.0002 558.095 45.0002C558.101 45.0002 558.107 45.0002 558.113 45.0002C555.364 44.9517 516.032 30.0447 522.39 -0.241699C522.39 -0.241699 522.39 -0.241712 522.39 -0.235657C522.172 0.618078 521.96 1.76851 521.778 2.6283C521.602 3.73028 521.457 5.21372 521.336 6.32176C520.688 33.4899 553.112 44.649 556.708 44.9941Z" fill="#262626"/>
<path d="M525.926 -8.99722C509.947 21.8099 554.705 43.5589 560.057 44.9092C560.094 44.9092 560.13 44.9092 560.166 44.9031L560.402 44.885C560.439 44.885 560.475 44.8789 560.517 44.8728C560.79 44.8486 561.117 44.8123 561.395 44.7881C561.432 44.7881 561.468 44.782 561.498 44.776C555.159 39.9563 547.445 37.3285 541.336 32.1455C538.345 29.6085 531.339 23.6687 527.246 15.7248C519.054 -0.169227 526.344 -10.3051 529.922 -14.6646C529.795 -14.5192 529.674 -14.3739 529.553 -14.2347L528.947 -13.5141C528.003 -12.2123 526.81 -10.4262 525.956 -9.05171C525.944 -9.03354 525.938 -9.01538 525.926 -8.99722Z" fill="#262626"/>
<path d="M549.146 -26.4353C549.146 -26.4353 549.189 -26.4474 549.213 -26.4534C549.158 -26.4413 549.092 -26.4292 549.043 -26.4171C548.644 -26.3263 548.123 -26.187 547.729 -26.078C546.918 -25.854 545.846 -25.521 545.059 -25.2243C544.575 -25.0427 543.933 -24.8005 543.461 -24.6007C542.892 -24.3585 542.147 -24.0073 541.584 -23.7469C541.008 -23.4805 540.264 -23.0869 539.719 -22.766C539.077 -22.3906 538.284 -21.9002 537.581 -21.4461C530.346 -16.469 524.636 -8.48264 525.423 0.520926C527.288 21.7614 551.344 36.3293 560.396 41.815C562.487 43.0825 563.593 43.9625 563.714 44.4549C563.714 44.4549 563.757 44.4489 563.775 44.4428C564.271 44.352 564.895 44.2188 565.391 44.1159C565.41 44.1159 565.428 44.1098 565.446 44.1038C565.621 44.0432 565.749 43.7889 565.87 43.6436C565.458 42.8504 564.653 42.2813 560.299 39.4294C549.098 32.0909 537.824 23.6505 531.242 11.6921C516.389 -15.3065 545.192 -29.275 557.532 -25.9872C555.14 -26.9136 552.228 -27.0166 549.152 -26.4413L549.146 -26.4353Z" fill="#262626"/>
<path d="M561.667 36.4142C568.485 41.2338 570.108 42.3782 567.952 43.4439C567.977 43.4378 568.001 43.4318 568.019 43.4257C568.352 43.3228 568.727 43.1956 569.097 43.0745C569.351 42.9898 569.599 42.8989 569.848 42.8081C572.899 41.3913 570.241 39.4295 563.883 34.7491C556.854 29.5722 548.098 23.1298 540.675 13.7085C518.757 -14.1075 542.153 -27.8763 557.52 -25.9811C540.058 -29.7654 502.481 -5.40064 561.661 36.4142H561.667Z" fill="#262626"/>
<path d="M565.676 31.001C573.626 37.0983 576.605 39.3809 572.657 41.6575C572.687 41.6454 572.718 41.6273 572.748 41.6152C573.408 41.3003 574.231 40.8644 574.867 40.5435C577.943 38.7452 576.714 36.6562 574.928 34.6703C567.45 26.3569 557.52 20.847 549.86 12.7396C525.211 -13.3568 541.747 -26.3385 557.526 -25.9752C541.444 -27.4404 512.732 -9.59074 565.676 31.0071V31.001Z" fill="#262626"/>
<path d="M571.821 25.9577C579.396 32.0246 582.097 35.2882 578.052 38.57C578.742 38.0856 579.62 37.3953 580.31 36.8685C580.655 36.5839 581.019 36.2752 581.364 35.9664C584.506 33.0903 582.744 31.5342 561.601 12.9095C530.951 -14.0831 544.762 -23.6134 554.753 -25.6055C545.695 -23.9162 520.434 -15.2153 571.821 25.9577Z" fill="#262626"/>
<path d="M570.411 14.078C582.974 24.1896 587.691 28.8155 583.604 33.841C583.634 33.8108 583.659 33.7866 583.683 33.7563C584.325 33.066 585.1 32.1518 585.705 31.4554C585.717 31.4373 585.729 31.4252 585.741 31.407C589.32 26.7205 585.899 21.7858 571.149 10.324C532.665 -19.5749 553.051 -25.1574 557.532 -25.9749C554.268 -25.5631 526.906 -20.9312 570.417 14.078H570.411Z" fill="#262626"/>
<path d="M573.008 5.98853C587.225 16.6087 591.137 22.04 588.478 27.4712C588.587 27.2895 588.69 27.1139 588.793 26.9383L588.89 26.7688C588.963 26.6416 589.029 26.5266 589.096 26.4116L589.907 24.8494C590.004 24.6496 590.101 24.4498 590.198 24.256C593.371 16.9781 581.346 8.22277 573.366 2.41617C547.36 -16.5053 550.399 -23.4623 557.526 -25.969C551.441 -24.3826 540.76 -18.0856 573.008 6.00065V5.98853Z" fill="#262626"/>
<path d="M573.698 -2.25829C586.111 6.48492 593.546 12.3339 592.002 19.63C592.075 19.3818 592.154 19.1335 592.22 18.8913C592.468 17.9831 592.717 16.9598 592.916 16.1424C593.982 8.87054 586.474 3.3243 574.14 -5.11012C565.991 -10.6866 550.823 -21.0647 557.526 -25.9812C547.015 -21.0586 567.099 -6.90841 573.698 -2.25829Z" fill="#262626"/>
<path d="M574.613 -8.68825C588.6 0.387976 593.353 4.50529 593.607 10.7539C593.613 10.6328 593.625 10.5056 593.631 10.3845L593.674 8.85872L593.638 7.38134C593.631 7.2118 593.625 7.04831 593.613 6.87877C593.074 0.321367 584.337 -5.08561 573.287 -11.9155C565.513 -16.717 556.703 -22.1664 557.532 -25.9749C553.893 -22.124 566.366 -14.0347 574.619 -8.68219L574.613 -8.68825Z" fill="#262626"/>
<path d="M573.704 -14.4828C586.589 -7.16849 591.439 -3.61428 592.983 1.74427C592.789 0.817877 592.474 -0.356775 592.214 -1.34977C592.154 -1.55564 592.093 -1.75543 592.032 -1.9613C589.938 -7.41067 582.92 -11.3221 570.732 -17.7281C562.115 -22.2632 559.276 -24.0373 557.526 -25.9749C558.531 -23.0927 564.895 -19.478 573.704 -14.4767V-14.4828Z" fill="#262626"/>
</g>
</g>
<rect x="1" y="1" width="1817" height="56" rx="7" stroke="#262626" stroke-width="2"/>
<defs>
<linearGradient id="paint0_linear_73_9263" x1="243" y1="37" x2="243" y2="93" gradientUnits="userSpaceOnUse">
<stop stop-color="#FFBE99" stop-opacity="0"/>
<stop offset="1" stop-color="#FFBE99"/>
</linearGradient>
<linearGradient id="paint1_linear_73_9263" x1="28" y1="0" x2="28" y2="56" gradientUnits="userSpaceOnUse">
<stop stop-color="#FF9E66"/>
<stop offset="1" stop-color="#FF9E66" stop-opacity="0"/>
</linearGradient>
<linearGradient id="paint2_linear_73_9263" x1="28" y1="0" x2="28" y2="56" gradientUnits="userSpaceOnUse">
<stop stop-color="#FFBE99" stop-opacity="0"/>
<stop offset="1" stop-color="#FFBE99"/>
</linearGradient>
<linearGradient id="paint3_linear_73_9263" x1="1679" y1="-19" x2="1679" y2="37" gradientUnits="userSpaceOnUse">
<stop stop-color="#FF9E66"/>
<stop offset="1" stop-color="#FF9E66" stop-opacity="0"/>
</linearGradient>
<clipPath id="clip0_73_9263">
<rect width="1819" height="58" rx="8" fill="white"/>
</clipPath>
</defs>
</svg>
