<svg width="357" height="45" viewBox="0 0 357 45" fill="none" xmlns="http://www.w3.org/2000/svg">
<g clip-path="url(#clip0_160_30427)">
<rect width="357" height="45" rx="6" fill="#FFDECC"/>
<path d="M42.836 28L46.868 18.2H47.988L51.992 28H50.256L47.12 20.062H47.708L44.544 28H42.836ZM44.824 26.11V24.71H50.018V26.11H44.824ZM55.6016 28.14C54.9949 28.14 54.4443 27.986 53.9496 27.678C53.4643 27.37 53.0769 26.9547 52.7876 26.432C52.5076 25.9 52.3676 25.3073 52.3676 24.654C52.3676 23.9913 52.5076 23.3987 52.7876 22.876C53.0769 22.344 53.4643 21.924 53.9496 21.616C54.4443 21.2987 54.9949 21.14 55.6016 21.14C56.1149 21.14 56.5676 21.252 56.9596 21.476C57.3609 21.6907 57.6783 21.9893 57.9116 22.372C58.1449 22.7547 58.2616 23.1887 58.2616 23.674V25.606C58.2616 26.0913 58.1449 26.5253 57.9116 26.908C57.6876 27.2907 57.3749 27.594 56.9736 27.818C56.5723 28.0327 56.1149 28.14 55.6016 28.14ZM55.8536 26.684C56.2363 26.684 56.5676 26.6 56.8476 26.432C57.1369 26.2547 57.3609 26.012 57.5196 25.704C57.6783 25.396 57.7576 25.0413 57.7576 24.64C57.7576 24.2387 57.6783 23.884 57.5196 23.576C57.3609 23.268 57.1369 23.03 56.8476 22.862C56.5676 22.6847 56.2363 22.596 55.8536 22.596C55.4803 22.596 55.1489 22.6847 54.8596 22.862C54.5796 23.03 54.3556 23.268 54.1876 23.576C54.0289 23.884 53.9496 24.2387 53.9496 24.64C53.9496 25.0413 54.0289 25.396 54.1876 25.704C54.3556 26.012 54.5796 26.2547 54.8596 26.432C55.1489 26.6 55.4803 26.684 55.8536 26.684ZM59.1996 28H57.6596V26.194L57.9256 24.556L57.6596 22.932V17.92H59.1996V28ZM60.9087 28V21.28H62.4487V28H60.9087ZM65.3747 28V23.996C65.3747 23.548 65.2347 23.2027 64.9547 22.96C64.6747 22.708 64.3294 22.582 63.9187 22.582C63.6387 22.582 63.3867 22.638 63.1627 22.75C62.948 22.862 62.7754 23.0253 62.6447 23.24C62.514 23.4453 62.4487 23.6973 62.4487 23.996L61.8467 23.66C61.8467 23.1467 61.9587 22.7033 62.1827 22.33C62.4067 21.9567 62.71 21.6673 63.0927 21.462C63.4754 21.2473 63.9047 21.14 64.3807 21.14C64.8567 21.14 65.286 21.2427 65.6687 21.448C66.0514 21.6533 66.3547 21.9427 66.5787 22.316C66.8027 22.6893 66.9147 23.1373 66.9147 23.66V28H65.3747ZM69.8407 28V23.996C69.8407 23.548 69.7007 23.2027 69.4207 22.96C69.1407 22.708 68.7954 22.582 68.3847 22.582C68.114 22.582 67.8667 22.638 67.6427 22.75C67.4187 22.862 67.2414 23.0253 67.1107 23.24C66.98 23.4453 66.9147 23.6973 66.9147 23.996L66.0467 23.66C66.0934 23.1467 66.2427 22.7033 66.4947 22.33C66.7467 21.9567 67.0687 21.6673 67.4607 21.462C67.862 21.2473 68.3007 21.14 68.7767 21.14C69.262 21.14 69.7007 21.2427 70.0927 21.448C70.4847 21.6533 70.7974 21.9427 71.0307 22.316C71.264 22.6893 71.3807 23.1373 71.3807 23.66V28H69.8407ZM72.9813 28V21.28H74.5213V28H72.9813ZM73.7513 20.048C73.4899 20.048 73.2706 19.9593 73.0933 19.782C72.9253 19.6047 72.8413 19.3853 72.8413 19.124C72.8413 18.8627 72.9253 18.6433 73.0933 18.466C73.2706 18.2887 73.4899 18.2 73.7513 18.2C74.0219 18.2 74.2413 18.2887 74.4093 18.466C74.5773 18.6433 74.6613 18.8627 74.6613 19.124C74.6613 19.3853 74.5773 19.6047 74.4093 19.782C74.2413 19.9593 74.0219 20.048 73.7513 20.048ZM78.4465 28.14C78.0732 28.14 77.7139 28.0933 77.3685 28C77.0232 27.8973 76.7059 27.7573 76.4165 27.58C76.1272 27.3933 75.8752 27.1693 75.6605 26.908L76.6405 25.928C76.8739 26.1987 77.1399 26.404 77.4385 26.544C77.7465 26.6747 78.0919 26.74 78.4745 26.74C78.8199 26.74 79.0812 26.6887 79.2585 26.586C79.4359 26.4833 79.5245 26.334 79.5245 26.138C79.5245 25.9327 79.4405 25.774 79.2725 25.662C79.1045 25.55 78.8852 25.4567 78.6145 25.382C78.3532 25.298 78.0732 25.214 77.7745 25.13C77.4852 25.046 77.2052 24.934 76.9345 24.794C76.6732 24.6447 76.4585 24.444 76.2905 24.192C76.1225 23.94 76.0385 23.6133 76.0385 23.212C76.0385 22.7827 76.1365 22.414 76.3325 22.106C76.5379 21.798 76.8225 21.56 77.1865 21.392C77.5599 21.224 78.0032 21.14 78.5165 21.14C79.0579 21.14 79.5339 21.238 79.9445 21.434C80.3645 21.6207 80.7145 21.9053 80.9945 22.288L80.0145 23.268C79.8185 23.0253 79.5945 22.8433 79.3425 22.722C79.0905 22.6007 78.8012 22.54 78.4745 22.54C78.1665 22.54 77.9285 22.5867 77.7605 22.68C77.5925 22.7733 77.5085 22.9087 77.5085 23.086C77.5085 23.2727 77.5925 23.4173 77.7605 23.52C77.9285 23.6227 78.1432 23.7113 78.4045 23.786C78.6752 23.8607 78.9552 23.9447 79.2445 24.038C79.5432 24.122 79.8232 24.2433 80.0845 24.402C80.3552 24.5513 80.5745 24.7567 80.7425 25.018C80.9105 25.27 80.9945 25.6013 80.9945 26.012C80.9945 26.6653 80.7659 27.1833 80.3085 27.566C79.8512 27.9487 79.2305 28.14 78.4465 28.14ZM84.4622 28.14C84.0888 28.14 83.7295 28.0933 83.3842 28C83.0388 27.8973 82.7215 27.7573 82.4322 27.58C82.1428 27.3933 81.8908 27.1693 81.6762 26.908L82.6562 25.928C82.8895 26.1987 83.1555 26.404 83.4542 26.544C83.7622 26.6747 84.1075 26.74 84.4902 26.74C84.8355 26.74 85.0968 26.6887 85.2742 26.586C85.4515 26.4833 85.5402 26.334 85.5402 26.138C85.5402 25.9327 85.4562 25.774 85.2882 25.662C85.1202 25.55 84.9008 25.4567 84.6302 25.382C84.3688 25.298 84.0888 25.214 83.7902 25.13C83.5008 25.046 83.2208 24.934 82.9502 24.794C82.6888 24.6447 82.4742 24.444 82.3062 24.192C82.1382 23.94 82.0542 23.6133 82.0542 23.212C82.0542 22.7827 82.1522 22.414 82.3482 22.106C82.5535 21.798 82.8382 21.56 83.2022 21.392C83.5755 21.224 84.0188 21.14 84.5322 21.14C85.0735 21.14 85.5495 21.238 85.9602 21.434C86.3802 21.6207 86.7302 21.9053 87.0102 22.288L86.0302 23.268C85.8342 23.0253 85.6102 22.8433 85.3582 22.722C85.1062 22.6007 84.8168 22.54 84.4902 22.54C84.1822 22.54 83.9442 22.5867 83.7762 22.68C83.6082 22.7733 83.5242 22.9087 83.5242 23.086C83.5242 23.2727 83.6082 23.4173 83.7762 23.52C83.9442 23.6227 84.1588 23.7113 84.4202 23.786C84.6908 23.8607 84.9708 23.9447 85.2602 24.038C85.5588 24.122 85.8388 24.2433 86.1002 24.402C86.3708 24.5513 86.5902 24.7567 86.7582 25.018C86.9262 25.27 87.0102 25.6013 87.0102 26.012C87.0102 26.6653 86.7815 27.1833 86.3242 27.566C85.8668 27.9487 85.2462 28.14 84.4622 28.14ZM88.2938 28V21.28H89.8338V28H88.2938ZM89.0638 20.048C88.8024 20.048 88.5831 19.9593 88.4058 19.782C88.2378 19.6047 88.1538 19.3853 88.1538 19.124C88.1538 18.8627 88.2378 18.6433 88.4058 18.466C88.5831 18.2887 88.8024 18.2 89.0638 18.2C89.3344 18.2 89.5538 18.2887 89.7218 18.466C89.8898 18.6433 89.9738 18.8627 89.9738 19.124C89.9738 19.3853 89.8898 19.6047 89.7218 19.782C89.5538 19.9593 89.3344 20.048 89.0638 20.048ZM94.641 28.14C93.9877 28.14 93.395 27.986 92.863 27.678C92.331 27.3607 91.9064 26.936 91.589 26.404C91.281 25.872 91.127 25.2793 91.127 24.626C91.127 23.9727 91.281 23.3847 91.589 22.862C91.9064 22.3393 92.331 21.924 92.863 21.616C93.395 21.2987 93.9877 21.14 94.641 21.14C95.3037 21.14 95.901 21.294 96.433 21.602C96.965 21.91 97.385 22.33 97.693 22.862C98.0104 23.3847 98.169 23.9727 98.169 24.626C98.169 25.2793 98.0104 25.872 97.693 26.404C97.385 26.936 96.965 27.3607 96.433 27.678C95.901 27.986 95.3037 28.14 94.641 28.14ZM94.641 26.656C95.0237 26.656 95.3597 26.572 95.649 26.404C95.9477 26.2267 96.1764 25.984 96.335 25.676C96.503 25.368 96.587 25.018 96.587 24.626C96.587 24.234 96.503 23.8887 96.335 23.59C96.167 23.2913 95.9384 23.058 95.649 22.89C95.3597 22.7127 95.0237 22.624 94.641 22.624C94.2677 22.624 93.9317 22.7127 93.633 22.89C93.3437 23.058 93.115 23.2913 92.947 23.59C92.7884 23.8887 92.709 24.234 92.709 24.626C92.709 25.018 92.7884 25.368 92.947 25.676C93.115 25.984 93.3437 26.2267 93.633 26.404C93.9317 26.572 94.2677 26.656 94.641 26.656ZM104.056 28V24.122C104.056 23.674 103.911 23.3053 103.622 23.016C103.342 22.7267 102.978 22.582 102.53 22.582C102.231 22.582 101.965 22.6473 101.732 22.778C101.498 22.9087 101.316 23.0907 101.186 23.324C101.055 23.5573 100.99 23.8233 100.99 24.122L100.388 23.786C100.388 23.2727 100.5 22.82 100.724 22.428C100.948 22.0267 101.256 21.714 101.648 21.49C102.049 21.2567 102.497 21.14 102.992 21.14C103.496 21.14 103.944 21.2707 104.336 21.532C104.728 21.784 105.036 22.1153 105.26 22.526C105.484 22.9273 105.596 23.3473 105.596 23.786V28H104.056ZM99.4497 28V21.28H100.99V28H99.4497ZM109.977 28V21.28H111.517V28H109.977ZM110.747 20.048C110.486 20.048 110.267 19.9593 110.089 19.782C109.921 19.6047 109.837 19.3853 109.837 19.124C109.837 18.8627 109.921 18.6433 110.089 18.466C110.267 18.2887 110.486 18.2 110.747 18.2C111.018 18.2 111.237 18.2887 111.405 18.466C111.573 18.6433 111.657 18.8627 111.657 19.124C111.657 19.3853 111.573 19.6047 111.405 19.782C111.237 19.9593 111.018 20.048 110.747 20.048ZM115.443 28.14C115.069 28.14 114.71 28.0933 114.365 28C114.019 27.8973 113.702 27.7573 113.413 27.58C113.123 27.3933 112.871 27.1693 112.657 26.908L113.637 25.928C113.87 26.1987 114.136 26.404 114.435 26.544C114.743 26.6747 115.088 26.74 115.471 26.74C115.816 26.74 116.077 26.6887 116.255 26.586C116.432 26.4833 116.521 26.334 116.521 26.138C116.521 25.9327 116.437 25.774 116.269 25.662C116.101 25.55 115.881 25.4567 115.611 25.382C115.349 25.298 115.069 25.214 114.771 25.13C114.481 25.046 114.201 24.934 113.931 24.794C113.669 24.6447 113.455 24.444 113.287 24.192C113.119 23.94 113.035 23.6133 113.035 23.212C113.035 22.7827 113.133 22.414 113.329 22.106C113.534 21.798 113.819 21.56 114.183 21.392C114.556 21.224 114.999 21.14 115.513 21.14C116.054 21.14 116.53 21.238 116.941 21.434C117.361 21.6207 117.711 21.9053 117.991 22.288L117.011 23.268C116.815 23.0253 116.591 22.8433 116.339 22.722C116.087 22.6007 115.797 22.54 115.471 22.54C115.163 22.54 114.925 22.5867 114.757 22.68C114.589 22.7733 114.505 22.9087 114.505 23.086C114.505 23.2727 114.589 23.4173 114.757 23.52C114.925 23.6227 115.139 23.7113 115.401 23.786C115.671 23.8607 115.951 23.9447 116.241 24.038C116.539 24.122 116.819 24.2433 117.081 24.402C117.351 24.5513 117.571 24.7567 117.739 25.018C117.907 25.27 117.991 25.6013 117.991 26.012C117.991 26.6653 117.762 27.1833 117.305 27.566C116.847 27.9487 116.227 28.14 115.443 28.14ZM126.781 28.14C126.081 28.14 125.428 28.0093 124.821 27.748C124.214 27.4867 123.682 27.1273 123.225 26.67C122.768 26.2033 122.408 25.6667 122.147 25.06C121.895 24.444 121.769 23.786 121.769 23.086C121.769 22.386 121.895 21.7327 122.147 21.126C122.408 20.5193 122.763 19.9873 123.211 19.53C123.668 19.0633 124.196 18.704 124.793 18.452C125.4 18.1907 126.053 18.06 126.753 18.06C127.453 18.06 128.102 18.1907 128.699 18.452C129.306 18.704 129.838 19.0633 130.295 19.53C130.752 19.9873 131.107 20.524 131.359 21.14C131.62 21.7467 131.751 22.4 131.751 23.1C131.751 23.8 131.62 24.458 131.359 25.074C131.107 25.6807 130.752 26.2127 130.295 26.67C129.847 27.1273 129.32 27.4867 128.713 27.748C128.116 28.0093 127.472 28.14 126.781 28.14ZM126.753 26.6C127.416 26.6 127.994 26.4507 128.489 26.152C128.993 25.8533 129.385 25.4427 129.665 24.92C129.954 24.388 130.099 23.7767 130.099 23.086C130.099 22.5727 130.015 22.106 129.847 21.686C129.688 21.2567 129.46 20.888 129.161 20.58C128.862 20.2627 128.508 20.02 128.097 19.852C127.696 19.684 127.248 19.6 126.753 19.6C126.1 19.6 125.521 19.7493 125.017 20.048C124.522 20.3373 124.13 20.7433 123.841 21.266C123.561 21.7887 123.421 22.3953 123.421 23.086C123.421 23.5993 123.5 24.0753 123.659 24.514C123.827 24.9433 124.056 25.312 124.345 25.62C124.644 25.928 124.998 26.1707 125.409 26.348C125.82 26.516 126.268 26.6 126.753 26.6ZM136.776 28.14C136.263 28.14 135.806 28.0327 135.404 27.818C135.003 27.594 134.686 27.2907 134.452 26.908C134.228 26.5253 134.116 26.0913 134.116 25.606V23.674C134.116 23.1887 134.233 22.7547 134.466 22.372C134.7 21.9893 135.017 21.6907 135.418 21.476C135.82 21.252 136.272 21.14 136.776 21.14C137.383 21.14 137.929 21.2987 138.414 21.616C138.909 21.924 139.296 22.344 139.576 22.876C139.866 23.3987 140.01 23.9913 140.01 24.654C140.01 25.3073 139.866 25.9 139.576 26.432C139.296 26.9547 138.909 27.37 138.414 27.678C137.929 27.986 137.383 28.14 136.776 28.14ZM136.524 26.684C136.898 26.684 137.224 26.6 137.504 26.432C137.794 26.2547 138.018 26.012 138.176 25.704C138.344 25.396 138.428 25.0413 138.428 24.64C138.428 24.2387 138.344 23.884 138.176 23.576C138.018 23.268 137.794 23.03 137.504 22.862C137.224 22.6847 136.898 22.596 136.524 22.596C136.151 22.596 135.82 22.6847 135.53 22.862C135.241 23.03 135.017 23.268 134.858 23.576C134.7 23.884 134.62 24.2387 134.62 24.64C134.62 25.0413 134.7 25.396 134.858 25.704C135.017 26.012 135.241 26.2547 135.53 26.432C135.82 26.6 136.151 26.684 136.524 26.684ZM133.178 30.8V21.28H134.718V23.086L134.452 24.724L134.718 26.348V30.8H133.178ZM144.421 28.14C143.749 28.14 143.143 27.9907 142.601 27.692C142.069 27.384 141.645 26.964 141.327 26.432C141.019 25.9 140.865 25.3027 140.865 24.64C140.865 23.9773 141.019 23.3847 141.327 22.862C141.635 22.33 142.051 21.91 142.573 21.602C143.105 21.294 143.693 21.14 144.337 21.14C144.963 21.14 145.513 21.2847 145.989 21.574C146.475 21.8633 146.853 22.26 147.123 22.764C147.403 23.268 147.543 23.842 147.543 24.486C147.543 24.598 147.534 24.7147 147.515 24.836C147.506 24.948 147.487 25.074 147.459 25.214H141.943V23.954H146.661L146.087 24.458C146.069 24.0473 145.989 23.702 145.849 23.422C145.709 23.142 145.509 22.9273 145.247 22.778C144.995 22.6287 144.683 22.554 144.309 22.554C143.917 22.554 143.577 22.638 143.287 22.806C142.998 22.974 142.774 23.212 142.615 23.52C142.457 23.8187 142.377 24.178 142.377 24.598C142.377 25.018 142.461 25.3867 142.629 25.704C142.797 26.0213 143.035 26.2687 143.343 26.446C143.651 26.614 144.006 26.698 144.407 26.698C144.753 26.698 145.07 26.6373 145.359 26.516C145.658 26.3947 145.91 26.2173 146.115 25.984L147.095 26.978C146.769 27.3607 146.372 27.65 145.905 27.846C145.439 28.042 144.944 28.14 144.421 28.14ZM153.384 28V24.122C153.384 23.674 153.239 23.3053 152.95 23.016C152.67 22.7267 152.306 22.582 151.858 22.582C151.559 22.582 151.293 22.6473 151.06 22.778C150.826 22.9087 150.644 23.0907 150.514 23.324C150.383 23.5573 150.318 23.8233 150.318 24.122L149.716 23.786C149.716 23.2727 149.828 22.82 150.052 22.428C150.276 22.0267 150.584 21.714 150.976 21.49C151.377 21.2567 151.825 21.14 152.32 21.14C152.824 21.14 153.272 21.2707 153.664 21.532C154.056 21.784 154.364 22.1153 154.588 22.526C154.812 22.9273 154.924 23.3473 154.924 23.786V28H153.384ZM148.778 28V21.28H150.318V28H148.778ZM156.489 29.638L157.441 27.86L157.959 27.72C157.903 27.832 157.837 27.9253 157.763 28C157.688 28.0747 157.599 28.112 157.497 28.112C157.282 28.112 157.081 28.0233 156.895 27.846C156.717 27.6593 156.629 27.426 156.629 27.146C156.629 26.8473 156.727 26.5953 156.923 26.39C157.128 26.1753 157.38 26.068 157.679 26.068C157.959 26.068 158.201 26.1753 158.407 26.39C158.621 26.5953 158.729 26.8473 158.729 27.146C158.729 27.2673 158.701 27.412 158.645 27.58C158.598 27.7387 158.509 27.944 158.379 28.196L157.343 30.1L156.489 29.638ZM167.795 28.14C167.123 28.14 166.488 28.0093 165.891 27.748C165.293 27.4867 164.771 27.1273 164.323 26.67C163.875 26.2033 163.52 25.6667 163.259 25.06C163.007 24.444 162.881 23.786 162.881 23.086C162.881 22.386 163.007 21.7327 163.259 21.126C163.52 20.5193 163.875 19.9873 164.323 19.53C164.78 19.0633 165.312 18.704 165.919 18.452C166.535 18.1907 167.197 18.06 167.907 18.06C168.681 18.06 169.4 18.2093 170.063 18.508C170.725 18.8067 171.281 19.2313 171.729 19.782L170.637 20.874C170.347 20.4633 169.96 20.1507 169.475 19.936C168.989 19.712 168.467 19.6 167.907 19.6C167.235 19.6 166.642 19.7493 166.129 20.048C165.625 20.3373 165.233 20.7433 164.953 21.266C164.673 21.7887 164.533 22.3953 164.533 23.086C164.533 23.7767 164.673 24.388 164.953 24.92C165.242 25.4427 165.629 25.8533 166.115 26.152C166.6 26.4507 167.151 26.6 167.767 26.6C168.42 26.6 168.98 26.4833 169.447 26.25C169.923 26.0073 170.287 25.6527 170.539 25.186C170.791 24.71 170.917 24.1267 170.917 23.436L171.925 24.164H167.739V22.694H172.583V22.918C172.583 24.0847 172.373 25.0553 171.953 25.83C171.542 26.6047 170.977 27.1833 170.259 27.566C169.54 27.9487 168.719 28.14 167.795 28.14ZM173.975 28V21.28H175.515V28H173.975ZM175.515 24.262L174.983 23.996C174.983 23.1467 175.17 22.4607 175.543 21.938C175.926 21.406 176.5 21.14 177.265 21.14C177.601 21.14 177.904 21.2007 178.175 21.322C178.446 21.4433 178.698 21.6393 178.931 21.91L177.923 22.946C177.802 22.8153 177.666 22.722 177.517 22.666C177.368 22.61 177.195 22.582 176.999 22.582C176.57 22.582 176.215 22.7173 175.935 22.988C175.655 23.2587 175.515 23.6833 175.515 24.262ZM182.285 28.14C181.679 28.14 181.128 27.986 180.633 27.678C180.148 27.37 179.761 26.9547 179.471 26.432C179.191 25.9 179.051 25.3073 179.051 24.654C179.051 23.9913 179.191 23.3987 179.471 22.876C179.761 22.344 180.148 21.924 180.633 21.616C181.128 21.2987 181.679 21.14 182.285 21.14C182.799 21.14 183.251 21.252 183.643 21.476C184.045 21.6907 184.362 21.9893 184.595 22.372C184.829 22.7547 184.945 23.1887 184.945 23.674V25.606C184.945 26.0913 184.829 26.5253 184.595 26.908C184.371 27.2907 184.059 27.594 183.657 27.818C183.256 28.0327 182.799 28.14 182.285 28.14ZM182.537 26.684C183.107 26.684 183.564 26.4927 183.909 26.11C184.264 25.7273 184.441 25.2373 184.441 24.64C184.441 24.2387 184.362 23.884 184.203 23.576C184.045 23.268 183.821 23.03 183.531 22.862C183.251 22.6847 182.92 22.596 182.537 22.596C182.164 22.596 181.833 22.6847 181.543 22.862C181.263 23.03 181.039 23.268 180.871 23.576C180.713 23.884 180.633 24.2387 180.633 24.64C180.633 25.0413 180.713 25.396 180.871 25.704C181.039 26.012 181.263 26.2547 181.543 26.432C181.833 26.6 182.164 26.684 182.537 26.684ZM184.343 28V26.194L184.609 24.556L184.343 22.932V21.28H185.883V28H184.343ZM191.19 28.14C190.677 28.14 190.22 28.0327 189.818 27.818C189.417 27.594 189.1 27.2907 188.866 26.908C188.642 26.5253 188.53 26.0913 188.53 25.606V23.674C188.53 23.1887 188.647 22.7547 188.88 22.372C189.114 21.9893 189.431 21.6907 189.832 21.476C190.234 21.252 190.686 21.14 191.19 21.14C191.797 21.14 192.343 21.2987 192.828 21.616C193.323 21.924 193.71 22.344 193.99 22.876C194.28 23.3987 194.424 23.9913 194.424 24.654C194.424 25.3073 194.28 25.9 193.99 26.432C193.71 26.9547 193.323 27.37 192.828 27.678C192.343 27.986 191.797 28.14 191.19 28.14ZM190.938 26.684C191.312 26.684 191.638 26.6 191.918 26.432C192.208 26.2547 192.432 26.012 192.59 25.704C192.758 25.396 192.842 25.0413 192.842 24.64C192.842 24.2387 192.758 23.884 192.59 23.576C192.432 23.268 192.208 23.03 191.918 22.862C191.638 22.6847 191.312 22.596 190.938 22.596C190.565 22.596 190.234 22.6847 189.944 22.862C189.655 23.03 189.431 23.268 189.272 23.576C189.114 23.884 189.034 24.2387 189.034 24.64C189.034 25.0413 189.114 25.396 189.272 25.704C189.431 26.012 189.655 26.2547 189.944 26.432C190.234 26.6 190.565 26.684 190.938 26.684ZM187.592 28V17.92H189.132V22.932L188.866 24.556L189.132 26.194V28H187.592ZM200.686 28.07L197.816 21.28H199.51L201.47 26.264H200.98L203.052 21.28H204.76L201.638 28.07H200.686ZM198.684 30.8L200.77 26.502L201.638 28.07L200.392 30.8H198.684ZM208.5 28.14C207.847 28.14 207.254 27.986 206.722 27.678C206.19 27.3607 205.766 26.936 205.448 26.404C205.14 25.872 204.986 25.2793 204.986 24.626C204.986 23.9727 205.14 23.3847 205.448 22.862C205.766 22.3393 206.19 21.924 206.722 21.616C207.254 21.2987 207.847 21.14 208.5 21.14C209.163 21.14 209.76 21.294 210.292 21.602C210.824 21.91 211.244 22.33 211.552 22.862C211.87 23.3847 212.028 23.9727 212.028 24.626C212.028 25.2793 211.87 25.872 211.552 26.404C211.244 26.936 210.824 27.3607 210.292 27.678C209.76 27.986 209.163 28.14 208.5 28.14ZM208.5 26.656C208.883 26.656 209.219 26.572 209.508 26.404C209.807 26.2267 210.036 25.984 210.194 25.676C210.362 25.368 210.446 25.018 210.446 24.626C210.446 24.234 210.362 23.8887 210.194 23.59C210.026 23.2913 209.798 23.058 209.508 22.89C209.219 22.7127 208.883 22.624 208.5 22.624C208.127 22.624 207.791 22.7127 207.492 22.89C207.203 23.058 206.974 23.2913 206.806 23.59C206.648 23.8887 206.568 24.234 206.568 24.626C206.568 25.018 206.648 25.368 206.806 25.676C206.974 25.984 207.203 26.2267 207.492 26.404C207.791 26.572 208.127 26.656 208.5 26.656ZM216.067 28.14C215.498 28.14 214.989 28.014 214.541 27.762C214.102 27.51 213.757 27.1647 213.505 26.726C213.262 26.278 213.141 25.7647 213.141 25.186V21.28H214.681V25.116C214.681 25.4427 214.732 25.7227 214.835 25.956C214.947 26.18 215.106 26.3527 215.311 26.474C215.526 26.5953 215.778 26.656 216.067 26.656C216.515 26.656 216.856 26.5253 217.089 26.264C217.332 25.9933 217.453 25.6107 217.453 25.116V21.28H218.993V25.186C218.993 25.774 218.867 26.292 218.615 26.74C218.372 27.1787 218.032 27.524 217.593 27.776C217.154 28.0187 216.646 28.14 216.067 28.14ZM220.542 28V21.28H222.082V28H220.542ZM222.082 24.262L221.55 23.996C221.55 23.1467 221.736 22.4607 222.11 21.938C222.492 21.406 223.066 21.14 223.832 21.14C224.168 21.14 224.471 21.2007 224.742 21.322C225.012 21.4433 225.264 21.6393 225.498 21.91L224.49 22.946C224.368 22.8153 224.233 22.722 224.084 22.666C223.934 22.61 223.762 22.582 223.566 22.582C223.136 22.582 222.782 22.7173 222.502 22.988C222.222 23.2587 222.082 23.6833 222.082 24.262ZM231.49 28.14C231.116 28.14 230.757 28.0933 230.412 28C230.066 27.8973 229.749 27.7573 229.46 27.58C229.17 27.3933 228.918 27.1693 228.704 26.908L229.684 25.928C229.917 26.1987 230.183 26.404 230.482 26.544C230.79 26.6747 231.135 26.74 231.518 26.74C231.863 26.74 232.124 26.6887 232.302 26.586C232.479 26.4833 232.568 26.334 232.568 26.138C232.568 25.9327 232.484 25.774 232.316 25.662C232.148 25.55 231.928 25.4567 231.658 25.382C231.396 25.298 231.116 25.214 230.818 25.13C230.528 25.046 230.248 24.934 229.978 24.794C229.716 24.6447 229.502 24.444 229.334 24.192C229.166 23.94 229.082 23.6133 229.082 23.212C229.082 22.7827 229.18 22.414 229.376 22.106C229.581 21.798 229.866 21.56 230.23 21.392C230.603 21.224 231.046 21.14 231.56 21.14C232.101 21.14 232.577 21.238 232.988 21.434C233.408 21.6207 233.758 21.9053 234.038 22.288L233.058 23.268C232.862 23.0253 232.638 22.8433 232.386 22.722C232.134 22.6007 231.844 22.54 231.518 22.54C231.21 22.54 230.972 22.5867 230.804 22.68C230.636 22.7733 230.552 22.9087 230.552 23.086C230.552 23.2727 230.636 23.4173 230.804 23.52C230.972 23.6227 231.186 23.7113 231.448 23.786C231.718 23.8607 231.998 23.9447 232.288 24.038C232.586 24.122 232.866 24.2433 233.128 24.402C233.398 24.5513 233.618 24.7567 233.786 25.018C233.954 25.27 234.038 25.6013 234.038 26.012C234.038 26.6653 233.809 27.1833 233.352 27.566C232.894 27.9487 232.274 28.14 231.49 28.14ZM238.429 28.14C237.757 28.14 237.15 27.9907 236.609 27.692C236.077 27.384 235.652 26.964 235.335 26.432C235.027 25.9 234.873 25.3027 234.873 24.64C234.873 23.9773 235.027 23.3847 235.335 22.862C235.643 22.33 236.058 21.91 236.581 21.602C237.113 21.294 237.701 21.14 238.345 21.14C238.97 21.14 239.521 21.2847 239.997 21.574C240.482 21.8633 240.86 22.26 241.131 22.764C241.411 23.268 241.551 23.842 241.551 24.486C241.551 24.598 241.542 24.7147 241.523 24.836C241.514 24.948 241.495 25.074 241.467 25.214H235.951V23.954H240.669L240.095 24.458C240.076 24.0473 239.997 23.702 239.857 23.422C239.717 23.142 239.516 22.9273 239.255 22.778C239.003 22.6287 238.69 22.554 238.317 22.554C237.925 22.554 237.584 22.638 237.295 22.806C237.006 22.974 236.782 23.212 236.623 23.52C236.464 23.8187 236.385 24.178 236.385 24.598C236.385 25.018 236.469 25.3867 236.637 25.704C236.805 26.0213 237.043 26.2687 237.351 26.446C237.659 26.614 238.014 26.698 238.415 26.698C238.76 26.698 239.078 26.6373 239.367 26.516C239.666 26.3947 239.918 26.2173 240.123 25.984L241.103 26.978C240.776 27.3607 240.38 27.65 239.913 27.846C239.446 28.042 238.952 28.14 238.429 28.14ZM245.6 28.14C244.993 28.14 244.442 27.986 243.948 27.678C243.462 27.37 243.075 26.9547 242.786 26.432C242.506 25.9 242.366 25.3073 242.366 24.654C242.366 23.9913 242.506 23.3987 242.786 22.876C243.075 22.344 243.462 21.924 243.948 21.616C244.442 21.2987 244.993 21.14 245.6 21.14C246.113 21.14 246.566 21.252 246.958 21.476C247.359 21.6907 247.676 21.9893 247.91 22.372C248.143 22.7547 248.26 23.1887 248.26 23.674V25.606C248.26 26.0913 248.143 26.5253 247.91 26.908C247.686 27.2907 247.373 27.594 246.972 27.818C246.57 28.0327 246.113 28.14 245.6 28.14ZM245.852 26.684C246.421 26.684 246.878 26.4927 247.224 26.11C247.578 25.7273 247.756 25.2373 247.756 24.64C247.756 24.2387 247.676 23.884 247.518 23.576C247.359 23.268 247.135 23.03 246.846 22.862C246.566 22.6847 246.234 22.596 245.852 22.596C245.478 22.596 245.147 22.6847 244.858 22.862C244.578 23.03 244.354 23.268 244.186 23.576C244.027 23.884 243.948 24.2387 243.948 24.64C243.948 25.0413 244.027 25.396 244.186 25.704C244.354 26.012 244.578 26.2547 244.858 26.432C245.147 26.6 245.478 26.684 245.852 26.684ZM247.658 28V26.194L247.924 24.556L247.658 22.932V21.28H249.198V28H247.658ZM251.929 28V18.48H253.469V28H251.929ZM250.319 22.68V21.28H255.079V22.68H250.319ZM263.606 28V24.122C263.606 23.674 263.462 23.3053 263.172 23.016C262.892 22.7267 262.528 22.582 262.08 22.582C261.782 22.582 261.516 22.6473 261.282 22.778C261.049 22.9087 260.867 23.0907 260.736 23.324C260.606 23.5573 260.54 23.8233 260.54 24.122L259.938 23.786C259.938 23.2727 260.05 22.82 260.274 22.428C260.498 22.0267 260.806 21.714 261.198 21.49C261.6 21.2567 262.048 21.14 262.542 21.14C263.046 21.14 263.494 21.2707 263.886 21.532C264.278 21.784 264.586 22.1153 264.81 22.526C265.034 22.9273 265.146 23.3473 265.146 23.786V28H263.606ZM259 28V21.28H260.54V28H259ZM269.791 28.14C269.138 28.14 268.545 27.986 268.013 27.678C267.481 27.3607 267.057 26.936 266.739 26.404C266.431 25.872 266.277 25.2793 266.277 24.626C266.277 23.9727 266.431 23.3847 266.739 22.862C267.057 22.3393 267.481 21.924 268.013 21.616C268.545 21.2987 269.138 21.14 269.791 21.14C270.454 21.14 271.051 21.294 271.583 21.602C272.115 21.91 272.535 22.33 272.843 22.862C273.161 23.3847 273.319 23.9727 273.319 24.626C273.319 25.2793 273.161 25.872 272.843 26.404C272.535 26.936 272.115 27.3607 271.583 27.678C271.051 27.986 270.454 28.14 269.791 28.14ZM269.791 26.656C270.174 26.656 270.51 26.572 270.799 26.404C271.098 26.2267 271.327 25.984 271.485 25.676C271.653 25.368 271.737 25.018 271.737 24.626C271.737 24.234 271.653 23.8887 271.485 23.59C271.317 23.2913 271.089 23.058 270.799 22.89C270.51 22.7127 270.174 22.624 269.791 22.624C269.418 22.624 269.082 22.7127 268.783 22.89C268.494 23.058 268.265 23.2913 268.097 23.59C267.939 23.8887 267.859 24.234 267.859 24.626C267.859 25.018 267.939 25.368 268.097 25.676C268.265 25.984 268.494 26.2267 268.783 26.404C269.082 26.572 269.418 26.656 269.791 26.656ZM276.396 28L273.694 21.28H275.29L277.11 26.166L276.634 26.18L278.412 21.28H279.308L281.086 26.18L280.61 26.166L282.43 21.28H284.026L281.324 28H280.428L278.608 23.352H279.112L277.292 28H276.396Z" fill="#262626"/>
<path fill-rule="evenodd" clip-rule="evenodd" d="M297.5 22.5C297.5 22.0858 297.836 21.75 298.25 21.75L308.888 21.75L304.73 17.7906C304.432 17.5035 304.422 17.0287 304.709 16.7302C304.996 16.4316 305.471 16.4223 305.77 16.7094L311.27 21.9594C311.417 22.1008 311.5 22.296 311.5 22.5C311.5 22.704 311.417 22.8992 311.27 23.0406L305.77 28.2906C305.471 28.5777 304.996 28.5684 304.709 28.2698C304.422 27.9713 304.432 27.4965 304.73 27.2094L308.888 23.25L298.25 23.25C297.836 23.25 297.5 22.9142 297.5 22.5Z" fill="#262626"/>
<g opacity="0.5">
<rect x="3.5" y="35.5" width="12.5" height="12.5" transform="rotate(90 3.5 35.5)" fill="white"/>
<rect x="3.5" y="35.5" width="12.5" height="6.25" transform="rotate(90 3.5 35.5)" fill="white"/>
<rect width="12.5" height="12.5" transform="matrix(4.37114e-08 1 1 -4.37114e-08 -9 23)" fill="#FF9E66"/>
<rect width="12.5" height="12.5" transform="matrix(-4.37114e-08 -1 -1 4.37114e-08 3.5 23)" fill="#FFBE99"/>
<rect x="-9" y="10.5" width="12.5" height="12.5" transform="rotate(-90 -9 10.5)" fill="#FF9E66"/>
<path d="M-9 10.5C-7.35847 10.5 -5.73303 10.1767 -4.21645 9.54849C-2.69989 8.92031 -1.3219 7.99957 -0.161164 6.83883C0.999568 5.6781 1.92031 4.30011 2.54849 2.78354C3.17668 1.26697 3.5 -0.358477 3.5 -2L-9 -2L-9 10.5Z" fill="#FFBE99"/>
<rect x="16" y="35.5" width="12.5" height="12.5" transform="rotate(90 16 35.5)" fill="white"/>
<rect width="12.5" height="12.5" transform="matrix(4.37114e-08 1 1 -4.37114e-08 3.5 23)" fill="white"/>
<path d="M3.5 35.5C5.14153 35.5 6.76697 35.1767 8.28355 34.5485C9.80011 33.9203 11.1781 32.9996 12.3388 31.8388C13.4996 30.6781 14.4203 29.3001 15.0485 27.7835C15.6767 26.267 16 24.6415 16 23L3.5 23L3.5 35.5Z" fill="#FF9E66"/>
<rect width="12.5" height="12.5" transform="matrix(-4.37114e-08 -1 -1 4.37114e-08 16 23)" fill="#FF9E66"/>
<path d="M3.5 10.5C5.14152 10.5 6.76697 10.8233 8.28354 11.4515C9.80011 12.0797 11.1781 13.0004 12.3388 14.1612C13.4996 15.3219 14.4203 16.6999 15.0485 18.2165C15.6767 19.733 16 21.3585 16 23L3.5 23L3.5 10.5Z" fill="#FFBE99"/>
<rect x="3.5" y="10.5" width="12.5" height="12.5" transform="rotate(-90 3.5 10.5)" fill="#FF9E66"/>
<rect x="9.75" y="10.5" width="12.5" height="6.25" transform="rotate(-90 9.75 10.5)" fill="white"/>
<path d="M3.5 4.25C3.5 0.79822 6.29822 -2 9.75 -2L9.75 10.5C6.29822 10.5 3.5 7.70178 3.5 4.25Z" fill="white"/>
<rect x="28.5" y="35.5" width="12.5" height="12.5" transform="rotate(90 28.5 35.5)" fill="white"/>
<rect x="28.5" y="35.5" width="12.5" height="6.25" transform="rotate(90 28.5 35.5)" fill="#FFBE99"/>
<path d="M16 41.75C16 45.2018 18.7982 48 22.25 48L22.25 35.5C18.7982 35.5 16 38.2982 16 41.75Z" fill="#FFBE99"/>
<rect width="12.5" height="12.5" transform="matrix(4.37114e-08 1 1 -4.37114e-08 16 23)" fill="white"/>
<path d="M28.5 35.5C26.8585 35.5 25.233 35.1767 23.7165 34.5485C22.1999 33.9203 20.8219 32.9996 19.6612 31.8388C18.5004 30.6781 17.5797 29.3001 16.9515 27.7835C16.3233 26.267 16 24.6415 16 23L28.5 23L28.5 35.5Z" fill="#FF9E66"/>
<rect width="12.5" height="12.5" transform="matrix(-4.37114e-08 -1 -1 4.37114e-08 28.5 23)" fill="#FF9E66"/>
<rect x="16" y="10.5" width="12.5" height="12.5" transform="rotate(-90 16 10.5)" fill="white"/>
<rect x="41" y="35.5" width="12.5" height="12.5" transform="rotate(90 41 35.5)" fill="url(#paint0_linear_160_30427)"/>
<rect width="12.5" height="12.5" transform="matrix(4.37114e-08 1 1 -4.37114e-08 28.5 23)" fill="url(#paint1_linear_160_30427)"/>
<rect width="12.5" height="12.5" transform="matrix(-4.37114e-08 -1 -1 4.37114e-08 41 23)" fill="url(#paint2_linear_160_30427)"/>
<rect width="12.5" height="6.25" transform="matrix(-4.37114e-08 -1 -1 4.37114e-08 41 23)" fill="url(#paint3_linear_160_30427)"/>
<path d="M28.5 16.75C28.5 20.2018 31.2982 23 34.75 23L34.75 10.5C31.2982 10.5 28.5 13.2982 28.5 16.75Z" fill="#FFBE99"/>
<rect x="28.5" y="10.5" width="12.5" height="12.5" transform="rotate(-90 28.5 10.5)" fill="url(#paint4_linear_160_30427)"/>
<rect x="28.5" y="10.5" width="12.5" height="6.25" transform="rotate(-90 28.5 10.5)" fill="white"/>
<path d="M39.1025 5.19856C39.1025 2.27071 36.729 -0.102783 33.8012 -0.102783L33.8012 10.4999C36.729 10.4999 39.1025 8.1264 39.1025 5.19856Z" fill="url(#paint5_linear_160_30427)"/>
</g>
<g opacity="0.5">
<rect width="12.5" height="12.5" transform="matrix(-4.37114e-08 1 1 4.37114e-08 344.5 35.5)" fill="white"/>
<rect width="12.5" height="6.25" transform="matrix(-4.37114e-08 1 1 4.37114e-08 344.5 35.5)" fill="white"/>
<path d="M357 41.75C357 45.2018 354.202 48 350.75 48L350.75 35.5C354.202 35.5 357 38.2982 357 41.75Z" fill="white"/>
<rect x="357" y="23" width="12.5" height="12.5" transform="rotate(90 357 23)" fill="#FF9E66"/>
<rect x="344.5" y="23" width="12.5" height="12.5" transform="rotate(-90 344.5 23)" fill="#FFBE99"/>
<rect width="12.5" height="12.5" transform="matrix(4.37114e-08 -1 -1 -4.37114e-08 357 10.5)" fill="#FF9E66"/>
<path d="M357 10.5C355.358 10.5 353.733 10.1767 352.216 9.54849C350.7 8.92031 349.322 7.99957 348.161 6.83883C347 5.6781 346.08 4.30011 345.452 2.78354C344.823 1.26697 344.5 -0.358477 344.5 -2L357 -2L357 10.5Z" fill="#FFBE99"/>
<rect width="12.5" height="12.5" transform="matrix(-4.37114e-08 1 1 4.37114e-08 332 35.5)" fill="white"/>
<rect x="344.5" y="23" width="12.5" height="12.5" transform="rotate(90 344.5 23)" fill="white"/>
<path d="M344.5 35.5C342.858 35.5 341.233 35.1767 339.716 34.5485C338.2 33.9203 336.822 32.9996 335.661 31.8388C334.5 30.6781 333.58 29.3001 332.952 27.7835C332.323 26.267 332 24.6415 332 23L344.5 23L344.5 35.5Z" fill="#FF9E66"/>
<rect x="332" y="23" width="12.5" height="12.5" transform="rotate(-90 332 23)" fill="#FF9E66"/>
<path d="M344.5 10.5C342.858 10.5 341.233 10.8233 339.716 11.4515C338.2 12.0797 336.822 13.0004 335.661 14.1612C334.5 15.3219 333.58 16.6999 332.952 18.2165C332.323 19.733 332 21.3585 332 23L344.5 23L344.5 10.5Z" fill="#FFBE99"/>
<rect width="12.5" height="12.5" transform="matrix(4.37114e-08 -1 -1 -4.37114e-08 344.5 10.5)" fill="#FF9E66"/>
<rect width="12.5" height="6.25" transform="matrix(4.37114e-08 -1 -1 -4.37114e-08 338.25 10.5)" fill="white"/>
<path d="M344.5 4.25C344.5 0.79822 341.702 -2 338.25 -2L338.25 10.5C341.702 10.5 344.5 7.70178 344.5 4.25Z" fill="white"/>
<rect width="12.5" height="12.5" transform="matrix(-4.37114e-08 1 1 4.37114e-08 319.5 35.5)" fill="white"/>
<rect width="12.5" height="6.25" transform="matrix(-4.37114e-08 1 1 4.37114e-08 319.5 35.5)" fill="#FFBE99"/>
<path d="M332 41.75C332 45.2018 329.202 48 325.75 48L325.75 35.5C329.202 35.5 332 38.2982 332 41.75Z" fill="#FFBE99"/>
<rect x="332" y="23" width="12.5" height="12.5" transform="rotate(90 332 23)" fill="white"/>
<path d="M319.5 35.5C321.142 35.5 322.767 35.1767 324.284 34.5485C325.8 33.9203 327.178 32.9996 328.339 31.8388C329.5 30.6781 330.42 29.3001 331.048 27.7835C331.677 26.267 332 24.6415 332 23L319.5 23L319.5 35.5Z" fill="#FF9E66"/>
<rect x="319.5" y="23" width="12.5" height="12.5" transform="rotate(-90 319.5 23)" fill="#FF9E66"/>
<rect width="12.5" height="12.5" transform="matrix(4.37114e-08 -1 -1 -4.37114e-08 332 10.5)" fill="white"/>
<rect width="12.5" height="12.5" transform="matrix(-4.37114e-08 1 1 4.37114e-08 307 35.5)" fill="url(#paint6_linear_160_30427)"/>
<rect x="319.5" y="23" width="12.5" height="12.5" transform="rotate(90 319.5 23)" fill="url(#paint7_linear_160_30427)"/>
<rect x="307" y="23" width="12.5" height="12.5" transform="rotate(-90 307 23)" fill="url(#paint8_linear_160_30427)"/>
<rect x="307" y="23" width="12.5" height="6.25" transform="rotate(-90 307 23)" fill="url(#paint9_linear_160_30427)"/>
<path d="M319.5 16.75C319.5 20.2018 316.702 23 313.25 23L313.25 10.5C316.702 10.5 319.5 13.2982 319.5 16.75Z" fill="#FFBE99"/>
<rect width="12.5" height="12.5" transform="matrix(4.37114e-08 -1 -1 -4.37114e-08 319.5 10.5)" fill="url(#paint10_linear_160_30427)"/>
<rect width="12.5" height="6.25" transform="matrix(4.37114e-08 -1 -1 -4.37114e-08 319.5 10.5)" fill="white"/>
<path d="M308.897 5.19856C308.897 2.27071 311.271 -0.102783 314.199 -0.102783L314.199 10.4999C311.271 10.4999 308.897 8.1264 308.897 5.19856Z" fill="url(#paint11_linear_160_30427)"/>
</g>
<g opacity="0.9">
<path d="M14.7685 20.6362C14.8067 20.6498 14.8476 20.6635 14.8885 20.6798C15.1773 20.7779 15.537 20.8896 15.8123 20.9741C16.0984 21.0559 16.4827 21.1458 16.7715 21.2139C13.0136 20.2956 9.80606 18.2381 7.2417 15.0933L7.96386 15.9844C8.05379 16.0852 8.13282 16.1751 8.20913 16.2569C8.47619 16.5349 8.79231 16.8564 9.11387 17.1671C9.31281 17.3497 9.5608 17.5677 9.90417 17.8729C10.0813 18.0146 10.2884 18.1727 10.501 18.3307C12.3241 19.6742 13.5695 20.1702 14.7713 20.6389L14.7685 20.6362Z" fill="#262626"/>
<path d="M5.09689 11.2618C8.08364 18.3145 15.5642 21.0151 18.2076 21.4593C18.2212 21.4593 18.2321 21.462 18.2457 21.4648C18.3847 21.4811 18.5591 21.5002 18.6954 21.5138L18.9733 21.5384C18.9733 21.5384 18.9842 21.5384 18.9869 21.5384C17.4282 21.3939 6.70745 18.23 4.29297 8.49854C4.32022 8.64297 4.34475 8.78467 4.372 8.91548C4.55186 9.59404 4.8271 10.4824 5.05873 11.1583C5.07236 11.1937 5.08599 11.2264 5.09689 11.2618Z" fill="#262626"/>
<path d="M19.9246 21.5873C19.9873 21.5873 20.0472 21.5901 20.1099 21.5901H20.1372C20.1372 21.5901 20.159 21.5901 20.1671 21.5901C20.238 21.5901 20.3061 21.5901 20.377 21.5901C20.4369 21.5901 20.4969 21.5901 20.5487 21.5901C20.5514 21.5901 20.5541 21.5901 20.5568 21.5901C19.3196 21.5683 1.61708 14.859 4.47849 1.22778C4.47849 1.22778 4.47849 1.22778 4.47849 1.2305C4.38038 1.61475 4.285 2.13253 4.20325 2.5195C4.12422 3.01548 4.05881 3.68314 4.00431 4.18184C3.71272 16.4096 18.3059 21.432 19.9246 21.5873Z" fill="#262626"/>
<path d="M6.07004 -2.71294C-1.12161 11.1526 19.0227 20.9413 21.4317 21.549C21.448 21.549 21.4644 21.549 21.4807 21.5463L21.587 21.5381C21.6034 21.5381 21.6197 21.5354 21.6388 21.5327C21.7614 21.5218 21.9086 21.5054 22.0339 21.4945C22.0503 21.4945 22.0666 21.4918 22.0803 21.4891C19.227 19.3199 15.7552 18.1371 13.0055 15.8044C11.6593 14.6626 8.50632 11.9892 6.66412 8.41383C2.977 1.26032 6.25808 -3.30157 7.86864 -5.26367C7.81141 -5.19827 7.75691 -5.13287 7.7024 -5.07019L7.42989 -4.7459C7.00477 -4.15999 6.46791 -3.35607 6.08367 -2.73747C6.07822 -2.72929 6.07549 -2.72112 6.07004 -2.71294Z" fill="#262626"/>
<path d="M16.5209 -10.5614C16.5209 -10.5614 16.5399 -10.5668 16.5508 -10.5696C16.5263 -10.5641 16.4963 -10.5587 16.4745 -10.5532C16.2947 -10.5123 16.0603 -10.4496 15.8832 -10.4006C15.518 -10.2998 15.0357 -10.1499 14.6814 -10.0163C14.4634 -9.93459 14.1745 -9.82559 13.9619 -9.73566C13.7058 -9.62665 13.3706 -9.46859 13.1172 -9.35141C12.8583 -9.2315 12.5231 -9.05437 12.2778 -8.90994C11.9889 -8.74098 11.6319 -8.52025 11.3158 -8.31586C8.05928 -6.07579 5.48947 -2.48133 5.84374 1.57096C6.68309 11.1308 17.5101 17.6875 21.5842 20.1564C22.5253 20.7269 23.023 21.123 23.0776 21.3446C23.0776 21.3446 23.0966 21.3419 23.1048 21.3392C23.3283 21.2983 23.609 21.2383 23.8324 21.192C23.8406 21.192 23.8488 21.1893 23.8569 21.1865C23.936 21.1593 23.9932 21.0448 24.0477 20.9794C23.8624 20.6224 23.5 20.3663 21.5406 19.0827C16.4991 15.7799 11.4248 11.981 8.4626 6.59885C1.77783 -5.55256 14.7413 -11.8395 20.2952 -10.3597C19.2187 -10.7767 17.908 -10.823 16.5236 -10.5641L16.5209 -10.5614Z" fill="#262626"/>
<path d="M22.1565 17.7258C25.225 19.895 25.9553 20.4101 24.9852 20.8897C24.9961 20.887 25.007 20.8842 25.0152 20.8815C25.1651 20.8352 25.334 20.778 25.5002 20.7235C25.6147 20.6853 25.7264 20.6444 25.8382 20.6036C27.2116 19.9659 26.0153 19.0829 23.1539 16.9764C19.99 14.6464 16.0494 11.7468 12.7084 7.50651C2.8434 -5.0128 13.3734 -11.2098 20.2898 -10.3568C12.4305 -12.06 -4.48179 -1.09404 22.1538 17.7258H22.1565Z" fill="#262626"/>
<path d="M23.9606 15.2894C27.5387 18.0337 28.8795 19.061 27.1027 20.0857C27.1163 20.0802 27.1299 20.0721 27.1435 20.0666C27.4406 19.9249 27.8112 19.7287 28.0973 19.5843C29.4817 18.7749 28.9285 17.8347 28.1246 16.9409C24.759 13.1993 20.2898 10.7194 16.8425 7.07041C5.74844 -4.67496 13.1908 -10.5177 20.2925 -10.3542C13.0545 -11.0136 0.131915 -2.97993 23.9606 15.2922V15.2894Z" fill="#262626"/>
<path d="M26.7265 13.0196C30.1357 15.7502 31.3511 17.219 29.5307 18.6961C29.8414 18.4781 30.2365 18.1674 30.5472 17.9303C30.7025 17.8022 30.866 17.6632 31.0214 17.5242C32.4357 16.2298 31.6427 15.5294 22.1265 7.1469C8.33181 -5.00179 14.5479 -9.29117 19.0443 -10.1877C14.9675 -9.42743 3.59823 -5.5114 26.7265 13.0196Z" fill="#262626"/>
<path d="M26.0915 7.67282C31.7462 12.2238 33.8691 14.3058 32.0296 16.5677C32.0432 16.5541 32.0541 16.5432 32.065 16.5295C32.3539 16.2189 32.7027 15.8074 32.9752 15.494C32.9807 15.4858 32.9861 15.4804 32.9916 15.4722C34.6021 13.3629 33.0624 11.1419 26.424 5.98323C9.10298 -7.47353 18.2785 -9.98611 20.2951 -10.354C18.8263 -10.1687 6.51136 -8.08396 26.0942 7.67282H26.0915Z" fill="#262626"/>
<path d="M27.2608 4.03175C33.6594 8.81165 35.4198 11.2561 34.2235 13.7006C34.2726 13.6188 34.3189 13.5398 34.3652 13.4607L34.4088 13.3844C34.4415 13.3272 34.4715 13.2754 34.5015 13.2237L34.8666 12.5206C34.9102 12.4306 34.9538 12.3407 34.9974 12.2535C36.4254 8.97789 31.0133 5.03733 27.4215 2.42391C15.7171 -6.09216 17.0851 -9.22335 20.2926 -10.3516C17.5538 -9.63757 12.7466 -6.80342 27.2608 4.0372V4.03175Z" fill="#262626"/>
<path d="M27.5714 0.320179C33.158 4.25529 36.5045 6.88777 35.8095 10.1716C35.8422 10.0598 35.8777 9.94812 35.9077 9.83911C36.0194 9.43034 36.1311 8.96979 36.221 8.6019C36.7007 5.329 33.3215 2.83276 27.7704 -0.963362C24.1023 -3.47322 17.2758 -8.14412 20.2926 -10.3569C15.5617 -8.14139 24.601 -1.77273 27.5714 0.320179Z" fill="#262626"/>
<path d="M27.9828 -2.57372C34.2779 1.51127 36.4171 3.36437 36.5316 6.17672C36.5343 6.12222 36.5398 6.06498 36.5425 6.01048L36.5616 5.32375L36.5452 4.65881C36.5425 4.58251 36.5398 4.50892 36.5343 4.43262C36.2918 1.48129 32.3594 -0.952258 27.386 -4.02622C23.8869 -6.18726 19.9218 -8.63989 20.2952 -10.354C18.6574 -8.62081 24.2712 -4.98002 27.9855 -2.57099L27.9828 -2.57372Z" fill="#262626"/>
<path d="M27.5741 -5.18169C33.3732 -1.88971 35.556 -0.290048 36.2509 2.12171C36.1637 1.70476 36.022 1.17608 35.9048 0.729152C35.8776 0.636497 35.8503 0.546574 35.8231 0.453918C34.8802 -1.99871 31.7217 -3.75916 26.236 -6.64236C22.3581 -8.68349 21.08 -9.48196 20.2925 -10.354C20.7449 -9.05684 23.609 -7.42993 27.5741 -5.17896V-5.18169Z" fill="#262626"/>
</g>
<g opacity="0.9">
<path d="M355.301 24.9272C355.419 24.9399 355.533 24.9525 355.651 24.9694C355.537 24.9525 355.419 24.9399 355.301 24.9272Z" fill="#262626"/>
<path d="M362.59 27.2796L361.953 26.9382C361.936 26.9297 361.915 26.9171 361.898 26.9087C361.831 26.8749 361.764 26.8412 361.696 26.8075C361.738 26.8286 361.785 26.8496 361.831 26.8707C361.73 26.8159 361.629 26.7653 361.527 26.7105L361.081 26.5082C361.119 26.5251 361.161 26.5461 361.199 26.563C360.651 26.3101 360.094 26.0825 359.521 25.8801C357.072 25.3027 354.547 25.0624 350.201 24.9907C358.256 25.387 361.022 26.5377 361.949 26.9339C362.164 27.0435 362.379 27.1574 362.59 27.2796Z" fill="#262626"/>
<path d="M356.178 24.7336C355.862 24.6577 355.546 24.5819 355.276 24.5229L355.108 24.4891C354.18 24.3416 352.338 24.6325 350.201 24.9992C350.387 24.9739 350.568 24.9528 350.753 24.9317C354.29 24.5271 355.314 24.5945 356.178 24.7378V24.7336Z" fill="#262626"/>
<path d="M353.569 24.2277C353.291 24.1898 352.945 24.1518 352.676 24.1223C352.676 24.1223 352.667 24.1223 352.663 24.1223C352.612 24.135 352.604 24.1392 350.201 24.9949C352.992 24.253 353.266 24.2488 353.641 24.2403C353.62 24.2403 353.594 24.2361 353.569 24.2319V24.2277Z" fill="#262626"/>
<path d="M351.465 24.0674C351.427 24.0548 351.381 24.0379 351.343 24.0253C351.343 24.0253 351.339 24.0253 351.335 24.0253C351.073 24.0126 350.913 24.0084 350.896 24.0084C350.749 24.0084 350.563 24 350.407 24C350.702 24.0126 350.711 24.0211 350.846 24.1939C350.79 24.3962 350.576 24.6632 350.205 24.9948C351.39 24.3372 351.427 24.2107 351.47 24.0674H351.465Z" fill="#262626"/>
<path d="M349.497 24.1938C350.07 24.4087 350.1 24.5352 350.201 24.9946C350.618 24.0546 349.75 24.0378 348.983 24.0251C348.713 24.0378 348.355 24.0631 348.089 24.0842L347.836 24.1052C348.228 24.0799 349.046 24.0251 349.497 24.1938Z" fill="#262626"/>
<path d="M349.632 74.4057C349.729 74.4057 349.822 74.4099 349.919 74.4099H349.961C349.961 74.4099 349.994 74.4099 350.007 74.4099C350.117 74.4099 350.222 74.4099 350.332 74.4099C350.424 74.4099 350.517 74.4099 350.597 74.4099C350.601 74.4099 350.606 74.4099 350.61 74.4099C348.696 74.3762 321.314 63.9983 325.74 42.9138C325.74 42.9138 325.74 42.9138 325.74 42.918C325.588 43.5124 325.441 44.3133 325.314 44.9118C325.192 45.679 325.091 46.7117 325.007 47.4831C324.556 66.3968 347.128 74.1654 349.632 74.4057Z" fill="#262626"/>
<path d="M345.506 24.4384C345.455 24.4469 345.4 24.4595 345.35 24.468C348.431 23.9411 349.717 24.6998 350.206 24.9949C349.333 24.0338 347.816 24.0506 345.51 24.4384H345.506Z" fill="#262626"/>
<path d="M328.202 36.8185C317.078 58.2655 348.237 73.4065 351.963 74.3465C351.988 74.3465 352.014 74.3465 352.039 74.3423L352.203 74.3297C352.229 74.3297 352.254 74.3255 352.283 74.3212C352.473 74.3044 352.701 74.2791 352.895 74.2622C352.92 74.2622 352.945 74.258 352.966 74.2538C348.553 70.8985 343.183 69.0691 338.93 65.4609C336.847 63.6947 331.97 59.5596 329.121 54.0292C323.418 42.9643 328.493 35.908 330.984 32.873C330.895 32.9742 330.811 33.0754 330.727 33.1723L330.305 33.6739C329.648 34.5802 328.817 35.8237 328.223 36.7805C328.215 36.7932 328.21 36.8058 328.202 36.8185Z" fill="#262626"/>
<path d="M344.367 24.6785C344.367 24.6785 344.397 24.6701 344.413 24.6658C344.375 24.6743 344.329 24.6827 344.295 24.6911C344.017 24.7544 343.655 24.8513 343.381 24.9272C342.816 25.0831 342.07 25.315 341.522 25.5215C341.185 25.648 340.738 25.8166 340.409 25.9557C340.013 26.1243 339.494 26.3688 339.102 26.55C338.702 26.7355 338.183 27.0095 337.804 27.2329C337.357 27.4943 336.805 27.8357 336.316 28.1518C331.279 31.6167 327.304 37.1766 327.852 43.4446C329.15 58.2316 345.897 68.3734 352.199 72.1924C353.655 73.0748 354.425 73.6874 354.509 74.0302C354.509 74.0302 354.538 74.026 354.551 74.0218C354.897 73.9586 355.331 73.8658 355.676 73.7942C355.689 73.7942 355.702 73.7899 355.714 73.7857C355.837 73.7436 355.925 73.5665 356.009 73.4654C355.723 72.9132 355.162 72.5169 352.131 70.5316C344.333 65.4227 336.485 59.5467 331.903 51.2217C321.563 32.4261 341.615 22.7016 350.205 24.9904C348.54 24.3455 346.513 24.2738 344.371 24.6743L344.367 24.6785Z" fill="#262626"/>
<path d="M353.084 68.4325C357.831 71.7878 358.96 72.5845 357.46 73.3264C357.477 73.3222 357.494 73.318 357.506 73.3137C357.738 73.2421 357.999 73.1536 358.257 73.0693C358.434 73.0102 358.606 72.947 358.779 72.8838C360.904 71.8974 359.053 70.5317 354.627 67.2733C349.733 63.6693 343.638 59.1843 338.47 52.6255C323.211 33.2608 339.499 23.6754 350.197 24.9947C338.04 22.3602 311.881 39.3223 353.08 68.4325H353.084Z" fill="#262626"/>
<path d="M355.875 64.664C361.409 68.9087 363.483 70.4978 360.735 72.0828C360.756 72.0743 360.777 72.0617 360.798 72.0533C361.257 71.8341 361.831 71.5306 362.273 71.3072C364.415 70.0552 363.559 68.601 362.315 67.2184C357.11 61.4309 350.197 57.5951 344.864 51.9509C327.704 33.7833 339.216 24.7459 350.201 24.9988C339.005 23.9787 319.017 36.4052 355.875 64.6682V64.664Z" fill="#262626"/>
<path d="M360.153 61.1529C365.426 65.3765 367.306 67.6485 364.49 69.9332C364.971 69.5959 365.582 69.1154 366.063 68.7487C366.303 68.5506 366.556 68.3356 366.796 68.1206C368.984 66.1184 367.757 65.0351 353.038 52.0691C331.7 33.2777 341.315 26.6429 348.27 25.2561C341.964 26.4321 324.378 32.4894 360.153 61.1529Z" fill="#262626"/>
<path d="M349.918 25.0159C349.4 25.0622 348.844 25.1423 348.266 25.2561C349.008 25.117 349.59 25.0454 349.918 25.0159Z" fill="#262626"/>
<path d="M350.201 24.9949C350.201 24.9949 350.083 25.0033 349.918 25.0159C350.011 25.0075 350.108 24.9991 350.201 24.9949Z" fill="#262626"/>
<path d="M359.171 52.8827C367.917 59.9221 371.201 63.1425 368.355 66.6411C368.377 66.62 368.393 66.6032 368.41 66.5821C368.857 66.1016 369.397 65.4651 369.818 64.9803C369.827 64.9677 369.835 64.9592 369.843 64.9466C372.335 61.684 369.953 58.2486 359.685 50.2692C332.893 29.4545 347.085 25.5681 350.205 24.999C347.933 25.2857 328.884 28.5103 359.175 52.8827H359.171Z" fill="#262626"/>
<path d="M360.979 47.2511C370.877 54.6446 373.6 58.4256 371.749 62.2066C371.825 62.0802 371.897 61.958 371.968 61.8357L372.036 61.7177C372.086 61.6292 372.133 61.5491 372.179 61.469L372.744 60.3815C372.812 60.2424 372.879 60.1033 372.946 59.9684C375.155 54.9017 366.784 48.8065 361.228 44.7641C343.124 31.5916 345.24 26.7483 350.201 25.0032C345.965 26.1076 338.529 30.4914 360.979 47.2595V47.2511Z" fill="#262626"/>
<path d="M361.46 41.5101C370.101 47.5968 375.277 51.6687 374.202 56.7481C374.253 56.5752 374.308 56.4024 374.354 56.2338C374.527 55.6015 374.7 54.8892 374.839 54.3201C375.581 49.2576 370.354 45.3965 361.767 39.5247C356.094 35.6425 345.535 28.4176 350.201 24.9949C342.883 28.4218 356.865 38.2728 361.46 41.5101Z" fill="#262626"/>
<path d="M362.097 37.0335C371.834 43.3521 375.143 46.2184 375.32 50.5685C375.324 50.4842 375.332 50.3957 375.337 50.3114L375.366 49.2491L375.341 48.2206C375.337 48.1026 375.332 47.9888 375.324 47.8708C374.949 43.3057 368.866 39.5415 361.173 34.7867C355.761 31.4441 349.628 27.6504 350.205 24.999C347.672 27.6799 356.355 33.3114 362.101 37.0377L362.097 37.0335Z" fill="#262626"/>
<path d="M361.464 32.9995C370.434 38.0915 373.811 40.5658 374.885 44.2963C374.751 43.6513 374.531 42.8336 374.35 42.1423C374.308 41.999 374.266 41.8599 374.224 41.7166C372.765 37.9229 367.88 35.1998 359.395 30.7401C353.396 27.5829 351.419 26.3479 350.201 24.999C350.901 27.0055 355.331 29.5219 361.464 33.0037V32.9995Z" fill="#262626"/>
<path d="M372.942 38.4246C372.904 38.3487 372.87 38.2728 372.832 38.1969L372.322 37.1895L371.981 36.5867C371.918 36.4771 371.854 36.3675 371.787 36.2579C370.632 34.4622 368.541 33.126 365.548 31.558C360.604 28.9698 355.301 27.2289 350.205 24.9949C351.794 26.0065 354.715 27.347 358.412 29.0457C368.221 33.5518 371.243 35.4992 372.946 38.4246H372.942Z" fill="#262626"/>
<path d="M369.882 33.5223C369.836 33.4632 369.793 33.4127 369.743 33.3494C369.713 33.3115 369.684 33.2778 369.65 33.2398C369.612 33.1935 369.574 33.1471 369.536 33.1007C369.165 32.6708 368.748 32.2029 368.415 31.8277C366.223 29.581 360.094 27.2837 350.201 24.9949C365.207 29.4925 368.112 31.6001 369.882 33.5223Z" fill="#262626"/>
<path d="M365.768 29.4293C365.401 29.1469 365.001 28.8518 364.655 28.5989C364.583 28.5483 364.512 28.5019 364.44 28.4514C362.059 26.9507 357.274 25.7873 350.201 24.9949C354.602 25.6482 362.472 27.1236 366.08 29.6822C365.975 29.5937 365.869 29.5094 365.768 29.4293Z" fill="#262626"/>
<path d="M355.782 24.9906C356.368 25.0707 356.95 25.1761 357.515 25.3068C358.522 25.4754 358.648 25.5133 359.416 25.762C359.395 25.7536 359.369 25.741 359.348 25.7367C358.965 25.585 358.442 25.408 358.05 25.2689H358.041C357.118 24.9696 356.035 24.9316 354.779 24.8811C354.838 24.8853 354.893 24.8937 354.952 24.8979C354.311 24.8389 353.658 24.8052 352.996 24.8052C351.98 24.8558 351.845 24.8642 350.201 24.9991C352.815 24.8895 353.995 24.9106 355.782 24.9949V24.9906ZM355.297 24.9316C355.415 24.9443 355.529 24.9569 355.647 24.9738C355.533 24.9569 355.415 24.9443 355.297 24.9316Z" fill="#262626"/>
</g>
</g>
<rect x="1" y="1" width="355" height="43" rx="5" stroke="#262626" stroke-width="2"/>
<defs>
<linearGradient id="paint0_linear_160_30427" x1="47.25" y1="35.5" x2="47.25" y2="48" gradientUnits="userSpaceOnUse">
<stop stop-color="#FFBE99" stop-opacity="0"/>
<stop offset="1" stop-color="#FFBE99"/>
</linearGradient>
<linearGradient id="paint1_linear_160_30427" x1="6.25" y1="0" x2="6.25" y2="12.5" gradientUnits="userSpaceOnUse">
<stop stop-color="#FF9E66"/>
<stop offset="1" stop-color="#FF9E66" stop-opacity="0"/>
</linearGradient>
<linearGradient id="paint2_linear_160_30427" x1="6.25" y1="0" x2="6.25" y2="12.5" gradientUnits="userSpaceOnUse">
<stop stop-color="#FF9E66" stop-opacity="0"/>
<stop offset="0.766167" stop-color="#FF9E66"/>
</linearGradient>
<linearGradient id="paint3_linear_160_30427" x1="6.25" y1="0" x2="6.25" y2="6.25" gradientUnits="userSpaceOnUse">
<stop stop-color="#FFBE99" stop-opacity="0"/>
<stop offset="1" stop-color="#FFBE99"/>
</linearGradient>
<linearGradient id="paint4_linear_160_30427" x1="34.75" y1="10.5" x2="34.75" y2="23" gradientUnits="userSpaceOnUse">
<stop stop-color="#FFBE99"/>
<stop offset="0.159375" stop-color="#FFBE99" stop-opacity="0"/>
</linearGradient>
<linearGradient id="paint5_linear_160_30427" x1="39.1025" y1="5.19856" x2="33.8012" y2="5.19856" gradientUnits="userSpaceOnUse">
<stop stop-color="white"/>
<stop offset="1" stop-color="white" stop-opacity="0"/>
</linearGradient>
<linearGradient id="paint6_linear_160_30427" x1="6.25" y1="0" x2="6.25" y2="12.5" gradientUnits="userSpaceOnUse">
<stop stop-color="#FFBE99" stop-opacity="0"/>
<stop offset="1" stop-color="#FFBE99"/>
</linearGradient>
<linearGradient id="paint7_linear_160_30427" x1="325.75" y1="23" x2="325.75" y2="35.5" gradientUnits="userSpaceOnUse">
<stop stop-color="#FF9E66"/>
<stop offset="1" stop-color="#FF9E66" stop-opacity="0"/>
</linearGradient>
<linearGradient id="paint8_linear_160_30427" x1="313.25" y1="23" x2="313.25" y2="35.5" gradientUnits="userSpaceOnUse">
<stop stop-color="#FF9E66" stop-opacity="0"/>
<stop offset="0.766167" stop-color="#FF9E66"/>
</linearGradient>
<linearGradient id="paint9_linear_160_30427" x1="313.25" y1="23" x2="313.25" y2="29.25" gradientUnits="userSpaceOnUse">
<stop stop-color="#FFBE99" stop-opacity="0"/>
<stop offset="1" stop-color="#FFBE99"/>
</linearGradient>
<linearGradient id="paint10_linear_160_30427" x1="6.25" y1="0" x2="6.25" y2="12.5" gradientUnits="userSpaceOnUse">
<stop stop-color="#FFBE99"/>
<stop offset="0.159375" stop-color="#FFBE99" stop-opacity="0"/>
</linearGradient>
<linearGradient id="paint11_linear_160_30427" x1="308.897" y1="5.19856" x2="314.199" y2="5.19856" gradientUnits="userSpaceOnUse">
<stop stop-color="white"/>
<stop offset="1" stop-color="white" stop-opacity="0"/>
</linearGradient>
<clipPath id="clip0_160_30427">
<rect width="357" height="45" rx="6" fill="white"/>
</clipPath>
</defs>
</svg>
