<svg width="48" height="48" viewBox="0 0 48 48" fill="none" xmlns="http://www.w3.org/2000/svg">
<mask id="mask0_157_30082" style="mask-type:luminance" maskUnits="userSpaceOnUse" x="0" y="0" width="48" height="48">
<path d="M47.4407 0.5625H0.468262V47.535H47.4407V0.5625Z" fill="white"/>
</mask>
<g mask="url(#mask0_157_30082)">
<path fill-rule="evenodd" clip-rule="evenodd" d="M27.4361 3.28545C27.1485 2.80614 26.7171 2.37476 26.094 2.32683L26.2857 2.61441L26.3816 2.80614L26.7171 3.42924L26.8129 3.52511C27.0526 4.10028 27.1964 4.67545 27.2443 5.29856C27.2443 5.63407 27.1485 5.92166 27.0526 6.25718C26.9088 5.44235 26.4774 4.81924 25.9981 4.24407C25.4894 3.72332 24.8656 3.32929 24.1767 3.09373C23.2324 2.71846 22.1973 2.63498 21.205 2.85407C20.8216 2.902 20.486 3.09373 20.1026 3.28545C19.7671 3.47717 19.4795 3.76476 19.1919 4.00442C18.4957 4.69657 17.9563 5.5302 17.6102 6.4489C17.3226 7.16787 16.9871 7.88683 16.5557 8.55787C16.2202 9.13304 15.7409 9.66028 15.2616 10.0917L13.9195 11.0024C13.1314 11.4981 12.3639 12.0258 11.6188 12.5841C10.5164 13.5427 9.70155 14.8368 9.27017 16.2748C9.07844 16.9937 8.93465 17.7606 9.03051 18.4796C9.12638 18.8631 9.22224 19.1986 9.41396 19.5341V19.9175C9.22224 20.8282 9.17431 21.7868 9.46189 22.6975C9.77739 23.7726 10.3164 24.769 11.0436 25.6213L11.7147 26.532C12.0022 27.0113 12.2419 27.5386 12.2898 28.1138C12.2898 28.5451 12.146 28.9286 11.8105 29.2162C11.5526 29.4428 11.2372 29.594 10.899 29.6531C10.5608 29.7123 10.2128 29.6772 9.89327 29.5517L9.65362 29.4079L9.46189 29.312L9.41396 29.4079C9.36603 29.4558 9.3181 29.5517 9.36603 29.6475L9.70155 30.2707C9.98913 30.6541 10.3247 30.9417 10.756 31.1334C11.0915 31.3251 11.475 31.3731 11.8584 31.2772C12.0981 31.2293 12.2898 31.1334 12.4816 30.9896C12.4816 31.4689 12.6253 31.9482 12.7691 32.3796C12.9609 32.9069 13.2484 33.4341 13.6798 33.8176C14.0633 34.201 14.5426 34.3927 15.0219 34.5365C15.4533 34.6803 15.8847 34.6803 16.316 34.5844C16.4119 34.5365 16.4119 34.4886 16.4119 34.3927L16.2681 34.0572L16.2202 33.9613L15.8367 33.0027C16.6995 33.6258 17.706 33.9134 18.7605 34.0093C19.4316 34.0572 20.1505 33.9613 20.7736 33.7217C20.9174 33.6738 21.1091 33.5779 21.1571 33.4341C21.2529 33.2903 21.1571 33.1465 21.1091 33.0027L20.9174 32.2838L20.8695 32.14C21.3009 32.4276 21.7323 32.6193 22.2595 32.6193C22.8347 32.6193 23.4578 32.3796 23.7933 31.9003L23.9371 31.8524C23.6973 29.7382 23.1983 27.6615 22.4512 25.6693C22.1272 24.8043 21.7261 23.9701 21.2529 23.1769L21.1571 22.8893C21.1571 22.1703 21.0612 21.3555 20.6298 20.7803C20.9654 20.2531 21.0133 19.582 21.0612 19.0068C21.0612 18.5275 21.0612 18.0482 20.8216 17.6168L21.0133 17.5689L21.3967 17.521C21.4926 17.4731 21.5405 17.3293 21.5885 17.2334C21.9094 15.9013 22.3923 14.6136 23.0264 13.3989L23.3619 12.7279C23.4578 12.5841 23.4578 12.4403 23.5057 12.2486V12.0568L23.4098 11.3858L23.3619 10.9544L24.3205 11.242H24.7998C27.2223 10.825 29.6924 10.7604 32.1333 11.0503L32.4688 11.1461L32.7085 11.242C32.8043 11.242 32.9481 11.1941 32.9961 11.0982C33.1399 10.9544 33.1878 10.7627 33.2357 10.571L33.3795 10.6668L33.8109 11.0024L34.1464 11.1941C34.3675 11.2354 34.5927 11.2515 34.8174 11.242L35.5843 12.0089L35.6323 12.0568C36.6424 13.2118 37.5112 14.4829 38.2205 15.8434C38.4123 15.9872 38.6519 15.8913 38.7478 15.6996C39.0833 14.9327 39.1312 14.0699 38.9874 13.2551C38.7212 12.038 38.085 10.933 37.1661 10.0917C36.8785 9.75615 36.495 9.46856 36.1116 9.18097L34.0985 8.12649C33.0919 7.69511 32.0374 7.35959 30.983 7.16787C29.7847 6.92821 28.5864 6.92821 27.3402 6.97614C27.8674 6.4489 28.0112 5.72994 28.0112 5.01097C28.0112 4.38786 27.7716 3.81269 27.4361 3.28545ZM15.0698 11.8172C15.645 11.1461 16.2202 10.4751 16.6516 9.66028L15.8847 10.4751C15.4053 10.9065 14.8781 11.1941 14.3509 11.5296L13.8236 11.8651L13.6798 11.913C13.0567 12.2965 12.3857 12.7279 11.8584 13.2072C10.804 14.1179 10.085 15.3641 9.74948 16.7062C9.60569 17.4251 9.50982 18.192 9.70155 18.911C9.98913 18.0482 10.4205 17.1855 10.8998 16.4186C11.5229 15.4599 12.2898 14.5493 13.1047 13.7344L14.0153 12.8237L15.0698 11.8172Z" fill="#262626"/>
<path d="M28.8258 7.64839C30.1678 7.69632 31.5099 7.93597 32.852 8.36735C34.7281 8.89701 36.3994 9.98335 37.6451 11.4829C38.5558 12.6812 39.131 14.1191 39.3227 15.6049C39.5814 17.2062 39.6136 18.8358 39.4185 20.446L39.1789 22.0756L38.9872 23.0343C38.9392 23.1301 38.9392 23.1301 38.8434 23.1301C38.7475 22.9384 38.7475 22.7467 38.7475 22.555C38.6996 21.836 38.7954 21.165 38.8434 20.446C38.8913 19.2956 38.9872 18.1453 38.8913 16.995L38.6037 14.8381C38.2682 13.496 37.6451 12.2498 36.6865 11.2432C35.8237 10.3805 34.7692 9.66149 33.6668 9.18218C32.6123 8.7508 31.5578 8.46322 30.4554 8.27149C29.5927 8.1277 28.7299 8.07977 27.8671 8.07977C25.7403 8.04494 23.6361 8.52165 21.732 9.46977C21.1089 9.90115 20.5337 10.4284 20.0544 11.0036C18.5795 12.9396 17.6673 15.245 17.4182 17.666C17.3702 18.8163 17.4182 19.9187 17.8016 21.0212L18.1371 21.7401L18.7123 21.7881L18.7602 21.9319C18.6164 22.0277 18.4247 22.0277 18.233 22.0756C17.7537 22.1715 17.2744 22.3632 16.843 22.6508C16.5075 22.8905 16.172 23.1781 15.9802 23.5615C15.7406 24.0408 15.8364 24.616 15.9323 25.1432C16.172 26.0539 16.7471 26.9167 17.514 27.4919C18.0413 27.9232 18.7123 28.1629 19.3833 28.2588C19.8627 28.3546 20.342 28.2588 20.8213 28.2108C21.0609 28.4025 21.2047 28.786 21.3485 29.0257L22.2113 30.3198C22.991 31.428 24.0968 32.2657 25.3747 32.7163C26.4292 33.1477 27.5316 33.3874 28.634 33.627L30.5992 34.0105L31.414 34.2501V34.4419H30.8389C29.7614 34.3818 28.6888 34.2537 27.6275 34.0584C26.2021 33.7748 24.8386 33.2391 23.6013 32.4767C23.074 32.1412 22.5947 31.7098 22.2113 31.1826C22.5433 33.1803 22.2764 35.2317 21.4444 37.0781C20.7254 38.3722 19.5271 39.3788 18.0892 39.8102C17.9454 39.8581 17.7537 39.906 17.6099 39.8581C17.514 39.8581 17.514 39.8102 17.514 39.7143C17.562 39.5705 17.7058 39.4746 17.8016 39.4267C18.3768 39.0433 19.0478 38.7557 19.623 38.3243C20.2461 37.797 20.7733 37.2219 21.1089 36.5029C21.3964 35.7839 21.5882 34.9691 21.684 34.1543C21.7799 33.5312 21.8278 32.9081 21.7799 32.237L21.5882 30.4157L20.7254 28.6901L19.8147 28.8819C19.1111 28.9023 18.4136 28.7464 17.7857 28.4283C17.1578 28.1101 16.6195 27.6399 16.2199 27.0605C15.5951 26.2689 15.2572 25.2889 15.2613 24.2805C15.2613 23.8491 15.4051 23.4177 15.6447 23.0822C15.8844 22.7467 16.2199 22.4591 16.5554 22.2674C16.7951 22.0756 17.1306 21.9798 17.4182 21.8839L16.9868 20.7336C16.7471 19.6791 16.7471 18.5767 16.8909 17.5222C17.2048 14.9047 18.2515 12.4291 19.9106 10.3805C20.342 9.90115 20.7733 9.46977 21.3006 9.13425C21.6361 8.94253 21.9716 8.8946 22.2592 8.70287C24.3202 7.79218 26.573 7.50459 28.8258 7.64839Z" fill="#262626"/>
<path d="M27.8669 8.07847C29.8585 8.00439 31.8411 8.38124 33.6666 9.18088C34.769 9.66019 35.8235 10.3792 36.6862 11.2419C37.6449 12.2485 38.268 13.4947 38.6035 14.8368L38.8911 16.9936C38.9869 18.144 38.8911 19.2943 38.8431 20.4447C38.7952 21.1637 38.6993 21.8347 38.7473 22.5537C38.7473 22.7454 38.7473 22.9371 38.8431 23.1288L38.7952 24.0875C38.6993 24.3271 38.6993 24.5668 38.6993 24.8543C38.6035 26.0047 38.6035 27.203 38.4118 28.4012C38.3638 28.9764 38.268 29.5995 38.0283 30.1268C37.8845 30.5581 37.6449 30.9416 37.3093 31.2771C36.7342 31.9002 36.0152 32.4275 35.2483 32.8588C34.3376 33.3861 33.379 33.6257 32.4683 34.0092C32.2286 34.105 31.989 34.2009 31.8452 34.3926C32.2286 34.4406 32.5642 34.3926 32.9476 34.2968C32.708 34.8719 32.66 35.4471 32.66 36.0223C32.66 36.2619 32.6121 36.5495 32.708 36.7892C32.8517 37.0288 33.0914 37.2206 33.3311 37.3644L35.0086 37.9875C36.0631 38.3709 37.0697 38.8502 38.1242 39.2816C38.22 39.4733 38.3638 39.6171 38.4118 39.8568C38.6993 40.384 38.7473 40.9592 38.5555 41.5344C38.3159 42.1575 37.8366 42.6847 37.2614 43.0202C36.4945 43.5475 35.5359 43.9309 34.6252 44.1706C30.8983 44.9668 27.0343 44.8517 23.3614 43.8351C22.4028 43.4995 21.4441 43.164 20.5814 42.6847C19.9104 42.3013 19.1914 41.822 18.6641 41.1988C18.3766 40.8154 18.1369 40.2882 18.089 39.8088C19.2113 39.4663 20.2046 38.794 20.9398 37.8793C21.6749 36.9647 22.1179 35.85 22.211 34.6802C22.4028 33.5299 22.4028 32.3316 22.211 31.1813C22.5945 31.7085 23.0738 32.1399 23.601 32.4754L24.8952 33.1464C26.7743 33.9571 28.7926 34.3966 30.8386 34.4406H31.4138V34.2488L30.599 34.0092L28.6338 33.6257C27.5314 33.3861 26.429 33.1464 25.3745 32.715C24.7514 32.4275 24.0804 32.0919 23.5052 31.7085C23.0259 31.2771 22.5945 30.8457 22.211 30.3185L21.3483 29.0244C21.2045 28.7847 21.0607 28.4012 20.821 28.2095C20.3417 28.2575 19.8624 28.3533 19.3831 28.2575C18.7121 28.1616 18.041 27.9219 17.5138 27.4906C16.7479 26.898 16.1932 26.0744 15.9321 25.1419C15.8362 24.6147 15.7403 24.0395 15.98 23.5602C16.1717 23.1768 16.5072 22.8892 16.8428 22.6495C17.2741 22.3619 17.7535 22.1702 18.2328 22.0743C18.4245 22.0264 18.6162 22.0264 18.76 21.9306L18.7121 21.7868L18.1369 21.7388L17.8014 21.0199C17.4179 19.9174 17.37 18.815 17.4659 17.6647C17.701 15.2485 18.5964 12.9435 20.0541 11.0023C20.5335 10.4271 21.1086 9.89985 21.7317 9.46847C23.6318 8.50376 25.7361 8.01056 27.8669 8.03054V8.07847Z" fill="#FFDECC"/>
<path d="M17.563 23.7982C17.7547 23.7982 17.8985 23.7982 18.0902 23.894C18.3299 23.942 18.6175 24.0858 18.7613 24.2775C18.8571 24.4213 18.8571 24.613 18.7613 24.7568C18.5216 25.0444 18.1861 25.2361 17.9944 25.5237C18.282 25.7154 18.6654 25.8113 19.0009 25.9551C19.1926 26.003 19.3844 26.0989 19.5282 26.2427L19.5761 26.3865L19.1926 26.2906L18.0423 25.9551C17.8506 25.9072 17.6589 25.8113 17.6109 25.6196C17.563 25.4758 17.6589 25.2841 17.7547 25.1403L18.4737 24.5172C18.282 24.1816 17.7547 24.1337 17.563 23.7982ZM38.7965 24.0858L38.8923 24.2296L38.9882 24.9965C39.0876 26.4183 39.0555 27.8464 38.8923 29.2623C38.7965 29.7896 38.6527 30.3647 38.413 30.8441C37.1413 32.5079 35.355 33.7044 33.3323 34.2472C33.2844 34.9182 33.1885 35.733 33.2365 36.4999L33.4761 36.7396C33.8596 37.0272 34.3389 37.171 34.7703 37.3148C35.8914 37.6726 36.9815 38.1215 38.0296 38.6568C38.3651 38.8485 38.6527 39.0882 38.8923 39.3758C38.6527 39.4237 38.413 39.3279 38.1254 39.2799C37.0709 38.8485 36.0644 38.3692 35.0099 37.9858L33.3323 37.3627C33.0927 37.2189 32.853 37.0272 32.7092 36.7875C32.6134 36.5479 32.6613 36.2603 32.6613 36.0206C32.6613 35.4454 32.7092 34.8703 32.9489 34.2951C32.5654 34.391 32.2299 34.4389 31.8465 34.391C31.9902 34.1992 32.2299 34.1034 32.4696 34.0075C33.3802 33.6241 34.3389 33.3844 35.2496 32.8572C36.0165 32.4258 36.7354 31.8985 37.3106 31.2754C37.6461 30.9399 37.8858 30.5565 38.0296 30.1251C38.2692 29.5978 38.3651 28.9747 38.413 28.3996C38.6047 27.2013 38.6047 26.003 38.7006 24.8527C38.7006 24.5651 38.7006 24.3254 38.7965 24.0858Z" fill="#262626"/>
<path d="M37.1658 19.1031C37.5493 19.0552 37.9327 19.1511 38.2203 19.3907C38.3641 19.5345 38.5079 19.7262 38.5079 19.918C38.5558 20.1576 38.3162 20.3973 38.0765 20.3973C37.8848 20.3493 37.7889 20.2535 37.6931 20.1097L37.2138 19.7742C37.6451 20.5411 37.4055 21.5956 36.7345 22.1228C36.3989 22.4104 35.8717 22.5062 35.5362 22.1707C35.2486 21.9311 35.1527 21.5956 35.1527 21.2121C35.0569 21.4518 34.9131 21.6435 34.8651 21.8831C34.8172 21.979 34.8172 22.0749 34.7213 22.0749C34.6255 21.8352 34.6734 21.5476 34.7693 21.26C35.0569 20.4931 35.5841 19.8221 36.3031 19.4387C36.5427 19.2469 36.8303 19.1511 37.1658 19.1031ZM27.0044 19.6304C28.2986 19.6783 29.5448 20.4931 30.072 21.6435C30.1679 21.7393 30.2638 21.9311 30.12 22.0749C29.9762 22.0749 29.8803 21.8831 29.7844 21.7873C29.5927 21.4038 29.3051 21.1162 28.9696 20.8766C29.0655 21.4038 29.0655 21.8831 28.7779 22.3625C28.5382 22.7459 28.011 22.9856 27.5796 22.9376C27.2441 22.8418 26.9086 22.698 26.6689 22.4104C26.3813 22.1228 26.2855 21.6435 26.2855 21.26C26.2855 20.9245 26.4293 20.6369 26.5731 20.3973C25.902 20.5411 25.231 20.8287 24.7038 21.26C24.56 21.308 24.4641 21.4038 24.3203 21.4038C24.1286 21.3559 24.0327 21.2121 24.0327 21.0204C24.0327 20.8766 24.1286 20.7328 24.2244 20.6369C24.6079 20.3493 24.9913 20.0618 25.4706 19.87C25.95 19.6783 26.4772 19.5824 27.0044 19.6304Z" fill="#262626"/>
<path d="M27.4848 14.5002C28.2038 14.5482 29.0186 14.7399 29.5938 15.2192C29.7855 15.363 29.9772 15.5547 30.0252 15.7464C30.0731 15.8902 30.0731 15.9861 29.9293 16.034C29.7855 16.034 29.6417 15.8902 29.5458 15.7944C29.0186 15.4109 28.3955 15.1713 27.7245 15.1713C27.341 15.1713 27.0055 15.2671 26.622 15.363C25.9031 15.5068 25.232 15.8902 24.8007 16.4654C24.6569 16.6092 24.561 16.8009 24.3214 16.8489C24.0817 16.8968 23.842 16.7051 23.842 16.4654C23.7941 16.2737 23.9379 16.082 24.0338 15.9382C24.6089 15.2192 25.4717 14.7399 26.3824 14.5482C26.7179 14.4523 27.1014 14.4523 27.4848 14.5002ZM37.3107 14.9795C37.5503 15.0754 37.79 15.3151 37.9338 15.5068C38.0776 15.6506 38.1734 15.8423 38.1734 16.034C38.1734 16.3216 37.8859 16.5133 37.5983 16.4175C37.3586 16.3216 37.3107 16.082 37.119 15.8902C36.9272 15.7464 36.6876 15.5547 36.4958 15.5068C35.9207 15.3151 35.3455 15.5547 34.9621 15.9382L34.5307 16.3695C34.5307 16.034 34.7224 15.7464 34.9621 15.5547C35.5372 14.9316 36.4958 14.692 37.3107 14.9795Z" fill="#262626"/>
<path d="M34.1943 25.4779C34.1943 25.6217 34.0984 25.7655 34.0026 25.9093C33.8108 26.1968 33.4753 26.3886 33.1398 26.4844C32.9001 26.5324 32.7084 26.3886 32.5167 26.4844C32.325 26.4844 32.1332 26.5324 31.9415 26.4365C31.8457 26.3886 31.8457 26.2448 31.9415 26.1489C32.0853 25.9572 32.325 25.8134 32.5167 25.8134C32.7084 25.7655 32.8522 25.7655 32.996 25.9093L33.0439 26.2448C33.2836 26.1489 33.3795 26.0051 33.5712 25.8613L34.1943 25.4779Z" fill="#262626"/>
<path d="M27.9151 28.0625C28.0589 28.0625 28.1548 28.1584 28.2506 28.2542L28.8738 28.5897C29.401 28.8294 29.9762 28.9732 30.5034 29.117C31.2224 29.3566 31.9413 29.4046 32.6603 29.4046C33.2355 29.4525 33.7627 29.5004 34.29 29.4525L34.4817 29.5484C33.6189 29.9797 32.5165 30.0756 31.5579 30.0277C30.4555 29.9797 29.3531 29.6442 28.3944 29.1649C28.1069 28.9732 27.7713 28.7815 27.7234 28.398C27.6755 28.2542 27.7713 28.0625 27.9151 28.0625Z" fill="#262626"/>
<path d="M29.449 6.97881C31.0567 7.07075 32.6332 7.46083 34.0983 8.12915C34.7693 8.46467 35.4883 8.80019 36.1114 9.23157C36.4949 9.47123 36.8783 9.75881 37.1659 10.0943L38.2204 11.2926C37.789 11.4843 37.3576 11.4364 36.9262 11.3885C36.1114 11.2926 35.2966 11.1967 34.4818 11.2447L34.0983 11.1967L33.7628 10.9571L33.1876 10.5736C33.1876 10.7654 33.1397 10.9092 33.0438 11.1009C32.948 11.1967 32.8521 11.2447 32.7083 11.2447C32.5166 11.1967 32.3728 11.1009 32.1811 11.1009C29.7137 10.7372 27.2031 10.7858 24.7517 11.2447H24.2245L23.3617 10.9571C23.4097 11.3885 23.5535 11.8198 23.5055 12.2033C23.4576 12.395 23.4576 12.5867 23.3617 12.7305C23.0262 13.4016 22.6428 14.0247 22.3552 14.7436C22.0197 15.5585 21.7321 16.4212 21.5404 17.284C21.5404 17.3799 21.4924 17.4757 21.3966 17.5236L20.8214 17.6195C21.061 18.0509 21.109 18.5781 21.061 19.0574C21.0131 19.6326 20.9173 20.3037 20.6297 20.783C20.9652 21.2143 21.109 21.7895 21.109 22.3647C21.1569 23.2754 21.109 24.1381 20.7735 25.0009C20.6776 25.1926 20.5338 25.4323 20.2941 25.5281C20.2462 25.5761 20.1024 25.5761 20.1024 25.4802C20.0066 25.2885 20.0066 25.0488 19.9586 24.8571C19.8628 24.1381 19.5273 23.4671 19 22.9399C18.6166 22.6043 18.1852 22.2688 17.7538 22.0292C17.4662 21.9333 17.2266 21.8374 16.9869 21.6457L16.6993 21.2623C16.1241 19.7285 15.9324 18.0509 16.1241 16.4212C16.3279 14.5112 16.9322 12.6657 17.8976 11.005C18.3769 10.2381 18.9521 9.56709 19.5752 8.94398C20.0545 8.5126 20.5338 8.12915 21.061 7.84157L21.7321 7.60191L23.2659 7.07467L24.1766 6.97881H26.2376C27.34 6.97881 28.3466 6.88295 29.449 6.97881Z" fill="#262626"/>
</g>
</svg>
